<svg xmlns="http://www.w3.org/2000/svg" xmlns:xlink="http://www.w3.org/1999/xlink" fill="none" version="1.1" width="24" height="24" viewBox="0 0 24 24"><g><g><path d="M21.189,3L7.54744,3C6.59922,3,5.79051,3.457304,5.26858,4.21329L0,11.99553L5.26371,19.7706C5.79204,20.536,6.59953,21,7.54744,21L21.189,21C22.7486,21,24,19.7688,24,18.263199999999998L24,5.73684C24,4.2311700000000005,22.7486,3,21.189,3ZM21.1901,4.89453C21.6403,4.89453,22.0168,5.26494,22.0168,5.73663L22.0168,18.262900000000002C22.0168,18.7346,21.6403,19.105,21.1901,19.105L7.54851,19.105C7.30625,19.105,7.10025,18.9866,6.92626,18.7346L2.36382,11.99531L6.93113,5.24885C7.09636,5.0096,7.29985,4.89453,7.54851,4.89453L21.1901,4.89453ZM2.36382,11.99531L2.01562,12.50963L2.01562,11.48098L2.36382,11.99531ZM17.2344,16.2639L18.5465,15.0128L15.2221,11.84291L18.5465,8.67303L17.2344,7.42188L13.91,10.59176L10.5856,7.42188L9.27344,8.67303L12.5978,11.84291L9.27344,15.0128L10.5856,16.2639L13.91,13.0941L17.2344,16.2639Z" fill-rule="evenodd" fill="#CAC4D0" fill-opacity="1"/></g></g></svg>