<svg xmlns="http://www.w3.org/2000/svg" xmlns:xlink="http://www.w3.org/1999/xlink" fill="none" version="1.1" width="12" height="12" viewBox="0 0 12 12"><g><g><path d="M0,6C0,9.3084,2.6916,12,6,12C9.3084,12,12,9.3084,12,6C12,2.6916,9.3084,0,6,0C2.6916,0,0,2.6916,0,6ZM1.2002,6.00019C1.2002,3.35359,3.35361,1.2002,6.00022,1.2002C8.64683,1.2002,10.8002,3.35359,10.8002,6.00019C10.8002,8.64679,8.64683,10.8002,6.00022,10.8002C3.35361,10.8002,1.2002,8.64679,1.2002,6.00019Z" fill-rule="evenodd" fill="#CAC4D0" fill-opacity="1"/></g><g><path d="M3.8908796210937497,6.0006153125Q3.97954262109375,6.0006153125,4.0665016210937495,5.9833153125Q4.15346162109375,5.9660153125,4.23538162109375,5.9320853125Q4.31729162109375,5.8981553125,4.3910116210937495,5.8488953125Q4.46473162109375,5.7996453125,4.52743162109375,5.7369453125Q4.5901216210937505,5.6742553125,4.63938162109375,5.6005353125Q4.68864162109375,5.5268153125,4.72257162109375,5.4448953125Q4.75650162109375,5.3629853125,4.7738016210937495,5.2760253125Q4.79110162109375,5.1890663125,4.79110162109375,5.1004033125Q4.79110162109375,5.0117413125,4.7738016210937495,4.9247813125Q4.75650162109375,4.8378223125,4.72257162109375,4.7559093125Q4.68864162109375,4.6739953125,4.63938162109375,4.6002743125Q4.5901216210937505,4.5265543125,4.52743162109375,4.4638603125Q4.46473162109375,4.4011663125,4.3910116210937495,4.3519073125Q4.31729162109375,4.3026493125,4.23538162109375,4.2687196125Q4.15346162109375,4.2347898125,4.0665016210937495,4.2174926125Q3.97954262109375,4.2001953125,3.8908796210937497,4.2001953125Q3.80221562109375,4.2001953125,3.7152556210937497,4.2174926125Q3.6282956210937503,4.2347898125,3.54638062109375,4.2687196125Q3.46446662109375,4.3026493125,3.39074462109375,4.3519073125Q3.31702362109375,4.4011663125,3.25432962109375,4.4638603125Q3.19163462109375,4.5265543125,3.14237562109375,4.6002743125Q3.09311662109375,4.6739953125,3.05918662109375,4.7559093125Q3.02525642109375,4.8378223125,3.00795902109375,4.9247813125Q2.99066162109375,5.0117413125,2.99066162109375,5.1004033125Q2.99066162109375,5.1890663125,3.00795902109375,5.2760253125Q3.02525642109375,5.3629853125,3.05918662109375,5.4448953125Q3.09311662109375,5.5268153125,3.14237562109375,5.6005353125Q3.19163462109375,5.6742553125,3.25432962109375,5.7369453125Q3.31702362109375,5.7996453125,3.39074462109375,5.8488953125Q3.46446662109375,5.8981553125,3.54638062109375,5.9320853125Q3.6282956210937503,5.9660153125,3.7152556210937497,5.9833153125Q3.80221562109375,6.0006153125,3.8908796210937497,6.0006153125ZM8.09106162109375,6.0006353125Q8.179731621093751,6.0006353125,8.26669162109375,5.9833353124999995Q8.35364162109375,5.9660353125,8.43556162109375,5.9321053125Q8.517471621093751,5.8981753125,8.59119162109375,5.8489153125Q8.66491162109375,5.7996553125000005,8.72761162109375,5.7369653125Q8.79030162109375,5.6742653125,8.83956162109375,5.6005453124999995Q8.88882162109375,5.5268253125,8.922751621093749,5.4449153125Q8.95668162109375,5.3629953125,8.97397162109375,5.2760353124999995Q8.99127162109375,5.1890763125,8.99127162109375,5.1004133125Q8.99127162109375,5.0117493125,8.97397162109375,4.9247893125Q8.95668162109375,4.8378293125,8.922751621093749,4.7559143125Q8.88882162109375,4.6740003125,8.83956162109375,4.6002783125Q8.79030162109375,4.5265573125,8.72761162109375,4.4638633125Q8.66491162109375,4.4011683125,8.59119162109375,4.3519093125Q8.517471621093751,4.3026503125,8.43556162109375,4.2687203125Q8.35364162109375,4.2347901125,8.26669162109375,4.2174927125Q8.179731621093751,4.2001953125,8.09106162109375,4.2001953125Q8.00240162109375,4.2001953125,7.91544162109375,4.2174927125Q7.82848162109375,4.2347901125,7.74657162109375,4.2687203125Q7.66466162109375,4.3026503125,7.59093162109375,4.3519093125Q7.51721162109375,4.4011683125,7.45452162109375,4.4638633125Q7.39183162109375,4.5265573125,7.34257162109375,4.6002783125Q7.29331162109375,4.6740003125,7.25938162109375,4.7559143125Q7.22545162109375,4.8378293125,7.20815162109375,4.9247893125Q7.19086162109375,5.0117493125,7.19086162109375,5.1004133125Q7.19086162109375,5.1890763125,7.20815162109375,5.2760353124999995Q7.22545162109375,5.3629953125,7.25938162109375,5.4449153125Q7.29331162109375,5.5268253125,7.34257162109375,5.6005453124999995Q7.39183162109375,5.6742653125,7.45452162109375,5.7369653125Q7.51721162109375,5.7996553125000005,7.59093162109375,5.8489153125Q7.66466162109375,5.8981753125,7.74657162109375,5.9321053125Q7.82848162109375,5.9660353125,7.91544162109375,5.9833353124999995Q8.00240162109375,6.0006353125,8.09106162109375,6.0006353125ZM3.49733762109375,8.2743153125C4.12884162109375,8.9883153125,5.03754162109375,9.397515312500001,5.99064162109375,9.397515312500001C6.9437516210937495,9.397515312500001,7.85245162109375,8.9883153125,8.48395162109375,8.2743153125C8.67595162109375,8.0571153125,8.65555162109375,7.7256253125,8.43865162109375,7.533325312500001C8.22175162109375,7.3413253125,7.88965162109375,7.360825312499999,7.69735162109375,7.5789253125C7.26535162109375,8.0670153125,6.643141621093751,8.3475153125,5.99064162109375,8.3475153125C5.33814162109375,8.3475153125,4.71594162109375,8.0670153125,4.28394162109375,7.5789253125C4.09164162109375,7.3614253125,3.75983862109375,7.3413253125,3.54263862109375,7.533325312500001C3.32573762109375,7.7256253125,3.30533762109375,8.0571153125,3.49733762109375,8.2743153125Z" fill-rule="evenodd" fill="#CAC4D0" fill-opacity="1"/></g></g></svg>