<svg xmlns="http://www.w3.org/2000/svg" xmlns:xlink="http://www.w3.org/1999/xlink" fill="none" version="1.1" width="24" height="24" viewBox="0 0 24 24"><defs><clipPath id="master_svg0_2_017039"><rect x="0" y="0" width="24" height="24" rx="0"/></clipPath></defs><g clip-path="url(#master_svg0_2_017039)"><g><path d="M19,21.000043085479735L5,21.000043085479735C4.44772,21.000043085479735,4,20.552243085479738,4,20.000043085479735L4,11.000003085479737L1,11.000003085479737L11.327,1.6120000854797363C11.7085,1.2648572854797364,12.2915,1.2648572854797364,12.673,1.6120000854797363L23,11.000003085479737L20,11.000003085479737L20,20.000043085479735C20,20.552243085479738,19.5523,21.000043085479735,19,21.000043085479735ZM6,19.000043085479735L18,19.000043085479735L18,9.157003085479737L12,3.7030030854797364L6,9.157003085479737L6,19.000043085479735ZM9,10.000003085479737L15,10.000003085479737L15,16.00004308547974L9,16.00004308547974L9,10.000003085479737ZM11,12.000043085479737L11,14.000043085479737L13,14.000043085479737L13,12.000043085479737L11,12.000043085479737Z" fill="#D8D8D8" fill-opacity="1" style="mix-blend-mode:passthrough"/></g></g></svg>