<svg xmlns="http://www.w3.org/2000/svg" xmlns:xlink="http://www.w3.org/1999/xlink" fill="none" version="1.1" width="24" height="24" viewBox="0 0 24 24"><defs><clipPath id="master_svg0_135_18871/135_18134"><rect x="0" y="0" width="24" height="24" rx="0"/></clipPath></defs><g clip-path="url(#master_svg0_135_18871/135_18134)"><g><path d="M19.4298078125,12.98C19.4698078125,12.66,19.4998078125,12.34,19.4998078125,12C19.4998078125,11.66,19.4698078125,11.34,19.4298078125,11.02C19.4298078125,11.02,21.5398078125,9.370000000000001,21.5398078125,9.370000000000001C21.7298078125,9.219999999999999,21.7798078125,8.95,21.6598078125,8.73C21.6598078125,8.73,19.6598078125,5.27,19.6598078125,5.27C19.5398078125,5.05,19.2698078125,4.970000000000001,19.0498078125,5.05C19.0498078125,5.05,16.5598078125,6.05,16.5598078125,6.05C16.0398078125,5.65,15.4798078125,5.32,14.8698078125,5.07C14.8698078125,5.07,14.4898078125,2.42,14.4898078125,2.42C14.4598078125,2.18,14.2498078125,2,13.9998078125,2C13.9998078125,2,9.999837812500001,2,9.999837812500001,2C9.749837812500001,2,9.5398378125,2.18,9.509837812499999,2.42C9.509837812499999,2.42,9.1298378125,5.07,9.1298378125,5.07C8.5198378125,5.32,7.9598378125,5.66,7.4398378125,6.05C7.4398378125,6.05,4.9498378125,5.05,4.9498378125,5.05C4.7198378125,4.96,4.4598378125,5.05,4.3398378125,5.27C4.3398378125,5.27,2.3398394125,8.73,2.3398394125,8.73C2.2098394125,8.95,2.2698395105,9.219999999999999,2.4598398125,9.370000000000001C2.4598398125,9.370000000000001,4.569837812499999,11.02,4.569837812499999,11.02C4.5298378125,11.34,4.4998378125,11.67,4.4998378125,12C4.4998378125,12.33,4.5298378125,12.66,4.569837812499999,12.98C4.569837812499999,12.98,2.4598398125,14.63,2.4598398125,14.63C2.2698395105,14.78,2.2198394125,15.05,2.3398394125,15.27C2.3398394125,15.27,4.3398378125,18.73,4.3398378125,18.73C4.4598378125,18.95,4.7298378125,19.03,4.9498378125,18.95C4.9498378125,18.95,7.4398378125,17.95,7.4398378125,17.95C7.9598378125,18.35,8.5198378125,18.68,9.1298378125,18.93C9.1298378125,18.93,9.509837812499999,21.58,9.509837812499999,21.58C9.5398378125,21.82,9.749837812500001,22,9.999837812500001,22C9.999837812500001,22,13.9998078125,22,13.9998078125,22C14.2498078125,22,14.4598078125,21.82,14.4898078125,21.58C14.4898078125,21.58,14.8698078125,18.93,14.8698078125,18.93C15.4798078125,18.68,16.0398078125,18.34,16.5598078125,17.95C16.5598078125,17.95,19.0498078125,18.95,19.0498078125,18.95C19.2798078125,19.04,19.5398078125,18.95,19.6598078125,18.73C19.6598078125,18.73,21.6598078125,15.27,21.6598078125,15.27C21.7798078125,15.05,21.7298078125,14.78,21.5398078125,14.63C21.5398078125,14.63,19.4298078125,12.98,19.4298078125,12.98ZM11.9998378125,15.5C10.069837812500001,15.5,8.499837812500001,13.93,8.499837812500001,12C8.499837812500001,10.07,10.069837812500001,8.5,11.9998378125,8.5C13.9298078125,8.5,15.4998078125,10.07,15.4998078125,12C15.4998078125,13.93,13.9298078125,15.5,11.9998378125,15.5Z" fill="#E6E0E9" fill-opacity="1"/></g></g></svg>