<svg xmlns="http://www.w3.org/2000/svg" xmlns:xlink="http://www.w3.org/1999/xlink" fill="none" version="1.1" width="20" height="20" viewBox="0 0 20 20"><defs><clipPath id="master_svg0_2_073319"><rect x="0" y="0" width="20" height="20" rx="0"/></clipPath></defs><g clip-path="url(#master_svg0_2_073319)"><g><ellipse cx="9.997395753860474" cy="5.000020265579224" rx="3.3333332538604736" ry="3.3333332538604736" fill-opacity="0" stroke-opacity="1" stroke="#292929" fill="none" stroke-width="1" stroke-linecap="ROUND" stroke-linejoin="round"/></g><g><path d="M4.34315,12.67646298828125Q2,15.01961298828125,2,18.33331298828125Q2,18.38256298828125,2.009607,18.430852988281252Q2.019215,18.47915298828125,2.0380599999999998,18.52465298828125Q2.056906,18.57015298828125,2.084265,18.61109298828125Q2.111625,18.652042988281252,2.146447,18.68686298828125Q2.181269,18.721682988281252,2.222215,18.74904298828125Q2.263161,18.776402988281248,2.308658,18.79525298828125Q2.354155,18.81409298828125,2.4024549,18.823702988281248Q2.4507543,18.83331298828125,2.5,18.83331298828125Q2.5492457,18.83331298828125,2.5975451,18.823702988281248Q2.645845,18.81409298828125,2.691342,18.79525298828125Q2.736839,18.776402988281248,2.777785,18.74904298828125Q2.818731,18.721682988281252,2.853553,18.68686298828125Q2.888375,18.652042988281252,2.915735,18.61109298828125Q2.943094,18.57015298828125,2.9619400000000002,18.52465298828125Q2.980785,18.47915298828125,2.990393,18.430852988281252Q3,18.38256298828125,3,18.33331298828125Q3,15.43382298828125,5.05026,13.38357298828125Q7.10051,11.33331298828125,10,11.33331298828125Q12.8995,11.33331298828125,14.9497,13.38357298828125Q17,15.43382298828125,17,18.33331298828125Q17,18.38256298828125,17.0096,18.430852988281252Q17.019199999999998,18.47915298828125,17.0381,18.52465298828125Q17.0569,18.57015298828125,17.0843,18.61109298828125Q17.1116,18.652042988281252,17.1464,18.68686298828125Q17.1813,18.721682988281252,17.2222,18.74904298828125Q17.263199999999998,18.776402988281248,17.3087,18.79525298828125Q17.3542,18.81409298828125,17.4025,18.823702988281248Q17.4508,18.83331298828125,17.5,18.83331298828125Q17.5492,18.83331298828125,17.5975,18.823702988281248Q17.6458,18.81409298828125,17.6913,18.79525298828125Q17.736800000000002,18.776402988281248,17.7778,18.74904298828125Q17.8187,18.721682988281252,17.8536,18.68686298828125Q17.8884,18.652042988281252,17.9157,18.61109298828125Q17.9431,18.57015298828125,17.9619,18.52465298828125Q17.980800000000002,18.47915298828125,17.9904,18.430852988281252Q18,18.38256298828125,18,18.33331298828125L18,18.33188298828125Q17.999499999999998,15.01910298828125,15.6569,12.67646298828125Q13.3137,10.33331298828125,10,10.33331298828125Q6.6863,10.33331298828125,4.34315,12.67646298828125Z" fill-rule="evenodd" fill="#292929" fill-opacity="1"/></g></g></svg>