<svg xmlns="http://www.w3.org/2000/svg" xmlns:xlink="http://www.w3.org/1999/xlink" fill="none" version="1.1" width="24" height="24" viewBox="0 0 24 24"><defs><clipPath id="master_svg0_135_18871/135_18133"><rect x="0" y="0" width="24" height="24" rx="0"/></clipPath></defs><g clip-path="url(#master_svg0_135_18871/135_18133)"><g><path d="M21.25,15.7C21.25,15.7,21.25,5.9875,21.25,5.9875C21.25,4.19636,19.8036,2.75,18.0125,2.75C18.0125,2.75,5.9875,2.75,5.9875,2.75C4.19636,2.75,2.75,4.19636,2.75,5.9875C2.75,5.9875,2.75,18.0125,2.75,18.0125C2.75,19.8036,4.19636,21.25,5.9875,21.25C5.9875,21.25,15.7,21.25,15.7,21.25C15.7,21.25,21.25,15.7,21.25,15.7ZM5.9875,19.4C5.22227,19.4,4.6,18.7777,4.6,18.0125C4.6,18.0125,4.6,5.9875,4.6,5.9875C4.6,5.22227,5.22227,4.6,5.9875,4.6C5.9875,4.6,18.0125,4.6,18.0125,4.6C18.7777,4.6,19.4,5.22227,19.4,5.9875C19.4,5.9875,19.4,14.775,19.4,14.775C19.4,14.775,18.0125,14.775,18.0125,14.775C16.2214,14.775,14.775,16.2214,14.775,18.0125C14.775,18.0125,14.775,19.4,14.775,19.4C14.775,19.4,5.9875,19.4,5.9875,19.4ZM9.93136,9.94818C9.6875,9.09045,8.796140000000001,8.58591,7.93841,8.82977C7.08068,9.073640000000001,6.5761400000000005,9.965,6.82,10.83114C6.88727,11.06659,7.005,11.27682,7.15636,11.45341C7.15636,11.45341,9.965,10.66295,9.965,10.66295C10.00705,10.4275,9.99864,10.18364,9.93136,9.94818ZM15.7168,8.31682C15.4814,7.45909,14.5816,6.95455,13.7239,7.19841C12.8661,7.44227,12.36159,8.333639999999999,12.60545,9.199770000000001C12.67273,9.43523,12.7905,9.64545,12.9418,9.82205C12.9418,9.82205,15.7505,9.03159,15.7505,9.03159C15.7925,8.796140000000001,15.7841,8.55227,15.7168,8.31682ZM16.5409,11.20955C16.5409,11.20955,7.62727,13.7239,7.62727,13.7239C8.82977,15.3132,10.91523,16.0868,12.9418,15.515C14.9684,14.9432,16.339100000000002,13.1857,16.5409,11.20955Z" fill="#E6E0E9" fill-opacity="1"/></g></g></svg>