<svg xmlns="http://www.w3.org/2000/svg" xmlns:xlink="http://www.w3.org/1999/xlink" fill="none" version="1.1" width="42" height="42" viewBox="0 0 42 42"><defs><clipPath id="master_svg0_154_14157"><rect x="0" y="0" width="42" height="42" rx="0"/></clipPath></defs><g clip-path="url(#master_svg0_154_14157)"><g><path d="M21,42C26.7989,42,32.0489,39.6495,35.8492,35.8492C39.6495,32.0489,42,26.7989,42,21C42,15.2011,39.6495,9.95106,35.8492,6.15075C32.0489,2.35051,26.7989,0,21,0C15.2011,0,9.95106,2.35051,6.15075,6.15075C2.35051,9.95106,0,15.2011,0,21C0,26.7989,2.35051,32.0489,6.15075,35.8492C9.95106,39.6495,15.2011,42,21,42Z" fill="#907EFF" fill-opacity="1"/></g><g><path d="M32.295597656249996,15.495447171875Q32.45379765625,15.337213171875,32.53949765625,15.130470171875Q32.62509765625,14.923728171875,32.62509765625,14.699951171875Q32.62509765625,14.644683471875,32.61969765625,14.589682171875Q32.61429765625,14.534680171875,32.60349765625,14.480474171875Q32.592697656249996,14.426269171875,32.576697656250005,14.373381171875Q32.560597656249996,14.320493171875,32.53949765625,14.269432171875Q32.51829765625,14.218371171875,32.49229765625,14.169630171875Q32.46619765625,14.120888171875,32.43549765625,14.074935171875Q32.40479765625,14.028981171875,32.36969765625,13.986259171875Q32.33469765625,13.943536171875,32.295597656249996,13.904456171875Q32.256497656250005,13.865376171875,32.21379765625,13.830314171875Q32.17109765625,13.795253171875,32.12509765625,13.764548171875Q32.07919765625,13.733843171875,32.03039765625,13.707790171875Q31.98169765625,13.681741171875,31.93059765625,13.660591171875Q31.87959765625,13.639441171875,31.82669765625,13.623391171875Q31.77379765625,13.607351171874999,31.71959765625,13.596571171875Q31.66539765625,13.585781171875,31.61039765625,13.580371171875Q31.55539765625,13.574951171875,31.50009765625,13.574951171875Q31.27629765625,13.574951171875,31.06959765625,13.660591171875Q30.86279765625,13.746222171875,30.70459765625,13.904456171875L18.90009765625,25.708951171875L13.39603465625,20.204901171875L13.39559265625,20.204451171875Q13.23735865625,20.046221171875,13.03061665625,19.960581171875Q12.82387365625,19.874951171875,12.60009765625,19.874951171875Q12.54482995625,19.874951171875,12.48982865625,19.880371171874998Q12.43482665625,19.885781171875,12.38062065625,19.896571171875Q12.32641565625,19.907351171875,12.27352765625,19.923391171875Q12.22063965625,19.939431171875,12.16957865625,19.960581171875Q12.11851765625,19.981731171875,12.06977665625,20.007791171875Q12.02103465625,20.033841171875,11.97508165625,20.064551171875Q11.92912765625,20.095251171875,11.88640565625,20.130311171875Q11.84368265625,20.165371171875,11.80460265625,20.204451171875Q11.76552265625,20.243531171875,11.73046065625,20.286261171875Q11.69539965625,20.328981171875,11.66469465625,20.374931171874998Q11.63398965625,20.420891171875,11.60793665625,20.469631171875Q11.58188765625,20.518371171875,11.56073765625,20.569431171875Q11.53958765625,20.620491171875,11.52353765625,20.673381171875Q11.507497656249999,20.726271171875,11.49671765625,20.780471171875Q11.48592765625,20.834681171875,11.48051765625,20.889681171875Q11.47509765625,20.944681171875,11.47509765625,20.999951171875Q11.47509765625,21.223731171875002,11.56073765625,21.430471171875Q11.64636865625,21.637211171875002,11.80460265625,21.795441171874998L11.80504565625,21.795891171875L18.10460765625,28.095451171875Q18.143687656250002,28.134551171875,18.18640765625,28.169551171875Q18.22912765625,28.204651171875,18.275077656249998,28.235351171875Q18.32103765625,28.266051171875,18.36977765625,28.292151171875Q18.41851765625,28.318151171875,18.46957765625,28.339351171875002Q18.52063765625,28.360451171875,18.57352765625,28.376551171875Q18.62641765625,28.392551171875,18.68061765625,28.403351171875002Q18.73482765625,28.414151171874998,18.78982765625,28.419551171875Q18.84482765625,28.424951171875,18.90009765625,28.424951171875Q18.95536765625,28.424951171875,19.01036765625,28.419551171875Q19.06536765625,28.414151171874998,19.11957765625,28.403351171875002Q19.17377765625,28.392551171875,19.22666765625,28.376551171875Q19.27955765625,28.360451171875,19.33061765625,28.339351171875002Q19.381677656249998,28.318151171875,19.43041765625,28.292151171875Q19.47916765625,28.266051171875,19.52511765625,28.235351171875Q19.57106765625,28.204651171875,19.61378765625,28.169551171875Q19.65651765625,28.134551171875,19.69559765625,28.095451171875L32.294597656250005,15.496398171875L32.295597656249996,15.495446171875L32.295597656249996,15.495447171875Z" fill-rule="evenodd" fill="#FFFFFF" fill-opacity="1"/></g></g></svg>