<svg xmlns="http://www.w3.org/2000/svg" xmlns:xlink="http://www.w3.org/1999/xlink" fill="none" version="1.1" width="20" height="20" viewBox="0 0 20 20"><g><g><path d="M8.857140000000001,5C8.857140000000001,5,6.57143,5,6.57143,5C6.57143,5,6.57143,7.22222,6.57143,7.22222C6.57143,7.22222,8.857140000000001,7.22222,8.857140000000001,7.22222C8.857140000000001,7.22222,8.857140000000001,5,8.857140000000001,5ZM2,5C2,5,4.28571,5,4.28571,5C4.28571,5,4.28571,7.22222,4.28571,7.22222C4.28571,7.22222,2,7.22222,2,7.22222C2,7.22222,2,5,2,5ZM14.5714,13.88889C14.5714,13.88889,5.428570000000001,13.88889,5.428570000000001,13.88889C5.428570000000001,13.88889,5.428570000000001,15,5.428570000000001,15C5.428570000000001,15,14.5714,15,14.5714,15C14.5714,15,14.5714,13.88889,14.5714,13.88889ZM11.14286,5C11.14286,5,13.4286,5,13.4286,5C13.4286,5,13.4286,7.22222,13.4286,7.22222C13.4286,7.22222,11.14286,7.22222,11.14286,7.22222C11.14286,7.22222,11.14286,5,11.14286,5ZM8.857140000000001,9.44444C8.857140000000001,9.44444,6.57143,9.44444,6.57143,9.44444C6.57143,9.44444,6.57143,11.66667,6.57143,11.66667C6.57143,11.66667,8.857140000000001,11.66667,8.857140000000001,11.66667C8.857140000000001,11.66667,8.857140000000001,9.44444,8.857140000000001,9.44444ZM2,9.44444C2,9.44444,4.28571,9.44444,4.28571,9.44444C4.28571,9.44444,4.28571,11.66667,4.28571,11.66667C4.28571,11.66667,2,11.66667,2,11.66667C2,11.66667,2,9.44444,2,9.44444ZM13.4286,9.44444C13.4286,9.44444,11.14286,9.44444,11.14286,9.44444C11.14286,9.44444,11.14286,11.66667,11.14286,11.66667C11.14286,11.66667,13.4286,11.66667,13.4286,11.66667C13.4286,11.66667,13.4286,9.44444,13.4286,9.44444ZM15.7143,5C15.7143,5,18,5,18,5C18,5,18,7.22222,18,7.22222C18,7.22222,15.7143,7.22222,15.7143,7.22222C15.7143,7.22222,15.7143,5,15.7143,5ZM18,9.44444C18,9.44444,15.7143,9.44444,15.7143,9.44444C15.7143,9.44444,15.7143,11.66667,15.7143,11.66667C15.7143,11.66667,18,11.66667,18,11.66667C18,11.66667,18,9.44444,18,9.44444Z" fill-rule="evenodd" fill="#E6E0E9" fill-opacity="1"/></g></g></svg>