<svg xmlns="http://www.w3.org/2000/svg" xmlns:xlink="http://www.w3.org/1999/xlink" fill="none" version="1.1" width="402" height="338" viewBox="0 0 402 338"><defs><clipPath id="master_svg0_135_18871/135_18138"><rect x="28" y="34" width="24" height="24" rx="0"/></clipPath><clipPath id="master_svg1_135_18871/135_18134"><rect x="117" y="10" width="24" height="24" rx="0"/></clipPath><clipPath id="master_svg2_135_18871/135_18136"><rect x="181" y="10" width="24" height="24" rx="0"/></clipPath><clipPath id="master_svg3_135_18871/135_18133"><rect x="245" y="10" width="24" height="24" rx="0"/></clipPath></defs><g><rect x="0" y="0" width="402" height="338" rx="0" fill="#141218" fill-opacity="1"/><g><g><g><rect x="147" y="324" width="108" height="4" rx="2" fill="#FFFFFF" fill-opacity="1"/></g></g><g><g><path d="M370.85714,307C370.85714,307,368.57143,307,368.57143,307C368.57143,307,368.57143,309.22222,368.57143,309.22222C368.57143,309.22222,370.85714,309.22222,370.85714,309.22222C370.85714,309.22222,370.85714,307,370.85714,307ZM364,307C364,307,366.28571,307,366.28571,307C366.28571,307,366.28571,309.22222,366.28571,309.22222C366.28571,309.22222,364,309.22222,364,309.22222C364,309.22222,364,307,364,307ZM376.5714,315.88889C376.5714,315.88889,367.42857,315.88889,367.42857,315.88889C367.42857,315.88889,367.42857,317,367.42857,317C367.42857,317,376.5714,317,376.5714,317C376.5714,317,376.5714,315.88889,376.5714,315.88889ZM373.14286,307C373.14286,307,375.4286,307,375.4286,307C375.4286,307,375.4286,309.22222,375.4286,309.22222C375.4286,309.22222,373.14286,309.22222,373.14286,309.22222C373.14286,309.22222,373.14286,307,373.14286,307ZM370.85714,311.44444C370.85714,311.44444,368.57143,311.44444,368.57143,311.44444C368.57143,311.44444,368.57143,313.66667,368.57143,313.66667C368.57143,313.66667,370.85714,313.66667,370.85714,313.66667C370.85714,313.66667,370.85714,311.44444,370.85714,311.44444ZM364,311.44444C364,311.44444,366.28571,311.44444,366.28571,311.44444C366.28571,311.44444,366.28571,313.66667,366.28571,313.66667C366.28571,313.66667,364,313.66667,364,313.66667C364,313.66667,364,311.44444,364,311.44444ZM375.4286,311.44444C375.4286,311.44444,373.14286,311.44444,373.14286,311.44444C373.14286,311.44444,373.14286,313.66667,373.14286,313.66667C373.14286,313.66667,375.4286,313.66667,375.4286,313.66667C375.4286,313.66667,375.4286,311.44444,375.4286,311.44444ZM377.7143,307C377.7143,307,380,307,380,307C380,307,380,309.22222,380,309.22222C380,309.22222,377.7143,309.22222,377.7143,309.22222C377.7143,309.22222,377.7143,307,377.7143,307ZM380,311.44444C380,311.44444,377.7143,311.44444,377.7143,311.44444C377.7143,311.44444,377.7143,313.66667,377.7143,313.66667C377.7143,313.66667,380,313.66667,380,313.66667C380,313.66667,380,311.44444,380,311.44444Z" fill-rule="evenodd" fill="#E6E0E9" fill-opacity="1"/></g></g><g><g><path d="M29.999873125,315.674873125C29.999873125,315.674873125,24.408203125,310.091533125,24.408203125,310.091533125C24.408203125,310.091533125,25.591533125,308.908203125,25.591533125,308.908203125C25.591533125,308.908203125,29.999873125,313.324873125,29.999873125,313.324873125C29.999873125,313.324873125,34.408203125,308.908203125,34.408203125,308.908203125C34.408203125,308.908203125,35.591503125,310.091533125,35.591503125,310.091533125C35.591503125,310.091533125,29.999873125,315.674873125,29.999873125,315.674873125Z" fill="#E6E0E9" fill-opacity="1"/></g></g></g><g><g><g><rect x="3" y="52" width="34.17258834838867" height="46" rx="6" fill="#1D1B20" fill-opacity="1"/><g><g><path d="M26.305,74.20400000000001Q26.305,72.44,27.019,71.1065Q27.733,69.773,28.9825,69.038Q30.232,68.303,31.786,68.303Q33.277,68.303,34.4005,68.9645Q35.524,69.626,36.049,70.592L36.049,68.492L37.981,68.492L37.981,85.46000000000001L36.049,85.46000000000001L36.049,77.879Q35.503,78.845,34.369,79.517Q33.235,80.189,31.723,80.189Q30.211,80.189,28.972,79.43299999999999Q27.733,78.67699999999999,27.019,77.312Q26.305,75.947,26.305,74.20400000000001ZM36.049,74.225Q36.049,72.923,35.524,71.957Q34.999,70.991,34.1065,70.4765Q33.214,69.962,32.143,69.962Q31.072,69.962,30.19,70.466Q29.308,70.97,28.783,71.936Q28.258,72.902,28.258,74.20400000000001Q28.258,75.527,28.783,76.5035Q29.308,77.48,30.19,77.9945Q31.072,78.509,32.143,78.509Q33.214,78.509,34.1065,77.9945Q34.999,77.48,35.524,76.5035Q36.049,75.527,36.049,74.225Z" fill="#E6E0E9" fill-opacity="1"/></g></g></g><g><rect x="43.2030029296875" y="52.00000000000182" width="34.17258834838867" height="46" rx="6" fill="#1D1B20" fill-opacity="1"/><g><g><path d="M82.5400029296875,70.49200000000182L78.9490029296875,82.00000000000182L76.9750029296875,82.00000000000182L74.2030029296875,72.86500000000181L71.4310029296875,82.00000000000182L69.4570029296875,82.00000000000182L65.8450029296875,70.49200000000182L67.7980029296875,70.49200000000182L70.4440029296875,80.15200000000182L73.3000029296875,70.49200000000182L75.2530029296875,70.49200000000182L78.0460029296875,80.17300000000182L80.6500029296875,70.49200000000182L82.5400029296875,70.49200000000182Z" fill="#E6E0E9" fill-opacity="1"/></g></g></g><g><rect x="83.40625" y="52" width="34.17258834838867" height="46" rx="6" fill="#1D1B20" fill-opacity="1"/><g><g><path d="M118.01325,75.805Q118.01325,76.351,117.95025,76.96000000000001L108.75225,76.96000000000001Q108.85725,78.661,109.91775,79.6165Q110.97825,80.572,112.49025,80.572Q113.72925000000001,80.572,114.55875,79.9945Q115.38825,79.417,115.72425,78.451L117.78225,78.451Q117.32025,80.11,115.93425,81.1495Q114.54825,82.189,112.49025,82.189Q110.85225,82.189,109.56075,81.45400000000001Q108.26925,80.719,107.53425,79.36449999999999Q106.79925,78.01,106.79925,76.225Q106.79925,74.44,107.51325,73.096Q108.22725,71.752,109.51875,71.0275Q110.81025,70.303,112.49025,70.303Q114.12825,70.303,115.38825,71.017Q116.64825,71.731,117.33075,72.9805Q118.01325,74.23,118.01325,75.805ZM116.03925,75.406Q116.03925,74.314,115.55625,73.5265Q115.07325,72.739,114.24375,72.3295Q113.41425,71.92,112.40625,71.92Q110.95725,71.92,109.93875,72.844Q108.92025,73.768,108.77325,75.406L116.03925,75.406Z" fill="#E6E0E9" fill-opacity="1"/></g></g></g><g><rect x="123.609375" y="52" width="34.17258834838867" height="46" rx="6" fill="#1D1B20" fill-opacity="1"/><g><g><path d="M149.220875,72.361Q149.724875,71.374,150.659375,70.828Q151.593875,70.282,152.937875,70.282L152.937875,72.256L152.433875,72.256Q149.220875,72.256,149.220875,75.742L149.220875,82L147.309875,82L147.309875,70.492L149.220875,70.492L149.220875,72.361Z" fill="#E6E0E9" fill-opacity="1"/></g></g></g><g><rect x="163.81201171875" y="52" width="34.17258834838867" height="46" rx="6" fill="#1D1B20" fill-opacity="1"/><g><g><path d="M189.93801171875,72.06700000000001L189.93801171875,78.85Q189.93801171875,79.69,190.29501171875,80.0365Q190.65201171875,80.383,191.53401171875,80.383L192.94101171875,80.383L192.94101171875,82L191.21901171875,82Q189.62301171875,82,188.82501171875,81.265Q188.02701171875,80.53,188.02701171875,78.85L188.02701171875,72.06700000000001L186.53601171875,72.06700000000001L186.53601171875,70.492L188.02701171875,70.492L188.02701171875,67.594L189.93801171875,67.594L189.93801171875,70.492L192.94101171875,70.492L192.94101171875,72.06700000000001L189.93801171875,72.06700000000001Z" fill="#E6E0E9" fill-opacity="1"/></g></g></g><g><rect x="204.0152587890625" y="52.00000000000182" width="34.17258834838867" height="46" rx="6" fill="#1D1B20" fill-opacity="1"/><g><g><path d="M237.6327587890625,70.49200000000182L230.7027587890625,87.41800000000183L228.7287587890625,87.41800000000183L230.9967587890625,81.87400000000181L226.3557587890625,70.49200000000182L228.4767587890625,70.49200000000182L232.0887587890625,79.81600000000182L235.6587587890625,70.49200000000182L237.6327587890625,70.49200000000182Z" fill="#E6E0E9" fill-opacity="1"/></g></g></g><g><rect x="244.21826171875" y="52.00000000000182" width="34.17258834838867" height="46" rx="6" fill="#1D1B20" fill-opacity="1"/><g><g><path d="M278.32126171875,70.49200000000182L278.32126171875,82.00000000000182L276.41026171875,82.00000000000182L276.41026171875,80.29900000000183Q275.86426171875,81.18100000000182,274.88776171874997,81.67450000000181Q273.91126171875,82.16800000000183,272.73526171875,82.16800000000183Q271.39126171875,82.16800000000183,270.32026171875,81.61150000000183Q269.24926171875,81.05500000000183,268.62976171875,79.94200000000183Q268.01026171875,78.82900000000183,268.01026171875,77.23300000000182L268.01026171875,70.49200000000182L269.90026171875,70.49200000000182L269.90026171875,76.98100000000181Q269.90026171875,78.68200000000182,270.76126171875,79.59550000000182Q271.62226171875,80.50900000000182,273.11326171875,80.50900000000182Q274.64626171875,80.50900000000182,275.52826171875,79.56400000000181Q276.41026171875,78.61900000000182,276.41026171875,76.81300000000182L276.41026171875,70.49200000000182L278.32126171875,70.49200000000182Z" fill="#E6E0E9" fill-opacity="1"/></g></g></g><g><rect x="284.42138671875" y="52.00000000000182" width="34.17258834838867" height="46" rx="6" fill="#1D1B20" fill-opacity="1"/><g><g><path d="M309.44238671875,68.62300000000182Q308.89638671875,68.62300000000182,308.51838671875,68.24500000000182Q308.14038671875,67.86700000000182,308.14038671875,67.32100000000182Q308.14038671875,66.77500000000182,308.51838671875,66.39700000000182Q308.89638671875,66.01900000000182,309.44238671875,66.01900000000182Q309.96738671875,66.01900000000182,310.33488671875,66.39700000000182Q310.70238671875,66.77500000000182,310.70238671875,67.32100000000182Q310.70238671875,67.86700000000182,310.33488671875,68.24500000000182Q309.96738671875,68.62300000000182,309.44238671875,68.62300000000182ZM310.36638671875,70.49200000000182L310.36638671875,82.00000000000182L308.45538671875,82.00000000000182L308.45538671875,70.49200000000182L310.36638671875,70.49200000000182Z" fill="#E6E0E9" fill-opacity="1"/></g></g></g><g><rect x="324.62451171875" y="52" width="34.17258834838867" height="46" rx="6" fill="#1D1B20" fill-opacity="1"/><g><g><path d="M353.54051171875,82.189Q351.92351171875,82.189,350.61101171875,81.45400000000001Q349.29851171875,80.719,348.55301171875,79.36449999999999Q347.80751171875,78.01,347.80751171875,76.225Q347.80751171875,74.461,348.57401171875,73.1065Q349.34051171875,71.752,350.66351171875,71.0275Q351.98651171875,70.303,353.62451171875,70.303Q355.26251171875,70.303,356.58551171875,71.0275Q357.90851171875,71.752,358.67501171875,73.096Q359.44151171875,74.44,359.44151171875,76.225Q359.44151171875,78.01,358.65401171875,79.36449999999999Q357.86651171875,80.719,356.52251171875,81.45400000000001Q355.17851171875,82.189,353.54051171875,82.189ZM353.54051171875,80.509Q354.56951171875,80.509,355.47251171875,80.026Q356.37551171875,79.543,356.93201171875,78.577Q357.48851171875,77.611,357.48851171875,76.225Q357.48851171875,74.839,356.94251171875,73.873Q356.39651171875,72.907,355.51451171875,72.4345Q354.63251171875,71.962,353.60351171875,71.962Q352.55351171875,71.962,351.68201171875,72.4345Q350.81051171875,72.907,350.28551171875,73.873Q349.76051171875,74.839,349.76051171875,76.225Q349.76051171875,77.632,350.27501171875,78.598Q350.78951171875,79.564,351.65051171875,80.0365Q352.51151171875,80.509,353.54051171875,80.509Z" fill="#E6E0E9" fill-opacity="1"/></g></g></g><g><rect x="364.82763671875" y="52" width="34.17258834838867" height="46" rx="6" fill="#1D1B20" fill-opacity="1"/><g><g><path d="M390.75763671875,72.613Q391.32463671875,71.626,392.44813671875,70.9645Q393.57163671875,70.303,395.06263671875,70.303Q396.59563671875003,70.303,397.84513671875,71.038Q399.09463671875,71.773,399.80863671875,73.1065Q400.52263671875,74.44,400.52263671875,76.20400000000001Q400.52263671875,77.947,399.80863671875,79.312Q399.09463671875,80.67699999999999,397.84513671875,81.43299999999999Q396.59563671875003,82.189,395.06263671875,82.189Q393.59263671875,82.189,392.46913671875,81.5275Q391.34563671875,80.866,390.75763671875,79.879L390.75763671875,87.46000000000001L388.84663671875,87.46000000000001L388.84663671875,70.492L390.75763671875,70.492L390.75763671875,72.613ZM398.56963671875,76.20400000000001Q398.56963671875,74.902,398.04463671875,73.936Q397.51963671875,72.97,396.62713671875,72.466Q395.73463671875,71.962,394.66363671875,71.962Q393.61363671875,71.962,392.72113671875,72.4765Q391.82863671875,72.991,391.29313671875,73.9675Q390.75763671875,74.944,390.75763671875,76.225Q390.75763671875,77.527,391.29313671875,78.5035Q391.82863671875,79.48,392.72113671875,79.9945Q393.61363671875,80.509,394.66363671875,80.509Q395.73463671875,80.509,396.62713671875,79.9945Q397.51963671875,79.48,398.04463671875,78.5035Q398.56963671875,77.527,398.56963671875,76.20400000000001Z" fill="#E6E0E9" fill-opacity="1"/></g></g></g></g><g><g><rect x="24.000106811523438" y="110" width="34" height="46" rx="6" fill="#1D1B20" fill-opacity="1"/><g><g><path d="M47.30510681152344,134.204Q47.30510681152344,132.44,48.019106811523436,131.1065Q48.733106811523434,129.773,49.98260681152344,129.038Q51.23210681152344,128.303,52.76510681152344,128.303Q54.27710681152344,128.303,55.39010681152344,128.954Q56.50310681152344,129.605,57.04910681152344,130.592L57.04910681152344,128.492L58.98110681152344,128.492L58.98110681152344,140L57.04910681152344,140L57.04910681152344,137.858Q56.48210681152344,138.86599999999999,55.35860681152344,139.5275Q54.23510681152344,140.189,52.74410681152344,140.189Q51.211106811523436,140.189,49.97210681152344,139.433Q48.733106811523434,138.677,48.019106811523436,137.312Q47.30510681152344,135.947,47.30510681152344,134.204ZM57.04910681152344,134.225Q57.04910681152344,132.923,56.52410681152344,131.957Q55.99910681152344,130.99099999999999,55.106606811523434,130.4765Q54.214106811523436,129.962,53.14310681152344,129.962Q52.07210681152344,129.962,51.190106811523435,130.466Q50.30810681152344,130.97,49.78310681152344,131.936Q49.25810681152344,132.902,49.25810681152344,134.204Q49.25810681152344,135.527,49.78310681152344,136.5035Q50.30810681152344,137.48,51.190106811523435,137.9945Q52.07210681152344,138.50900000000001,53.14310681152344,138.50900000000001Q54.214106811523436,138.50900000000001,55.106606811523434,137.9945Q55.99910681152344,137.48,56.52410681152344,136.5035Q57.04910681152344,135.527,57.04910681152344,134.225Z" fill="#E6E0E9" fill-opacity="1"/></g></g></g><g><rect x="64.00010681152344" y="110" width="34" height="46" rx="6" fill="#1D1B20" fill-opacity="1"/><g><g><path d="M91.67926681152343,140.189Q90.35298681152344,140.189,89.30035681152344,139.7375Q88.24805681152344,139.286,87.63741681152344,138.4775Q87.02710681152344,137.669,87.02710681152344,136.619L88.98010681152344,136.619Q89.06410681152343,137.48,89.78860681152344,138.026Q90.51310681152344,138.572,91.68910681152343,138.572Q92.78110681152344,138.572,93.41110681152344,138.089Q94.04110681152343,137.606,94.04110681152343,136.871Q94.04110681152343,136.115,93.36910681152344,135.7475Q92.69710681152344,135.38,91.29010681152344,135.023Q90.00910681152344,134.687,89.20060681152344,134.3405Q88.39210681152343,133.994,87.81460681152343,133.3115Q87.23710681152343,132.629,87.23710681152343,131.516Q87.23710681152343,130.63400000000001,87.76210681152344,129.899Q88.28710681152344,129.164,89.25310681152344,128.7335Q90.21910681152343,128.303,91.45810681152344,128.303Q93.36910681152344,128.303,94.54510681152344,129.269Q95.72110681152344,130.235,95.80510681152344,131.915L93.85210681152344,131.915Q93.85210681152344,131.012,93.18765681152344,130.466Q92.52319681152343,129.92,91.40527681152344,129.92Q90.37168681152343,129.92,89.75972681152344,130.361Q89.14810681152343,130.802,89.14810681152343,131.516Q89.14810681152343,132.083,89.51560681152344,132.4505Q89.88310681152343,132.818,90.43960681152343,133.0385Q90.99610681152343,133.25900000000001,91.98310681152344,133.532Q93.22210681152343,133.868,93.99910681152343,134.1935Q94.77610681152343,134.519,95.33260681152343,135.17Q95.88910681152343,135.821,95.88910681152343,136.871Q95.88910681152343,137.816,95.36279681152344,138.572Q94.83680681152345,139.328,93.87901681152344,139.7585Q92.92121681152344,140.189,91.67926681152343,140.189Z" fill="#E6E0E9" fill-opacity="1"/></g></g></g><g><rect x="104.00010681152344" y="110" width="34" height="46" rx="6" fill="#1D1B20" fill-opacity="1"/><g><g><path d="M127.30510681152344,134.204Q127.30510681152344,132.44,128.01910681152344,131.1065Q128.73310681152344,129.773,129.98260681152342,129.038Q131.23210681152344,128.303,132.78610681152344,128.303Q134.13010681152343,128.303,135.28510681152343,128.9225Q136.44010681152344,129.542,137.04910681152344,130.55L137.04910681152344,124.46L138.98110681152343,124.46L138.98110681152343,140L137.04910681152344,140L137.04910681152344,137.837Q136.48210681152344,138.86599999999999,135.36910681152344,139.5275Q134.25610681152344,140.189,132.76510681152342,140.189Q131.23210681152344,140.189,129.98260681152342,139.433Q128.73310681152344,138.677,128.01910681152344,137.312Q127.30510681152344,135.947,127.30510681152344,134.204ZM137.04910681152344,134.225Q137.04910681152344,132.923,136.52410681152344,131.957Q135.99910681152343,130.99099999999999,135.10660681152345,130.4765Q134.21410681152344,129.962,133.14310681152344,129.962Q132.07210681152344,129.962,131.19010681152344,130.466Q130.30810681152343,130.97,129.78310681152342,131.936Q129.25810681152345,132.902,129.25810681152345,134.204Q129.25810681152345,135.527,129.78310681152342,136.5035Q130.30810681152343,137.48,131.19010681152344,137.9945Q132.07210681152344,138.50900000000001,133.14310681152344,138.50900000000001Q134.21410681152344,138.50900000000001,135.10660681152345,137.9945Q135.99910681152343,137.48,136.52410681152344,136.5035Q137.04910681152344,135.527,137.04910681152344,134.225Z" fill="#E6E0E9" fill-opacity="1"/></g></g></g><g><rect x="144.00010681152344" y="110" width="34" height="46" rx="6" fill="#1D1B20" fill-opacity="1"/><g><g><path d="M172.34560681152342,130.067L169.93060681152343,130.067L169.93060681152343,140L168.01960681152343,140L168.01960681152343,130.067L166.52860681152345,130.067L166.52860681152345,128.492L168.01960681152343,128.492L168.01960681152343,127.673Q168.01960681152343,125.741,169.01710681152343,124.8485Q170.01460681152344,123.956,172.21960681152345,123.956L172.21960681152345,125.55199999999999Q170.95960681152343,125.55199999999999,170.44510681152343,126.0455Q169.93060681152343,126.539,169.93060681152343,127.673L169.93060681152343,128.492L172.34560681152342,128.492L172.34560681152342,130.067Z" fill="#E6E0E9" fill-opacity="1"/></g></g></g><g><rect x="184.00010681152344" y="110" width="34" height="46" rx="6" fill="#1D1B20" fill-opacity="1"/><g><g><path d="M212.76510681152342,128.303Q214.25610681152344,128.303,215.37960681152344,128.954Q216.50310681152342,129.605,217.04910681152344,130.592L217.04910681152344,128.492L218.98110681152343,128.492L218.98110681152343,140.252Q218.98110681152343,141.827,218.30910681152343,143.0555Q217.63710681152344,144.284,216.38760681152343,144.977Q215.13810681152344,145.67000000000002,213.47910681152345,145.67000000000002Q211.21110681152345,145.67000000000002,209.69910681152345,144.599Q208.18710681152345,143.528,207.91410681152342,141.68L209.80410681152344,141.68Q210.11910681152344,142.73,211.10610681152343,143.3705Q212.09310681152343,144.011,213.47910681152345,144.011Q215.05410681152344,144.011,216.05160681152344,143.024Q217.04910681152344,142.037,217.04910681152344,140.252L217.04910681152344,137.837Q216.48210681152344,138.845,215.36910681152344,139.517Q214.25610681152344,140.189,212.76510681152342,140.189Q211.23210681152344,140.189,209.98260681152342,139.433Q208.73310681152344,138.677,208.01910681152344,137.312Q207.30510681152344,135.947,207.30510681152344,134.204Q207.30510681152344,132.44,208.01910681152344,131.1065Q208.73310681152344,129.773,209.98260681152342,129.038Q211.23210681152344,128.303,212.76510681152342,128.303ZM217.04910681152344,134.225Q217.04910681152344,132.923,216.52410681152344,131.957Q215.99910681152343,130.99099999999999,215.10660681152345,130.4765Q214.21410681152344,129.962,213.14310681152344,129.962Q212.07210681152344,129.962,211.19010681152344,130.466Q210.30810681152343,130.97,209.78310681152342,131.936Q209.25810681152345,132.902,209.25810681152345,134.204Q209.25810681152345,135.527,209.78310681152342,136.5035Q210.30810681152343,137.48,211.19010681152344,137.9945Q212.07210681152344,138.50900000000001,213.14310681152344,138.50900000000001Q214.21410681152344,138.50900000000001,215.10660681152345,137.9945Q215.99910681152343,137.48,216.52410681152344,136.5035Q217.04910681152344,135.527,217.04910681152344,134.225Z" fill="#E6E0E9" fill-opacity="1"/></g></g></g><g><rect x="224.00010681152344" y="110" width="34" height="46" rx="6" fill="#1D1B20" fill-opacity="1"/><g><g><path d="M253.60910681152345,128.282Q254.91110681152344,128.282,255.96110681152345,128.8385Q257.01110681152346,129.395,257.60960681152346,130.508Q258.20810681152346,131.621,258.20810681152346,133.217L258.20810681152346,140L256.3181068115234,140L256.3181068115234,133.49Q256.3181068115234,131.768,255.45710681152343,130.8545Q254.59610681152344,129.941,253.10510681152343,129.941Q251.59310681152343,129.941,250.70060681152344,130.886Q249.80810681152343,131.831,249.80810681152343,133.637L249.80810681152343,140L247.89710681152343,140L247.89710681152343,124.46L249.80810681152343,124.46L249.80810681152343,130.13Q250.37510681152344,129.248,251.37260681152344,128.765Q252.37010681152344,128.282,253.60910681152345,128.282Z" fill="#E6E0E9" fill-opacity="1"/></g></g></g><g><rect x="264.00010681152344" y="110" width="34" height="46" rx="6" fill="#1D1B20" fill-opacity="1"/><g><g><path d="M289.0421068115234,126.623Q288.4961068115234,126.623,288.1286068115234,126.245Q287.76110681152346,125.867,287.76110681152346,125.321Q287.76110681152346,124.775,288.1286068115234,124.397Q288.4961068115234,124.019,289.0421068115234,124.019Q289.58810681152346,124.019,289.9556068115234,124.397Q290.3231068115234,124.775,290.3231068115234,125.321Q290.3231068115234,125.867,289.9556068115234,126.245Q289.58810681152346,126.623,289.0421068115234,126.623ZM289.98710681152346,142.499Q289.98710681152346,144.032,289.2101068115234,144.746Q288.43310681152343,145.46,286.94210681152344,145.46L285.82910681152345,145.46L285.82910681152345,143.843L286.62710681152345,143.843Q287.42510681152345,143.843,287.7506068115234,143.528Q288.07610681152346,143.213,288.07610681152346,142.457L288.07610681152346,128.492L289.98710681152346,128.492L289.98710681152346,142.499Z" fill="#E6E0E9" fill-opacity="1"/></g></g></g><g><rect x="304.00010681152344" y="110" width="34" height="46" rx="6" fill="#1D1B20" fill-opacity="1"/><g><g><path d="M334.1356068115234,140L329.62060681152343,134.918L329.62060681152343,140L327.70960681152343,140L327.70960681152343,124.46L329.62060681152343,124.46L329.62060681152343,133.595L334.0516068115234,128.492L336.71860681152344,128.492L331.30060681152344,134.225L336.73960681152346,140L334.1356068115234,140Z" fill="#E6E0E9" fill-opacity="1"/></g></g></g><g><rect x="344.00010681152344" y="110" width="34" height="46" rx="6" fill="#1D1B20" fill-opacity="1"/><g><g><path d="M369.94510681152343,124.46L369.94510681152343,140L368.03410681152343,140L368.03410681152343,124.46L369.94510681152343,124.46Z" fill="#E6E0E9" fill-opacity="1"/></g></g></g></g><g><g><rect x="3.0001068115234375" y="168" width="55" height="46" rx="6" fill="#36343B" fill-opacity="1"/><g><g><path d="M43.25005056152344,192.94038L44.78305056152344,192.94038Q46.178050561523435,192.94038,46.65995056152344,191.63119Q47.14185056152344,190.322,46.07965056152344,189.4176L37.000000561523436,181.68661L27.920360561523438,189.4176Q26.858190561523436,190.322,27.340044561523438,191.63119Q27.821901561523436,192.94038,29.216950561523436,192.94038L30.750000561523436,192.94038L30.750000561523436,198Q30.750000561523436,198.8285,31.33578056152344,199.4143Q31.92157056152344,200,32.750000561523436,200L41.25005056152344,200Q43.25005056152344,200,43.25005056152344,198L43.25005056152344,192.94038ZM37.000000561523436,184.31339L44.78305056152344,190.94038L41.25005056152344,190.94038L41.25005056152344,198L32.750000561523436,198L32.750000561523436,190.94038L29.216950561523436,190.94038L37.000000561523436,184.31339Z" fill-rule="evenodd" fill="#CAC4D0" fill-opacity="1"/></g></g></g><g><g><rect x="64.00010681152344" y="168" width="34" height="46" rx="6" fill="#1D1B20" fill-opacity="1"/><g><g><path d="M89.26760681152344,196.425L94.91660681152344,196.425L94.91660681152344,198L87.08360681152344,198L87.08360681152344,196.425L92.66960681152344,188.046L87.12560681152344,188.046L87.12560681152344,186.492L94.87460681152344,186.492L94.87460681152344,188.046L89.26760681152344,196.425Z" fill="#E6E0E9" fill-opacity="1"/></g></g></g><g><rect x="104.00010681152344" y="168" width="34" height="46" rx="6" fill="#1D1B20" fill-opacity="1"/><g><g><path d="M134.09360681152344,198L131.36360681152343,193.716L128.73860681152343,198L126.74360681152343,198L130.46060681152343,192.288L126.74360681152343,186.492L128.90660681152343,186.492L131.63660681152345,190.755L134.24060681152343,186.492L136.23560681152344,186.492L132.53960681152344,192.183L136.25660681152343,198L134.09360681152344,198Z" fill="#E6E0E9" fill-opacity="1"/></g></g></g><g><rect x="144.00010681152344" y="168" width="34" height="46" rx="6" fill="#1D1B20" fill-opacity="1"/><g><g><path d="M167.02960681152345,192.225Q167.02960681152345,190.44,167.74360681152345,189.1065Q168.45760681152345,187.773,169.72810681152345,187.038Q170.99860681152344,186.303,172.63660681152345,186.303Q174.75760681152343,186.303,176.13310681152345,187.332Q177.50860681152344,188.361,177.94960681152344,190.188L175.89160681152345,190.188Q175.59760681152343,189.138,174.74710681152345,188.529Q173.89660681152344,187.92,172.63660681152345,187.92Q170.99860681152344,187.92,169.99060681152343,189.0435Q168.98260681152342,190.167,168.98260681152342,192.225Q168.98260681152342,194.304,169.99060681152343,195.438Q170.99860681152344,196.572,172.63660681152345,196.572Q173.89660681152344,196.572,174.73660681152344,195.984Q175.57660681152345,195.39600000000002,175.89160681152345,194.304L177.94960681152344,194.304Q177.48760681152345,196.068,176.10160681152342,197.1285Q174.71560681152343,198.189,172.63660681152345,198.189Q170.99860681152344,198.189,169.72810681152345,197.454Q168.45760681152345,196.719,167.74360681152345,195.375Q167.02960681152345,194.031,167.02960681152345,192.225Z" fill="#E6E0E9" fill-opacity="1"/></g></g></g><g><rect x="184.00010681152344" y="168" width="34" height="46" rx="6" fill="#1D1B20" fill-opacity="1"/><g><g><path d="M212.01060681152345,196.236L215.58060681152344,186.492L217.61760681152344,186.492L213.10260681152343,198L210.87660681152343,198L206.36160681152344,186.492L208.41960681152344,186.492L212.01060681152345,196.236Z" fill="#E6E0E9" fill-opacity="1"/></g></g></g><g><rect x="224.00010681152344" y="168" width="34" height="46" rx="6" fill="#1D1B20" fill-opacity="1"/><g><g><path d="M249.93010681152344,188.63400000000001Q250.51810681152344,187.605,251.65210681152342,186.954Q252.78610681152344,186.303,254.23510681152345,186.303Q255.78910681152342,186.303,257.02810681152346,187.038Q258.26710681152343,187.773,258.98110681152343,189.1065Q259.69510681152343,190.44,259.69510681152343,192.204Q259.69510681152343,193.947,258.98110681152343,195.312Q258.26710681152343,196.677,257.0176068115234,197.433Q255.76810681152344,198.189,254.23510681152345,198.189Q252.74410681152344,198.189,251.62060681152343,197.538Q250.49710681152345,196.887,249.93010681152344,195.879L249.93010681152344,198L248.01910681152344,198L248.01910681152344,182.46L249.93010681152344,182.46L249.93010681152344,188.63400000000001ZM257.74210681152346,192.204Q257.74210681152346,190.902,257.2171068115234,189.936Q256.69210681152344,188.97,255.79960681152343,188.466Q254.90710681152345,187.962,253.83610681152345,187.962Q252.78610681152344,187.962,251.89360681152343,188.4765Q251.00110681152344,188.99099999999999,250.46560681152343,189.9675Q249.93010681152344,190.944,249.93010681152344,192.225Q249.93010681152344,193.527,250.46560681152343,194.5035Q251.00110681152344,195.48,251.89360681152343,195.9945Q252.78610681152344,196.50900000000001,253.83610681152345,196.50900000000001Q254.90710681152345,196.50900000000001,255.79960681152343,195.9945Q256.69210681152344,195.48,257.2171068115234,194.5035Q257.74210681152346,193.527,257.74210681152346,192.204Z" fill="#E6E0E9" fill-opacity="1"/></g></g></g><g><rect x="264.00010681152344" y="168" width="34" height="46" rx="6" fill="#1D1B20" fill-opacity="1"/><g><g><path d="M293.50410681152346,186.282Q295.6041068115234,186.282,296.90610681152344,187.5525Q298.20810681152346,188.823,298.20810681152346,191.217L298.20810681152346,198L296.3181068115234,198L296.3181068115234,191.49Q296.3181068115234,189.768,295.45710681152343,188.8545Q294.59610681152344,187.941,293.10510681152346,187.941Q291.59310681152346,187.941,290.7006068115234,188.886Q289.80810681152343,189.831,289.80810681152343,191.637L289.80810681152343,198L287.89710681152343,198L287.89710681152343,186.492L289.80810681152343,186.492L289.80810681152343,188.13Q290.37510681152344,187.248,291.3516068115234,186.765Q292.3281068115234,186.282,293.50410681152346,186.282Z" fill="#E6E0E9" fill-opacity="1"/></g></g></g><g><rect x="304.00010681152344" y="168" width="34" height="46" rx="6" fill="#1D1B20" fill-opacity="1"/><g><g><path d="M341.64110681152346,186.282Q342.98510681152345,186.282,344.03510681152346,186.8385Q345.0851068115234,187.395,345.69410681152345,188.508Q346.30310681152343,189.621,346.30310681152343,191.217L346.30310681152343,198L344.41310681152345,198L344.41310681152345,191.49Q344.41310681152345,189.768,343.56260681152344,188.8545Q342.7121068115234,187.941,341.2631068115234,187.941Q339.77210681152343,187.941,338.8901068115234,188.8965Q338.0081068115234,189.852,338.0081068115234,191.658L338.0081068115234,198L336.11810681152343,198L336.11810681152343,191.49Q336.11810681152343,189.768,335.2676068115234,188.8545Q334.4171068115234,187.941,332.96810681152346,187.941Q331.4771068115234,187.941,330.59510681152346,188.8965Q329.71310681152346,189.852,329.71310681152346,191.658L329.71310681152346,198L327.80210681152346,198L327.80210681152346,186.492L329.71310681152346,186.492L329.71310681152346,188.151Q330.2801068115234,187.248,331.23560681152344,186.765Q332.1911068115234,186.282,333.34610681152344,186.282Q334.79510681152345,186.282,335.90810681152345,186.933Q337.02110681152345,187.584,337.56710681152344,188.844Q338.05010681152345,187.626,339.16310681152345,186.954Q340.27610681152345,186.282,341.64110681152346,186.282Z" fill="#E6E0E9" fill-opacity="1"/></g></g></g></g><g><rect x="344.00010681152344" y="168" width="55" height="46" rx="6" fill="#36343B" fill-opacity="1"/><g><g><path d="M387.18910681152346,182L373.54754681152343,182C372.59932681152344,182,371.7906168115234,182.457304,371.2686868115234,183.21329L366.00010681152344,190.99553L371.26381681152344,198.7706C371.7921468115234,199.536,372.59963681152345,200,373.54754681152343,200L387.18910681152346,200C388.74870681152345,200,390.00010681152344,198.7688,390.00010681152344,197.2632L390.00010681152344,184.73684C390.00010681152344,183.23117,388.74870681152345,182,387.18910681152346,182ZM387.19020681152347,183.89453C387.64040681152346,183.89453,388.0169068115234,184.26494,388.0169068115234,184.73663L388.0169068115234,197.2629C388.0169068115234,197.7346,387.64040681152346,198.105,387.19020681152347,198.105L373.54861681152346,198.105C373.3063568115234,198.105,373.10035681152345,197.9866,372.92636681152345,197.7346L368.3639268115234,190.99531L372.93123681152343,184.24885C373.09646681152344,184.0096,373.29995681152343,183.89453,373.54861681152346,183.89453L387.19020681152347,183.89453ZM368.3639268115234,190.99531L368.01572681152345,191.50963L368.01572681152345,190.48098L368.3639268115234,190.99531ZM383.23450681152343,195.2639L384.5466068115234,194.0128L381.22220681152345,190.84291L384.5466068115234,187.67303L383.23450681152343,186.42188L379.91010681152346,189.59176L376.58570681152344,186.42188L375.27354681152343,187.67303L378.59790681152344,190.84291L375.27354681152343,194.0128L376.58570681152344,195.2639L379.91010681152346,192.0941L383.23450681152343,195.2639Z" fill-rule="evenodd" fill="#CAC4D0" fill-opacity="1"/></g></g></g></g><g><g><rect x="3.0001068115234375" y="226" width="55" height="46" rx="23" fill="#4A4458" fill-opacity="1"/><g><path d="M28.668106811523437,244.13Q30.096106811523438,244.13,30.95710681152344,244.914Q31.818106811523435,245.698,31.818106811523435,247.056Q31.818106811523435,248.47,30.922106811523438,249.184Q30.026106811523437,249.898,28.54210681152344,249.898L28.486106811523438,251.004L27.10010681152344,251.004L27.03010681152344,248.806L27.49210681152344,248.806Q28.85010681152344,248.806,29.571106811523435,248.442Q30.29210681152344,248.078,30.29210681152344,247.056Q30.29210681152344,246.314,29.86510681152344,245.894Q29.438106811523436,245.474,28.682106811523436,245.474Q27.92610681152344,245.474,27.49210681152344,245.88Q27.058106811523437,246.286,27.058106811523437,247.014L25.560106811523436,247.014Q25.560106811523436,246.174,25.938106811523436,245.516Q26.316106811523436,244.858,27.023106811523437,244.494Q27.730106811523438,244.13,28.668106811523437,244.13ZM27.772106811523436,254.098Q27.33810681152344,254.098,27.044106811523438,253.804Q26.750106811523438,253.51,26.750106811523438,253.076Q26.750106811523438,252.642,27.044106811523438,252.348Q27.33810681152344,252.054,27.772106811523436,252.054Q28.192106811523438,252.054,28.486106811523438,252.348Q28.78010681152344,252.642,28.78010681152344,253.076Q28.78010681152344,253.51,28.486106811523438,253.804Q28.192106811523438,254.098,27.772106811523436,254.098ZM33.16210681152344,245.25L33.16210681152344,243.794L36.074106811523436,243.794L36.074106811523436,254L34.464106811523436,254L34.464106811523436,245.25L33.16210681152344,245.25ZM39.154106811523434,251.83Q40.498106811523435,250.668,41.275106811523436,249.919Q42.05210681152344,249.17,42.57010681152344,248.358Q43.08810681152344,247.546,43.08810681152344,246.734Q43.08810681152344,245.894,42.68740681152344,245.418Q42.286806811523434,244.942,41.42930681152344,244.942Q40.599806811523436,244.942,40.142806811523435,245.467Q39.68610681152344,245.992,39.68610681152344,246.874L38.14610681152344,246.874Q38.14610681152344,245.278,39.06700681152344,244.431Q39.988006811523434,243.584,41.40810681152344,243.584Q42.94070681152344,243.584,43.80540681152344,244.424Q44.67010681152344,245.264,44.67010681152344,246.664Q44.67010681152344,247.672,44.159106811523436,248.603Q43.648106811523434,249.534,42.94110681152344,250.269Q42.23410681152344,251.004,41.14210681152343,251.97L40.51210681152344,252.53L44.95010681152344,252.53L44.95010681152344,253.86L38.14610681152344,253.86L38.14610681152344,252.698L39.154106811523434,251.83ZM46.32210681152344,246.314Q46.406106811523436,245.012,47.32310681152344,244.284Q48.24010681152343,243.556,49.66810681152344,243.556Q50.648106811523434,243.556,51.36210681152343,243.906Q52.07610681152344,244.256,52.440106811523435,244.858Q52.80410681152344,245.46,52.80410681152344,246.216Q52.80410681152344,247.084,52.342106811523436,247.7Q51.88010681152343,248.316,51.23610681152344,248.526L51.23610681152344,248.582Q52.062106811523435,248.834,52.52410681152344,249.499Q52.98610681152344,250.164,52.98610681152344,251.2Q52.98610681152344,252.026,52.60810681152344,252.67Q52.23010681152344,253.314,51.48810681152344,253.685Q50.74610681152343,254.056,49.71010681152344,254.056Q48.19810681152344,254.056,47.22510681152344,253.279Q46.25210681152343,252.502,46.18210681152344,251.046L47.72210681152344,251.046Q47.778106811523436,251.788,48.29610681152344,252.257Q48.81410681152344,252.726,49.696106811523435,252.726Q50.550106811523435,252.726,51.01210681152344,252.257Q51.47410681152344,251.788,51.47410681152344,251.046Q51.47410681152344,250.066,50.85110681152344,249.653Q50.22810681152344,249.24,48.940106811523435,249.24L48.57610681152344,249.24L48.57610681152344,247.924L48.95410681152344,247.924Q50.08810681152344,247.924,50.68310681152344,247.55825Q51.278106811523436,247.1925,51.278106811523436,246.405Q51.278106811523436,245.72972,50.84410681152344,245.32897Q50.410106811523434,244.928,49.61210681152343,244.928Q48.82810681152344,244.928,48.394106811523436,245.327Q47.96010681152344,245.726,47.87610681152344,246.314L46.32210681152344,246.314Z" fill="#E8DEF8" fill-opacity="1"/></g></g><g><rect x="64.00010681152344" y="226" width="34" height="46" rx="6" fill="#36343B" fill-opacity="1"/><g><path d="M82.51210681152344,257.354L80.16010681152343,263.003L78.87910681152344,263.003L80.41210681152344,257.354L82.51210681152344,257.354Z" fill="#CAC4D0" fill-opacity="1"/></g><g><g><path d="M75.00010681152344,242C75.00010681152344,245.3084,77.69170681152343,248,81.00010681152344,248C84.30850681152344,248,87.00010681152344,245.3084,87.00010681152344,242C87.00010681152344,238.6916,84.30850681152344,236,81.00010681152344,236C77.69170681152343,236,75.00010681152344,238.6916,75.00010681152344,242ZM76.20030681152343,242.00019C76.20030681152343,239.35359,78.35371681152344,237.2002,81.00032681152344,237.2002C83.64693681152343,237.2002,85.80030681152344,239.35359,85.80030681152344,242.00019C85.80030681152344,244.64679,83.64693681152343,246.8002,81.00032681152344,246.8002C78.35371681152344,246.8002,76.20030681152343,244.64679,76.20030681152343,242.00019Z" fill-rule="evenodd" fill="#CAC4D0" fill-opacity="1"/></g><g><path d="M78.89098643261718,242.0006153125Q78.9796494326172,242.0006153125,79.06660843261719,241.9833153125Q79.15356843261719,241.9660153125,79.23548843261719,241.9320853125Q79.31739843261718,241.8981553125,79.39111843261719,241.8488953125Q79.46483843261719,241.7996453125,79.52753843261719,241.7369453125Q79.59022843261718,241.6742553125,79.63948843261718,241.6005353125Q79.68874843261719,241.5268153125,79.72267843261719,241.4448953125Q79.75660843261718,241.3629853125,79.77390843261719,241.2760253125Q79.79120843261718,241.1890663125,79.79120843261718,241.1004033125Q79.79120843261718,241.0117413125,79.77390843261719,240.9247813125Q79.75660843261718,240.8378223125,79.72267843261719,240.7559093125Q79.68874843261719,240.6739953125,79.63948843261718,240.6002743125Q79.59022843261718,240.5265543125,79.52753843261719,240.4638603125Q79.46483843261719,240.4011663125,79.39111843261719,240.3519073125Q79.31739843261718,240.3026493125,79.23548843261719,240.2687196125Q79.15356843261719,240.2347898125,79.06660843261719,240.2174926125Q78.9796494326172,240.2001953125,78.89098643261718,240.2001953125Q78.80232243261719,240.2001953125,78.71536243261718,240.2174926125Q78.6284024326172,240.2347898125,78.54648743261718,240.2687196125Q78.46457343261719,240.3026493125,78.39085143261718,240.3519073125Q78.31713043261719,240.4011663125,78.25443643261718,240.4638603125Q78.19174143261719,240.5265543125,78.14248243261719,240.6002743125Q78.0932234326172,240.6739953125,78.05929343261718,240.7559093125Q78.02536323261718,240.8378223125,78.00806583261719,240.9247813125Q77.99076843261719,241.0117413125,77.99076843261719,241.1004033125Q77.99076843261719,241.1890663125,78.00806583261719,241.2760253125Q78.02536323261718,241.3629853125,78.05929343261718,241.4448953125Q78.0932234326172,241.5268153125,78.14248243261719,241.6005353125Q78.19174143261719,241.6742553125,78.25443643261718,241.7369453125Q78.31713043261719,241.7996453125,78.39085143261718,241.8488953125Q78.46457343261719,241.8981553125,78.54648743261718,241.9320853125Q78.6284024326172,241.9660153125,78.71536243261718,241.9833153125Q78.80232243261719,242.0006153125,78.89098643261718,242.0006153125ZM83.09116843261718,242.0006353125Q83.17983843261719,242.0006353125,83.2667984326172,241.9833353125Q83.35374843261718,241.9660353125,83.43566843261719,241.9321053125Q83.51757843261719,241.8981753125,83.5912984326172,241.8489153125Q83.66501843261719,241.7996553125,83.7277184326172,241.7369653125Q83.79040843261718,241.6742653125,83.83966843261719,241.6005453125Q83.88892843261719,241.5268253125,83.92285843261719,241.4449153125Q83.95678843261719,241.3629953125,83.97407843261719,241.2760353125Q83.99137843261718,241.1890763125,83.99137843261718,241.1004133125Q83.99137843261718,241.0117493125,83.97407843261719,240.9247893125Q83.95678843261719,240.8378293125,83.92285843261719,240.7559143125Q83.88892843261719,240.6740003125,83.83966843261719,240.6002783125Q83.79040843261718,240.5265573125,83.7277184326172,240.4638633125Q83.66501843261719,240.4011683125,83.5912984326172,240.3519093125Q83.51757843261719,240.3026503125,83.43566843261719,240.2687203125Q83.35374843261718,240.2347901125,83.2667984326172,240.2174927125Q83.17983843261719,240.2001953125,83.09116843261718,240.2001953125Q83.00250843261719,240.2001953125,82.91554843261719,240.2174927125Q82.82858843261718,240.2347901125,82.74667843261719,240.2687203125Q82.6647684326172,240.3026503125,82.59103843261718,240.3519093125Q82.51731843261719,240.4011683125,82.45462843261718,240.4638633125Q82.39193843261718,240.5265573125,82.34267843261719,240.6002783125Q82.29341843261719,240.6740003125,82.25948843261719,240.7559143125Q82.22555843261719,240.8378293125,82.20825843261719,240.9247893125Q82.19096843261718,241.0117493125,82.19096843261718,241.1004133125Q82.19096843261718,241.1890763125,82.20825843261719,241.2760353125Q82.22555843261719,241.3629953125,82.25948843261719,241.4449153125Q82.29341843261719,241.5268253125,82.34267843261719,241.6005453125Q82.39193843261718,241.6742653125,82.45462843261718,241.7369653125Q82.51731843261719,241.7996553125,82.59103843261718,241.8489153125Q82.6647684326172,241.8981753125,82.74667843261719,241.9321053125Q82.82858843261718,241.9660353125,82.91554843261719,241.9833353125Q83.00250843261719,242.0006353125,83.09116843261718,242.0006353125ZM78.49744443261719,244.2743153125C79.1289484326172,244.9883153125,80.03764843261719,245.3975153125,80.99074843261718,245.3975153125C81.94385843261719,245.3975153125,82.85255843261719,244.9883153125,83.48405843261719,244.2743153125C83.67605843261718,244.0571153125,83.65565843261719,243.7256253125,83.43875843261719,243.5333253125C83.22185843261718,243.3413253125,82.88975843261719,243.3608253125,82.69745843261718,243.5789253125C82.26545843261718,244.0670153125,81.64324843261718,244.3475153125,80.99074843261718,244.3475153125C80.33824843261719,244.3475153125,79.71604843261719,244.0670153125,79.28404843261718,243.5789253125C79.0917484326172,243.3614253125,78.75994543261719,243.3413253125,78.54274543261718,243.5333253125C78.32584443261719,243.7256253125,78.3054444326172,244.0571153125,78.49744443261719,244.2743153125Z" fill-rule="evenodd" fill="#CAC4D0" fill-opacity="1"/></g></g></g><g><rect x="104.00010681152344" y="226" width="34" height="46" rx="6" fill="#1D1B20" fill-opacity="1"/><g><g><path d="M128.00010681152344,249C128.00010681152344,243.48,132.47010681152344,239,137.99010681152345,239C143.52010681152345,239,148.00010681152344,243.48,148.00010681152344,249C148.00010681152344,254.52,143.52010681152345,259,137.99010681152345,259C132.47010681152344,259,128.00010681152344,254.52,128.00010681152344,249ZM141.97010681152344,245C141.97010681152344,245,144.92010681152345,245,144.92010681152345,245C143.96010681152345,243.35,142.43010681152344,242.07,140.59010681152344,241.44C141.19010681152344,242.55,141.65010681152344,243.75,141.97010681152344,245ZM138.00010681152344,241.04C138.83010681152345,242.24,139.48010681152343,243.57,139.91010681152343,245C139.91010681152343,245,136.09010681152344,245,136.09010681152344,245C136.52010681152345,243.57,137.17010681152342,242.24,138.00010681152344,241.04ZM130.00010681152344,249C130.00010681152344,249.69,130.10010681152343,250.36,130.26010681152343,251C130.26010681152343,251,133.64010681152342,251,133.64010681152342,251C133.56010681152344,250.34,133.50010681152344,249.68,133.50010681152344,249C133.50010681152344,248.32,133.56010681152344,247.66,133.64010681152342,247C133.64010681152342,247,130.26010681152343,247,130.26010681152343,247C130.10010681152343,247.64,130.00010681152344,248.31,130.00010681152344,249ZM131.08010681152345,253C131.08010681152345,253,134.03010681152344,253,134.03010681152344,253C134.35010681152343,254.25,134.81010681152344,255.45,135.41010681152343,256.56C133.57010681152343,255.93,132.04010681152343,254.66,131.08010681152345,253ZM131.08010681152345,245C131.08010681152345,245,134.03010681152344,245,134.03010681152344,245C134.35010681152343,243.75,134.81010681152344,242.55,135.41010681152343,241.44C133.57010681152343,242.07,132.04010681152343,243.34,131.08010681152345,245ZM138.00010681152344,256.96C137.17010681152342,255.76,136.52010681152345,254.43,136.09010681152344,253C136.09010681152344,253,139.91010681152343,253,139.91010681152343,253C139.48010681152343,254.43,138.83010681152345,255.76,138.00010681152344,256.96ZM135.50010681152344,249C135.50010681152344,249.68,135.57010681152343,250.34,135.66010681152343,251C135.66010681152343,251,140.34010681152344,251,140.34010681152344,251C140.43010681152344,250.34,140.50010681152344,249.68,140.50010681152344,249C140.50010681152344,248.32,140.43010681152344,247.65,140.34010681152344,247C140.34010681152344,247,135.66010681152343,247,135.66010681152343,247C135.57010681152343,247.65,135.50010681152344,248.32,135.50010681152344,249ZM140.59010681152344,256.56C141.19010681152344,255.45,141.65010681152344,254.25,141.97010681152344,253C141.97010681152344,253,144.92010681152345,253,144.92010681152345,253C143.96010681152345,254.65,142.43010681152344,255.93,140.59010681152344,256.56ZM142.50010681152344,249C142.50010681152344,249.68,142.44010681152344,250.34,142.36010681152345,251C142.36010681152345,251,145.74010681152345,251,145.74010681152345,251C145.90010681152344,250.36,146.00010681152344,249.69,146.00010681152344,249C146.00010681152344,248.31,145.90010681152344,247.64,145.74010681152345,247C145.74010681152345,247,142.36010681152345,247,142.36010681152345,247C142.44010681152344,247.66,142.50010681152344,248.32,142.50010681152344,249Z" fill-rule="evenodd" fill="#E6E0E9" fill-opacity="1"/></g></g></g><g><path d="M149.97511681152343,226C174.52310681152343,226,267.4771068115234,226,292.0251068115234,226C295.33910681152344,226,298.00010681152344,228.66074,298.00010681152344,231.97445C298.00010681152344,240.7946,298.00010681152344,257.20550000000003,298.00010681152344,266.0255C298.00010681152344,269.3393,295.3611068115234,272,292.04710681152346,272C277.9911068115234,272,243.91660681152342,272,243.91660681152342,272C243.91660681152342,272,171.47190681152344,272,149.95584681152343,272C146.64214681152345,272,144.00010681152344,269.3393,144.00010681152344,266.0256C144.00010681152344,257.20550000000003,144.00010681152344,240.7946,144.00010681152344,231.97445C144.00010681152344,228.66074,146.66140681152345,226,149.97511681152343,226" fill-rule="evenodd" fill="#1D1B20" fill-opacity="1"/></g><g><rect x="304.00010681152344" y="226" width="34" height="46" rx="6" fill="#36343B" fill-opacity="1"/><g><path d="M321.02110681152345,246.126Q320.47510681152346,246.126,320.0971068115234,245.748Q319.71910681152343,245.37,319.71910681152343,244.824Q319.71910681152343,244.278,320.0971068115234,243.9Q320.47510681152346,243.522,321.02110681152345,243.522Q321.54610681152343,243.522,321.91360681152344,243.9Q322.28110681152344,244.278,322.28110681152344,244.824Q322.28110681152344,245.37,321.91360681152344,245.748Q321.54610681152343,246.126,321.02110681152345,246.126Z" fill="#CAC4D0" fill-opacity="1"/></g></g><g><rect x="344.00010681152344" y="226" width="55" height="46" rx="23" fill="#6750A4" fill-opacity="1"/><g><g><path d="M385.00010681152344,244C385.00010681152344,244,385.00010681152344,248,385.00010681152344,248C385.00010681152344,248,372.8301068115234,248,372.8301068115234,248C372.8301068115234,248,376.41010681152346,244.41,376.41010681152346,244.41C376.41010681152346,244.41,375.00010681152344,243,375.00010681152344,243C375.00010681152344,243,369.00010681152344,249,369.00010681152344,249C369.00010681152344,249,375.00010681152344,255,375.00010681152344,255C375.00010681152344,255,376.41010681152346,253.59,376.41010681152346,253.59C376.41010681152346,253.59,372.8301068115234,250,372.8301068115234,250C372.8301068115234,250,387.00010681152344,250,387.00010681152344,250C387.00010681152344,250,387.00010681152344,244,387.00010681152344,244C387.00010681152344,244,385.00010681152344,244,385.00010681152344,244Z" fill="#EADDFF" fill-opacity="1"/></g></g></g></g></g><g><g><rect x="3" y="9" width="26" height="26" rx="13" fill="#4F378B" fill-opacity="1"/><g transform="matrix(-1,-1.1756609520119815e-16,1.275673837863441e-16,-1,56,68)" clip-path="url(#master_svg0_135_18871/135_18138)"><g><path d="M37.70500007629394,40C37.70500007629394,40,36.295000076293945,41.41,36.295000076293945,41.41C36.295000076293945,41.41,40.875000076293944,46,40.875000076293944,46C40.875000076293944,46,36.295000076293945,50.59,36.295000076293945,50.59C36.295000076293945,50.59,37.70500007629394,52,37.70500007629394,52C37.70500007629394,52,43.70500007629394,46,43.70500007629394,46C43.70500007629394,46,37.70500007629394,40,37.70500007629394,40Z" fill="#EADDFF" fill-opacity="1"/></g></g></g><g><g><g><g><path d="M64.1429,17C64.1429,17,66.7143,17,66.7143,17C66.7143,17,66.7143,27.2857,66.7143,27.2857C66.7143,27.2857,64.1429,27.2857,64.1429,27.2857C64.1429,27.2857,64.1429,17,64.1429,17ZM59.85714,17C59.85714,17,54.71429,17,54.71429,17C53.685714,17,53,17.857143,53,18.71429C53,18.71429,53,25.57143,53,25.57143C53,26.42857,53.685714,27.2857,54.71429,27.2857C54.71429,27.2857,59.85714,27.2857,59.85714,27.2857C60.88571,27.2857,61.57143,26.42857,61.57143,25.57143C61.57143,25.57143,61.57143,22.14286,61.57143,22.14286C61.57143,22.14286,59,22.14286,59,22.14286C59,22.14286,59,24.71429,59,24.71429C59,24.71429,55.57143,24.71429,55.57143,24.71429C55.57143,24.71429,55.57143,19.57143,55.57143,19.57143C55.57143,19.57143,61.57143,19.57143,61.57143,19.57143C61.57143,19.57143,61.57143,18.71429,61.57143,18.71429C61.57143,17.857143,60.88571,17,59.85714,17ZM77,19.57143C77,19.57143,77,17,77,17C77,17,69.28569999999999,17,69.28569999999999,17C69.28569999999999,17,69.28569999999999,27.2857,69.28569999999999,27.2857C69.28569999999999,27.2857,71.8571,27.2857,71.8571,27.2857C71.8571,27.2857,71.8571,23.85714,71.8571,23.85714C71.8571,23.85714,75.28569999999999,23.85714,75.28569999999999,23.85714C75.28569999999999,23.85714,75.28569999999999,21.28571,75.28569999999999,21.28571C75.28569999999999,21.28571,71.8571,21.28571,71.8571,21.28571C71.8571,21.28571,71.8571,19.57143,71.8571,19.57143C71.8571,19.57143,77,19.57143,77,19.57143Z" fill="#E6E0E9" fill-opacity="1"/></g></g><g clip-path="url(#master_svg1_135_18871/135_18134)"><g><path d="M136.4298078125,22.98C136.4698078125,22.66,136.4998078125,22.34,136.4998078125,22C136.4998078125,21.66,136.4698078125,21.34,136.4298078125,21.02C136.4298078125,21.02,138.5398078125,19.37,138.5398078125,19.37C138.72980781249998,19.22,138.7798078125,18.95,138.6598078125,18.73C138.6598078125,18.73,136.6598078125,15.27,136.6598078125,15.27C136.5398078125,15.05,136.2698078125,14.97,136.0498078125,15.05C136.0498078125,15.05,133.5598078125,16.05,133.5598078125,16.05C133.0398078125,15.65,132.4798078125,15.32,131.8698078125,15.07C131.8698078125,15.07,131.4898078125,12.42,131.4898078125,12.42C131.4598078125,12.18,131.2498078125,12,130.9998078125,12C130.9998078125,12,126.9998378125,12,126.9998378125,12C126.7498378125,12,126.5398378125,12.18,126.5098378125,12.42C126.5098378125,12.42,126.1298378125,15.07,126.1298378125,15.07C125.5198378125,15.32,124.9598378125,15.66,124.4398378125,16.05C124.4398378125,16.05,121.9498378125,15.05,121.9498378125,15.05C121.7198378125,14.96,121.4598378125,15.05,121.3398378125,15.27C121.3398378125,15.27,119.3398394125,18.73,119.3398394125,18.73C119.2098394125,18.95,119.2698395105,19.22,119.4598398125,19.37C119.4598398125,19.37,121.5698378125,21.02,121.5698378125,21.02C121.5298378125,21.34,121.4998378125,21.67,121.4998378125,22C121.4998378125,22.33,121.5298378125,22.66,121.5698378125,22.98C121.5698378125,22.98,119.4598398125,24.630000000000003,119.4598398125,24.630000000000003C119.2698395105,24.78,119.2198394125,25.05,119.3398394125,25.27C119.3398394125,25.27,121.3398378125,28.73,121.3398378125,28.73C121.4598378125,28.95,121.7298378125,29.03,121.9498378125,28.95C121.9498378125,28.95,124.4398378125,27.95,124.4398378125,27.95C124.9598378125,28.35,125.5198378125,28.68,126.1298378125,28.93C126.1298378125,28.93,126.5098378125,31.58,126.5098378125,31.58C126.5398378125,31.82,126.7498378125,32,126.9998378125,32C126.9998378125,32,130.9998078125,32,130.9998078125,32C131.2498078125,32,131.4598078125,31.82,131.4898078125,31.58C131.4898078125,31.58,131.8698078125,28.93,131.8698078125,28.93C132.4798078125,28.68,133.0398078125,28.34,133.5598078125,27.95C133.5598078125,27.95,136.0498078125,28.95,136.0498078125,28.95C136.2798078125,29.04,136.5398078125,28.95,136.6598078125,28.73C136.6598078125,28.73,138.6598078125,25.27,138.6598078125,25.27C138.7798078125,25.05,138.72980781249998,24.78,138.5398078125,24.630000000000003C138.5398078125,24.630000000000003,136.4298078125,22.98,136.4298078125,22.98ZM128.9998378125,25.5C127.0698378125,25.5,125.4998378125,23.93,125.4998378125,22C125.4998378125,20.07,127.0698378125,18.5,128.9998378125,18.5C130.9298078125,18.5,132.4998078125,20.07,132.4998078125,22C132.4998078125,23.93,130.9298078125,25.5,128.9998378125,25.5Z" fill="#E6E0E9" fill-opacity="1"/></g></g><g clip-path="url(#master_svg2_135_18871/135_18136)"><g><path d="M200.6,15.35C200.6,15.35,191.936,15.35,191.936,15.35C191.936,15.35,191.1,12.5,191.1,12.5C191.1,12.5,185.4,12.5,185.4,12.5C184.355,12.5,183.5,13.355,183.5,14.4C183.5,14.4,183.5,26.75,183.5,26.75C183.5,27.795,184.355,28.65,185.4,28.65C185.4,28.65,192.05,28.65,192.05,28.65C192.05,28.65,193,31.5,193,31.5C193,31.5,200.6,31.5,200.6,31.5C201.645,31.5,202.5,30.645,202.5,29.6C202.5,29.6,202.5,17.25,202.5,17.25C202.5,16.205,201.645,15.35,200.6,15.35ZM188.4115,24.4605C186.274,24.4605,184.526,22.722,184.526,20.575C184.526,18.428,186.2645,16.6895,188.4115,16.6895C189.3995,16.6895,190.302,17.041,191.0145,17.706C191.0145,17.706,191.081,17.762999999999998,191.081,17.762999999999998C191.081,17.762999999999998,189.9125,18.884,189.9125,18.884C189.9125,18.884,189.8555,18.8365,189.8555,18.8365C189.58,18.58,189.1145,18.276,188.4115,18.276C187.167,18.276,186.1505,19.3115,186.1505,20.575C186.1505,21.8385,187.167,22.874000000000002,188.4115,22.874000000000002C189.713,22.874000000000002,190.2735,22.0475,190.4255,21.487000000000002C190.4255,21.487000000000002,188.326,21.487000000000002,188.326,21.487000000000002C188.326,21.487000000000002,188.326,20.014499999999998,188.326,20.014499999999998C188.326,20.014499999999998,192.0785,20.014499999999998,192.0785,20.014499999999998C192.0785,20.014499999999998,192.088,20.081,192.088,20.081C192.126,20.2805,192.1355,20.461,192.1355,20.6605C192.1355,22.893,190.606,24.4605,188.4115,24.4605C188.4115,24.4605,188.4115,24.4605,188.4115,24.4605ZM194.14,22.836C194.4535,23.406,194.843,23.957,195.2705,24.451C195.2705,24.451,194.7575,24.9545,194.7575,24.9545C194.7575,24.9545,194.14,22.836,194.14,22.836C194.14,22.836,194.14,22.836,194.14,22.836ZM194.8715,22.114C194.8715,22.114,193.931,22.114,193.931,22.114C193.931,22.114,193.6365,21.125999999999998,193.6365,21.125999999999998C193.6365,21.125999999999998,197.427,21.125999999999998,197.427,21.125999999999998C197.427,21.125999999999998,197.10399999999998,22.3705,195.945,23.729C195.451,23.14,195.0995,22.560499999999998,194.8715,22.114C194.8715,22.114,194.8715,22.114,194.8715,22.114ZM201.55,29.6C201.55,30.1225,201.1225,30.55,200.6,30.55C200.6,30.55,193.95,30.55,193.95,30.55C193.95,30.55,195.85,28.65,195.85,28.65C195.85,28.65,195.0805,26.0185,195.0805,26.0185C195.0805,26.0185,195.9545,25.1445,195.9545,25.1445C195.9545,25.1445,198.5005,27.7,198.5005,27.7C198.5005,27.7,199.194,27.006500000000003,199.194,27.006500000000003C199.194,27.006500000000003,196.6195,24.4605,196.6195,24.4605C197.4745,23.482,198.1395,22.323,198.4435,21.125999999999998C198.4435,21.125999999999998,199.65,21.125999999999998,199.65,21.125999999999998C199.65,21.125999999999998,199.65,20.137999999999998,199.65,20.137999999999998C199.65,20.137999999999998,196.192,20.137999999999998,196.192,20.137999999999998C196.192,20.137999999999998,196.192,19.15,196.192,19.15C196.192,19.15,195.204,19.15,195.204,19.15C195.204,19.15,195.204,20.137999999999998,195.204,20.137999999999998C195.204,20.137999999999998,193.342,20.137999999999998,193.342,20.137999999999998C193.342,20.137999999999998,192.221,16.3,192.221,16.3C192.221,16.3,200.6,16.3,200.6,16.3C201.1225,16.3,201.55,16.7275,201.55,17.25C201.55,17.25,201.55,29.6,201.55,29.6Z" fill="#E6E0E9" fill-opacity="1"/></g></g><g clip-path="url(#master_svg3_135_18871/135_18133)"><g><path d="M266.25,25.7C266.25,25.7,266.25,15.9875,266.25,15.9875C266.25,14.19636,264.8036,12.75,263.0125,12.75C263.0125,12.75,250.9875,12.75,250.9875,12.75C249.19636,12.75,247.75,14.19636,247.75,15.9875C247.75,15.9875,247.75,28.0125,247.75,28.0125C247.75,29.8036,249.19636,31.25,250.9875,31.25C250.9875,31.25,260.7,31.25,260.7,31.25C260.7,31.25,266.25,25.7,266.25,25.7ZM250.9875,29.4C250.22227,29.4,249.6,28.7777,249.6,28.0125C249.6,28.0125,249.6,15.9875,249.6,15.9875C249.6,15.22227,250.22227,14.6,250.9875,14.6C250.9875,14.6,263.0125,14.6,263.0125,14.6C263.7777,14.6,264.4,15.22227,264.4,15.9875C264.4,15.9875,264.4,24.775,264.4,24.775C264.4,24.775,263.0125,24.775,263.0125,24.775C261.2214,24.775,259.775,26.2214,259.775,28.0125C259.775,28.0125,259.775,29.4,259.775,29.4C259.775,29.4,250.9875,29.4,250.9875,29.4ZM254.93136,19.94818C254.6875,19.09045,253.79614,18.58591,252.93841,18.82977C252.08068,19.07364,251.57614,19.965,251.82,20.831139999999998C251.88727,21.066589999999998,252.005,21.27682,252.15636,21.453409999999998C252.15636,21.453409999999998,254.965,20.662950000000002,254.965,20.662950000000002C255.00705,20.427500000000002,254.99864,20.18364,254.93136,19.94818ZM260.7168,18.31682C260.4814,17.45909,259.5816,16.95455,258.7239,17.19841C257.8661,17.44227,257.36159,18.33364,257.60545,19.19977C257.67273,19.43523,257.7905,19.64545,257.9418,19.82205C257.9418,19.82205,260.7505,19.03159,260.7505,19.03159C260.7925,18.79614,260.7841,18.55227,260.7168,18.31682ZM261.5409,21.20955C261.5409,21.20955,252.62727,23.7239,252.62727,23.7239C253.82977,25.313200000000002,255.91523,26.0868,257.9418,25.515C259.9684,24.943199999999997,261.3391,23.1857,261.5409,21.20955Z" fill="#E6E0E9" fill-opacity="1"/></g></g></g><g><g><g><path d="M327,20C325.9,20,325,20.9,325,22C325,23.1,325.9,24,327,24C328.1,24,329,23.1,329,22C329,20.9,328.1,20,327,20ZM339,20C337.9,20,337,20.9,337,22C337,23.1,337.9,24,339,24C340.1,24,341,23.1,341,22C341,20.9,340.1,20,339,20ZM331,22C331,20.9,331.9,20,333,20C334.1,20,335,20.9,335,22C335,23.1,334.1,24,333,24C331.9,24,331,23.1,331,22Z" fill-rule="evenodd" fill="#E6E0E9" fill-opacity="1"/></g></g><g><g><path d="M390,21.5C390,23.16,388.66,24.5,387,24.5C385.34,24.5,384,23.16,384,21.5C384,21.5,384,15.5,384,15.5C384,13.84,385.34,12.5,387,12.5C388.66,12.5,390,13.84,390,15.5C390,15.5,390,21.5,390,21.5ZM387,26.5C389.76,26.5,392,24.259999999999998,392,21.5C392,21.5,394,21.5,394,21.5C394,25.03,391.39,27.93,388,28.42C388,28.42,388,31.5,388,31.5C388,31.5,386,31.5,386,31.5C386,31.5,386,28.42,386,28.42C382.61,27.93,380,25.03,380,21.5C380,21.5,382,21.5,382,21.5C382,24.259999999999998,384.24,26.5,387,26.5Z" fill-rule="evenodd" fill="#E6E0E9" fill-opacity="1"/></g></g></g><g><rect x="294.99977111816406" y="10" width="0.9999999403953552" height="24" rx="0" fill="#49454F" fill-opacity="1"/></g></g></g></g></svg>