<svg xmlns="http://www.w3.org/2000/svg" xmlns:xlink="http://www.w3.org/1999/xlink" fill="none" version="1.1" width="3" height="43" viewBox="0 0 3 43"><g transform="matrix(0,1,-1,0,3,0)"><path d="M1.5,0L4.83333,0L4.83333,3L1.5,3Q1.4263097,3,1.3529740000000001,2.9927799999999998Q1.279639,2.98555,1.207365,2.97118Q1.13509,2.9568000000000003,1.064573,2.93541Q0.994056,2.91402,0.925975,2.88582Q0.857894,2.85762,0.792905,2.82288Q0.727916,2.7881400000000003,0.666645,2.7472000000000003Q0.605373,2.7062600000000003,0.54841,2.65952Q0.49144999999999994,2.6127700000000003,0.43934000000000006,2.56066Q0.38722999999999996,2.50855,0.3404799999999999,2.45159Q0.2937399999999999,2.394627,0.2527999999999999,2.333355Q0.21185999999999994,2.272084,0.17711999999999994,2.207095Q0.14237999999999995,2.142106,0.11417999999999995,2.074025Q0.08597999999999995,2.005944,0.06458999999999993,1.935427Q0.043199999999999905,1.86491,0.028820000000000068,1.792635Q0.014450000000000074,1.720361,0.007220000000000004,1.6470259999999999Q0,1.5736903,0,1.5Q0,1.4263097,0.007220000000000004,1.3529740000000001Q0.014450000000000074,1.279639,0.028820000000000068,1.207365Q0.043199999999999905,1.13509,0.06458999999999993,1.064573Q0.08597999999999995,0.994056,0.11417999999999995,0.925975Q0.14237999999999995,0.857894,0.17711999999999994,0.792905Q0.21185999999999994,0.727916,0.2527999999999999,0.666645Q0.2937399999999999,0.605373,0.3404799999999999,0.54841Q0.38722999999999996,0.49144999999999994,0.43934000000000006,0.43934000000000006Q0.49144999999999994,0.38722999999999996,0.54841,0.3404799999999999Q0.605373,0.2937399999999999,0.666645,0.2527999999999999Q0.727916,0.21185999999999994,0.792905,0.17711999999999994Q0.857894,0.14237999999999995,0.925975,0.11417999999999995Q0.994056,0.08597999999999995,1.064573,0.06458999999999993Q1.13509,0.043199999999999905,1.207365,0.028820000000000068Q1.279639,0.014450000000000074,1.3529740000000001,0.007220000000000004Q1.4263097,0,1.5,0ZM11.5,3L18.1667,3L18.1667,0L11.5,0L11.5,3ZM24.8333,3L31.5,3L31.5,0L24.8333,0L24.8333,3ZM38.1667,3L41.5,3Q41.5737,3,41.647,2.9927799999999998Q41.7204,2.98555,41.7926,2.97118Q41.8649,2.9568000000000003,41.9354,2.93541Q42.0059,2.91402,42.074,2.88582Q42.1421,2.85762,42.2071,2.82288Q42.2721,2.7881400000000003,42.3334,2.7472000000000003Q42.3946,2.7062600000000003,42.4516,2.65952Q42.5085,2.6127700000000003,42.5607,2.56066Q42.6128,2.50855,42.6595,2.45159Q42.7063,2.394627,42.7472,2.333355Q42.7881,2.272084,42.8229,2.207095Q42.8576,2.142106,42.8858,2.074025Q42.914,2.005944,42.9354,1.935427Q42.9568,1.86491,42.9712,1.792635Q42.9856,1.720361,42.9928,1.6470259999999999Q43,1.5736903,43,1.5Q43,1.4263097,42.9928,1.3529740000000001Q42.9856,1.279639,42.9712,1.207365Q42.9568,1.13509,42.9354,1.064573Q42.914,0.994056,42.8858,0.925975Q42.8576,0.857894,42.8229,0.792905Q42.7881,0.727916,42.7472,0.666645Q42.7063,0.605373,42.6595,0.54841Q42.6128,0.49144999999999994,42.5607,0.43934000000000006Q42.5085,0.38722999999999996,42.4516,0.3404799999999999Q42.3946,0.2937399999999999,42.3334,0.2527999999999999Q42.2721,0.21185999999999994,42.2071,0.17711999999999994Q42.1421,0.14237999999999995,42.074,0.11417999999999995Q42.0059,0.08597999999999995,41.9354,0.06458999999999993Q41.8649,0.043199999999999905,41.7926,0.028820000000000068Q41.7204,0.014450000000000074,41.647,0.007220000000000004Q41.5737,0,41.5,0L38.1667,0L38.1667,3Z" fill-rule="evenodd" fill="#907EFF" fill-opacity="1"/></g></svg>