<svg xmlns="http://www.w3.org/2000/svg" xmlns:xlink="http://www.w3.org/1999/xlink" fill="none" version="1.1" width="254.00244930176996" height="1.5019762341500034" viewBox="0 0 254.00244930176996 1.5019762341500034"><g transform="matrix(1,0.0019762807060033083,-0.0019762793090194464,1,0.000990092495843753,-0.0009900931943357394)"><path d="M3.8811181396545096,1.0009881403530017Q3.64105813965451,3.9009881403530016,0.5009881396545097,3.9009881403530016Q-2.89901186034549,3.9009881403530016,-2.89901186034549,0.5009881403530017Q-2.89901186034549,-2.8990118596469983,0.5009881396545097,-2.8990118596469983Q3.64105813965451,-2.8990118596469983,3.8811181396545096,0.0009881403530016541L250.12098813965451,0.0009881403530016541Q250.36098813965452,-2.8990118596469983,253.5009881396545,-2.8990118596469983Q254.9099881396545,-2.8990118596469983,255.9059881396545,-1.9031718596469984Q256.9009881396545,-0.9073518596469983,256.9009881396545,0.5009881403530017Q256.9019881396545,1.9093281403530016,255.9059881396545,2.9051481403530017Q254.9099881396545,3.9009881403530016,253.5009881396545,3.9009881403530016Q250.36098813965452,3.9009881403530016,250.12098813965451,1.0009881403530017L3.8811181396545096,1.0009881403530017ZM0.5009881396545097,-1.8990118596469983Q2.9009881396545096,-1.8990118596469983,2.9009881396545096,0.5009881403530017Q2.9009881396545096,2.9009881403530016,0.5009881396545097,2.9009881403530016Q-1.8990118603454902,2.9009881403530016,-1.8990118603454902,0.5009881403530017Q-1.8990118603454902,-1.8990118596469983,0.5009881396545097,-1.8990118596469983ZM253.5009881396545,-1.8990118596469983Q255.90098813965452,-1.8990118596469983,255.90098813965452,0.5009881403530017Q255.90098813965452,1.4951201403530017,255.19898813965452,2.1980481403530017Q254.49598813965451,2.9009881403530016,253.5009881396545,2.9009881403530016Q252.5069881396545,2.9009881403530016,251.8039881396545,2.1980481403530017Q251.1009881396545,1.4951351403530015,251.1009881396545,0.5009881403530017Q251.1009881396545,-0.49315885964699835,251.8039881396545,-1.1960718596469984Q252.5069881396545,-1.8990118596469983,253.5009881396545,-1.8990118596469983Z" fill-rule="evenodd" fill="#907EFF" fill-opacity="0.8100000023841858"/></g></svg>