<svg xmlns="http://www.w3.org/2000/svg" xmlns:xlink="http://www.w3.org/1999/xlink" fill="none" version="1.1" width="36" height="36" viewBox="0 0 36 36"><g><g><ellipse cx="18.000001907348633" cy="18.000001907348633" rx="18.000001907348633" ry="18.000001907348633" fill="#F4F4F5" fill-opacity="1"/></g><g transform="matrix(-1,0,0,1,46.189613342285156,0)"><path d="M23.094806671142578,9.243244171142578L37.433306671142574,17.02702417114258L29.64957667114258,17.84637417114258L25.550716671142577,24.810844171142577L23.094806671142578,9.243244171142578Z" fill="#4C4C57" fill-opacity="1"/><path d="M22.60091467114258,9.321159471142579L25.056816671142577,24.888744171142577Q25.074296671142577,24.999444171142578,25.13738667114258,25.09214417114258Q25.200476671142578,25.18484417114258,25.29710667114258,25.241744171142578Q25.33954667114258,25.266744171142577,25.38604667114258,25.282944171142578Q25.43254667114258,25.29914417114258,25.481306671142576,25.305944171142578Q25.530076671142577,25.31284417114258,25.579246671142577,25.31004417114258Q25.628406671142578,25.30714417114258,25.676086671142578,25.29484417114258Q25.723756671142578,25.28244417114258,25.76810667114258,25.26104417114258Q25.812446671142578,25.23964417114258,25.851766671142578,25.210044171142577Q25.891086671142578,25.18034417114258,25.923866671142576,25.143644171142576Q25.95664667114258,25.106844171142576,25.98162667114258,25.064444171142576L29.95261667114258,18.31723417114258L37.48570667114258,17.52428417114258Q37.60850667114258,17.511354171142578,37.71120667114258,17.44273417114258Q37.813906671142576,17.374104171142577,37.87280667114258,17.26557417114258Q37.89630667114258,17.22229417114258,37.91090667114258,17.17526417114258Q37.92550667114258,17.12823417114258,37.93060667114258,17.07925417114258Q37.93580667114258,17.03027417114258,37.931206671142576,16.981244171142578Q37.926706671142576,16.93220417114258,37.91270667114258,16.884984171142577Q37.89880667114258,16.837764171142577,37.87580667114258,16.79418417114258Q37.85290667114258,16.750604171142577,37.82190667114258,16.71233417114258Q37.79090667114258,16.67407417114258,37.75300667114258,16.642584171142577Q37.71520667114258,16.61109417114258,37.67190667114258,16.58760417114258L23.333352671142578,8.803817171142578Q23.184355771142577,8.722933171142579,23.016891371142577,8.749352171142577Q22.91864967114258,8.764850171142578,22.83381767114258,8.816764171142578Q22.748985671142577,8.868678171142578,22.690477671142578,8.949104171142578Q22.631969671142578,9.029530171142579,22.608692671142578,9.126224171142578Q22.58541667114258,9.222918271142579,22.60091467114258,9.321159471142579ZM25.827256671142578,23.355144171142577L23.746558671142576,10.165975171142579L35.77980667114258,16.698324171142577L29.59722667114258,17.349124171142577Q29.47896667114258,17.36157417114258,29.378976671142578,17.425924171142576Q29.27897667114258,17.490284171142576,29.21866667114258,17.592764171142576L25.827256671142578,23.355144171142577Z" fill-rule="evenodd" fill="#4C4C57" fill-opacity="1"/></g></g></svg>