<svg xmlns="http://www.w3.org/2000/svg" xmlns:xlink="http://www.w3.org/1999/xlink" fill="none" version="1.1" width="37" height="37" viewBox="0 0 37 37"><defs><clipPath id="master_svg0_135_31154"><rect x="0" y="0" width="37" height="37" rx="0"/></clipPath></defs><g clip-path="url(#master_svg0_135_31154)"><g><ellipse cx="18.5" cy="18.5" rx="18.5" ry="18.5" fill="#907EFF" fill-opacity="1"/></g><g><path d="M19,26Q25,21.2,25,16C25,12.68628,22.31372,10,19,10C15.68628,10,13,12.68628,13,16Q13,21.2,19,26Z" fill="#FFFFFF" fill-opacity="1"/><path d="M14.4038,11.4038Q12.5,13.3076,12.5,16Q12.5,21.4403,18.687649999999998,26.3904Q18.75415,26.4436,18.8345,26.4718Q18.91485,26.5,19,26.5Q19.08515,26.5,19.1655,26.4718Q19.24586,26.4436,19.312350000000002,26.3904Q25.5,21.4403,25.5,16Q25.5,13.30761,23.5962,11.4038Q21.6924,9.500001,19,9.5Q16.3076,9.5,14.4038,11.4038ZM19,25.356Q13.5,20.8246,13.5,16Q13.5,13.721820000000001,15.11091,12.11091Q16.72182,10.5,19,10.5Q21.27818,10.5,22.88909,12.11091Q24.5,13.721820000000001,24.5,16Q24.5,20.8246,19,25.356Z" fill-rule="evenodd" fill="#FFFFFF" fill-opacity="1"/></g><g><path d="M21.399609375,15.999609375Q21.399609375,16.117509375,21.388049375,16.234849375Q21.376499375,16.352189375000002,21.353489375,16.467829375Q21.330489375,16.583469375,21.296269375,16.696289375Q21.262039375,16.809119375,21.216919375,16.918049375Q21.171799375,17.026979375,21.116219375,17.130959375Q21.060639375,17.234939375,20.995139375,17.332979375Q20.929629375,17.431009375,20.854839375,17.522149375Q20.780039375,17.613289375,20.696669375,17.696669375Q20.613299375,17.780039375,20.522149375,17.854829375Q20.431009375,17.929629375,20.332979375,17.995139375Q20.234939375,18.060639375,20.130959375,18.116219375Q20.026979375,18.171799375,19.918049375,18.216919375Q19.809119375,18.262039375,19.696289375,18.296269375Q19.583469375,18.330489375,19.467829375,18.353489375Q19.352189375000002,18.376499375,19.234849375,18.388049375Q19.117509375,18.399609375,18.999609375,18.399609375Q18.881709375,18.399609375,18.764369375,18.388049375Q18.647029375,18.376499375,18.531389375,18.353489375Q18.415749375,18.330489375,18.302929375,18.296269375Q18.190099375,18.262039375,18.081169375,18.216919375Q17.972239375,18.171799375,17.868259375,18.116219375Q17.764279375,18.060639375,17.666239375,17.995139375Q17.568206375,17.929629375,17.477065375,17.854839375Q17.385924375,17.780039375,17.302553375,17.696669375Q17.219182375,17.613299375,17.144384375,17.522149375Q17.069586375,17.431009375,17.004082375,17.332979375Q16.938578375,17.234939375,16.882998375,17.130959375Q16.827418375,17.026979375,16.782298375,16.918049375Q16.737178375,16.809119375,16.702952375,16.696289375Q16.668726675,16.583469375,16.645724675,16.467829375Q16.622722675,16.352189375000002,16.611166075,16.234849375Q16.599609375,16.117509375,16.599609375,15.999609375Q16.599609375,15.881709375,16.611166075,15.764369375Q16.622722675,15.647029374999999,16.645724675,15.531389375Q16.668726675,15.415749375,16.702952375,15.302929375Q16.737178375,15.190099374999999,16.782298375,15.081169375Q16.827418375,14.972239375000001,16.882998375,14.868259375000001Q16.938578375,14.764279375000001,17.004082375,14.666239375Q17.069586375,14.568206375,17.144384375,14.477065375Q17.219182375,14.385924375,17.302553375,14.302553375Q17.385924375,14.219182375,17.477065375,14.144384375Q17.568206375,14.069586375,17.666239375,14.004082375Q17.764279375,13.938578375,17.868259375,13.882998375Q17.972239375,13.827418375,18.081169375,13.782298375Q18.190099375,13.737178375,18.302929375,13.702952375Q18.415749375,13.668726675,18.531389375,13.645724675Q18.647029375,13.622722675,18.764369375,13.611166075Q18.881709375,13.599609375,18.999609375,13.599609375Q19.117509375,13.599609375,19.234849375,13.611166075Q19.352189375000002,13.622722675,19.467829375,13.645724675Q19.583469375,13.668726675,19.696289375,13.702952375Q19.809119375,13.737178375,19.918049375,13.782298375Q20.026979375,13.827418375,20.130959375,13.882998375Q20.234939375,13.938578375,20.332979375,14.004082375Q20.431009375,14.069586375,20.522149375,14.144384375Q20.613289375,14.219182375,20.696669375,14.302553375Q20.780039375,14.385924375,20.854829375,14.477065375Q20.929629375,14.568206375,20.995139375,14.666239375Q21.060639375,14.764279375000001,21.116219375,14.868259375000001Q21.171799375,14.972239375000001,21.216919375,15.081169375Q21.262039375,15.190099374999999,21.296269375,15.302929375Q21.330489375,15.415749375,21.353489375,15.531389375Q21.376499375,15.647029374999999,21.388049375,15.764369375Q21.399609375,15.881709375,21.399609375,15.999609375Z" fill="#907EFF" fill-opacity="1"/><path d="M16.949001375,13.949001375Q16.099609375,14.798389375,16.099609375,15.999609375Q16.099609375,17.200829375,16.949001375,18.050219375Q17.798389375,18.899609375,18.999609375,18.899609375Q20.200829375,18.899609375,21.050219375,18.050219375Q21.899609375,17.200829375,21.899609375,15.999609375Q21.899609375,14.798389375,21.050219375,13.949001375Q20.200829375,13.099609375,18.999609375,13.099609375Q17.798389375,13.099609375,16.949001375,13.949001375ZM17.656109375,17.343109375Q17.099609375,16.786609375,17.099609375,15.999609375Q17.099609375,15.212609375,17.656109375,14.656109375Q18.212609375,14.099609375,18.999609375,14.099609375Q19.786609375,14.099609375,20.343109375,14.656109375Q20.899609375,15.212609375,20.899609375,15.999609375Q20.899609375,16.786609375,20.343109375,17.343109375Q19.786609375,17.899609375,18.999609375,17.899609375Q18.212609375,17.899609375,17.656109375,17.343109375Z" fill-rule="evenodd" fill="#907EFF" fill-opacity="1"/></g></g></svg>