<svg xmlns="http://www.w3.org/2000/svg" xmlns:xlink="http://www.w3.org/1999/xlink" fill="none" version="1.1" width="24.000003349326107" height="24.000003349326107" viewBox="0 0 24.000003349326107 24.000003349326107"><defs><clipPath id="master_svg0_2_046334"><rect x="24" y="0.0000033493261071271263" width="24" height="24" rx="12"/></clipPath></defs><g transform="matrix(-1,-1.3955525446363026e-7,1.3955525446363026e-7,1,47.99999999999953,0.0000033493261071271263)" clip-path="url(#master_svg0_2_046334)"><rect x="24" y="0.0000033493261071271263" width="24" height="24" rx="12" fill="#D8D8D8" fill-opacity="0.7490196228027344"/><g><path d="M38.49913,10.445073349326108L37.55493,9.500873349326106L31.3355,15.720303349326107L31.3355,16.664503349326107L32.2797,16.664503349326107L38.49913,10.445073349326108ZM39.44333,9.500873349326106L40.3875,8.556673349326108L39.44333,7.612473349326107L38.49913,8.556673349326108L39.44333,9.500873349326106ZM32.8326,18.000003349326107L30,18.000003349326107L30,15.166743349326108L38.97123,6.195511349326107C39.231989999999996,5.934833949326107,39.654669999999996,5.934833949326107,39.91543,6.195511349326107L41.804500000000004,8.084573349326106C42.065200000000004,8.345333349326108,42.065200000000004,8.768023349326107,41.804500000000004,9.028773349326107L32.8326,18.000003349326107L32.8326,18.000003349326107Z" fill="#2C2C2C" fill-opacity="1" style="mix-blend-mode:passthrough"/></g></g></svg>