<svg xmlns="http://www.w3.org/2000/svg" xmlns:xlink="http://www.w3.org/1999/xlink" fill="none" version="1.1" width="24" height="24" viewBox="0 0 24 24"><defs><clipPath id="master_svg0_2_053684"><rect x="0" y="0" width="24" height="24" rx="0"/></clipPath></defs><g clip-path="url(#master_svg0_2_053684)"><g><path d="M4,22C4,17.5817,7.58172,14,12,14C16.418300000000002,14,20,17.5817,20,22L18,22C18,18.6863,15.3137,16,12,16C8.68629,16,6,18.6863,6,22L4,22ZM12,13C8.684999999999999,13,6,10.315,6,7C6,3.685,8.684999999999999,1,12,1C15.315,1,18,3.685,18,7C18,10.315,15.315,13,12,13ZM12,11C14.21,11,16,9.21,16,7C16,4.79,14.21,3,12,3C9.79,3,8,4.79,8,7C8,9.21,9.79,11,12,11Z" fill="#D8D8D8" fill-opacity="1" style="mix-blend-mode:passthrough"/></g></g></svg>