<svg xmlns="http://www.w3.org/2000/svg" xmlns:xlink="http://www.w3.org/1999/xlink" fill="none" version="1.1" width="24" height="24" viewBox="0 0 24 24"><defs><clipPath id="master_svg0_135_11972"><rect x="0" y="0" width="24" height="24" rx="0"/></clipPath></defs><g clip-path="url(#master_svg0_135_11972)"><g><path d="M2,9.5L2,4C2,3.447715,2.447715,3,3,3L21,3C21.5523,3,22,3.447715,22,4L22,9.5C20.6193,9.5,19.5,10.61929,19.5,12C19.5,13.3807,20.6193,14.5,22,14.5L22,20C22,20.5523,21.5523,21,21,21L3,21C2.447715,21,2,20.5523,2,20L2,14.5C3.38071,14.5,4.5,13.3807,4.5,12C4.5,10.61929,3.38071,9.5,2,9.5ZM14,5L4,5L4,7.968C5.53234,8.72742,6.50176,10.2898,6.50176,12C6.50176,13.7102,5.53234,15.2726,4,16.032L4,19L14,19L14,5ZM16,5L16,19L20,19L20,16.032C18.4677,15.2726,17.4982,13.7102,17.4982,12C17.4982,10.2898,18.4677,8.72742,20,7.968L20,5L16,5Z" fill="#D8D8D8" fill-opacity="1" style="mix-blend-mode:passthrough"/></g></g></svg>