<svg xmlns="http://www.w3.org/2000/svg" xmlns:xlink="http://www.w3.org/1999/xlink" fill="none" version="1.1" width="175" height="175.00018310546875" viewBox="0 0 175 175.00018310546875"><defs><clipPath id="master_svg0_111_34316"><rect x="0" y="0" width="175" height="175.00018310546875" rx="0"/></clipPath><filter id="master_svg1_111_34324" filterUnits="objectBoundingBox" color-interpolation-filters="sRGB" x="-0.125" y="-0.12499998807907219" width="1.25" height="1.2499999761581444"><feFlood flood-opacity="0" result="BackgroundImageFix"/><feBlend mode="normal" in="SourceGraphic" in2="BackgroundImageFix" result="shape"/><feGaussianBlur stdDeviation="5" result="effect1_foregroundBlur"/></filter><radialGradient cx="0" cy="0" r="1" gradientUnits="userSpaceOnUse" id="master_svg2_111_36187" gradientTransform="translate(87.49999237060547 88.5) rotate(90) scale(65.5 65.49999237060547)"><stop offset="0%" stop-color="#907EFF" stop-opacity="1"/><stop offset="61.65240406990051%" stop-color="#907EFF" stop-opacity="1"/><stop offset="81.40990138053894%" stop-color="#A89BFA" stop-opacity="1"/><stop offset="100%" stop-color="#DCD7FE" stop-opacity="1"/></radialGradient></defs><g clip-path="url(#master_svg0_111_34316)"><g filter="url(#master_svg1_111_34324)"><ellipse cx="87" cy="88.00000762939453" rx="80" ry="80.00000762939453" fill="#B7ACFC" fill-opacity="0.5"/></g><g><path d="M87.5,154C105.5872,154,121.9622,146.66899999999998,133.815,134.815C145.66899999999998,122.9621,153,106.5871,153,88.5C153,70.4128,145.66899999999998,54.037800000000004,133.815,42.1845C121.9622,30.33135,105.5872,23,87.5,23C69.4128,23,53.037800000000004,30.33135,41.1845,42.1845C29.33135,54.037800000000004,22,70.4128,22,88.5C22,106.5871,29.33135,122.9621,41.1845,134.815C53.037800000000004,146.66899999999998,69.4128,154,87.5,154Z" fill="url(#master_svg2_111_36187)" fill-opacity="1"/></g><g><path d="M117.4208,73.06932Q117.7096,72.75966,117.9356,72.40155Q118.16159999999999,72.04344,118.3168,71.64946Q118.47200000000001,71.25549,118.551,70.839468Q118.63,70.423451,118.63,70Q118.63,69.889531,118.6246,69.779195Q118.6191,69.66886,118.6083,69.558923Q118.5975,69.448986,118.5813,69.339713Q118.5651,69.23044,118.5435,69.122094Q118.52199999999999,69.013748,118.49510000000001,68.90659Q118.4683,68.79943,118.4362,68.69372Q118.4041,68.58801,118.3669,68.484Q118.3297,68.37998,118.28739999999999,68.27792Q118.2452,68.17586,118.1979,68.076Q118.1507,67.97614,118.0986,67.87871Q118.0466,67.78129,117.9898,67.68654Q117.93299999999999,67.59179,117.8716,67.49993Q117.81020000000001,67.40808,117.7444,67.31935Q117.6786,67.23062,117.60849999999999,67.14523Q117.5385,67.05984,117.46430000000001,66.97798Q117.39009999999999,66.89613,117.312,66.81802Q117.2338,66.73991,117.152,66.66572Q117.0701,66.59153,116.9848,66.52145Q116.8994,66.45137,116.8106,66.38557Q116.7219,66.31976,116.63,66.25839Q116.5382,66.19701,116.4434,66.14022Q116.34870000000001,66.08342999999999,116.2513,66.03135Q116.15379999999999,65.97928,116.054,65.93205Q115.9541,65.88482,115.85210000000001,65.84254Q115.75,65.80027,115.646,65.76304999999999Q115.542,65.72584,115.4363,65.69377Q115.3305,65.6617,115.2234,65.63486Q115.11619999999999,65.60802,115.0079,65.58647Q114.8995,65.56492,114.7903,65.54871Q114.681,65.5325,114.5711,65.52167Q114.4611,65.51084,114.35079999999999,65.50542Q114.2405,65.5,114.13,65.5Q113.8991,65.5,113.6694,65.52363Q113.43979999999999,65.54726,113.2137,65.59427Q112.98769999999999,65.64128,112.7676,65.71118Q112.5476,65.78109,112.3358,65.87314Q112.1241,65.96519,111.9229,66.07844Q111.7217,66.19168,111.53309999999999,66.32492Q111.3445,66.45816,111.17060000000001,66.61Q110.9967,66.76184,110.8392,66.93068L78.71000000000001,101.3781L64.29078,85.9185Q64.13331,85.7497,63.95937,85.5978Q63.78544,85.446,63.59688,85.3128Q63.40832,85.1795,63.20711,85.0663Q63.0059,84.953,62.79416,84.861Q62.58242,84.7689,62.36238,84.699Q62.14233,84.6291,61.916278,84.5821Q61.69023,84.5351,61.460557,84.5115Q61.230885,84.4878,61,84.4878Q60.889531,84.4878,60.779195,84.4933Q60.66886,84.4987,60.558923,84.5095Q60.448986,84.5203,60.339713,84.5365Q60.23044,84.5528,60.122094,84.5743Q60.013748,84.5959,59.90659,84.6227Q59.79943,84.6495,59.69372,84.6816Q59.58801,84.7137,59.484,84.7509Q59.37998,84.7881,59.27792,84.8304Q59.17586,84.8727,59.076,84.9199Q58.97614,84.9671,58.87871,85.0192Q58.78129,85.07130000000001,58.68654,85.1281Q58.59179,85.1849,58.49993,85.2462Q58.40808,85.30760000000001,58.31935,85.3734Q58.23062,85.4392,58.14523,85.5093Q58.05984,85.57939999999999,57.97798,85.6536Q57.89613,85.7277,57.81802,85.8059Q57.73991,85.884,57.66572,85.9658Q57.59153,86.04769999999999,57.52145,86.1331Q57.45137,86.2185,57.38557,86.3072Q57.31976,86.3959,57.25839,86.4878Q57.19701,86.5796,57.14022,86.67439999999999Q57.08343,86.76910000000001,57.03135,86.8666Q56.97928,86.964,56.932050000000004,87.0638Q56.88482,87.1637,56.84254,87.2658Q56.80027,87.3678,56.76305,87.4718Q56.72584,87.5758,56.69377,87.6816Q56.661699999999996,87.7873,56.63486,87.8944Q56.608019999999996,88.0016,56.58647,88.1099Q56.56492,88.2183,56.54871,88.3276Q56.5325,88.4368,56.52167,88.5468Q56.51084,88.6567,56.50542,88.767Q56.5,88.8774,56.5,88.9878Q56.5,89.4113,56.57899,89.82730000000001Q56.65799,90.2433,56.8132,90.6373Q56.96842,91.0313,57.1944,91.3894Q57.42039,91.7475,57.70921,92.0572L57.71083,92.0589L75.4192,111.045Q75.5261,111.1596,75.6407,111.26650000000001Q75.9648,111.56880000000001,76.3417,111.80199999999999Q76.7185,112.0353,77.1336,112.1906Q77.5488,112.3458,77.9862,112.4171Q78.4237,112.4884,78.8666,112.473Q79.3095,112.45750000000001,79.741,112.356Q80.1724,112.25450000000001,80.5757,112.0707Q80.979,111.8869,81.33879999999999,111.628Q81.6985,111.3691,82.0008,111.045L117.4208,73.06932L117.4208,73.06932Z" fill-rule="evenodd" fill="#FFFFFF" fill-opacity="1"/></g></g></svg>