<svg xmlns="http://www.w3.org/2000/svg" xmlns:xlink="http://www.w3.org/1999/xlink" fill="none" version="1.1" width="44" height="147.62744140625" viewBox="0 0 44 147.62744140625"><g><path d="M0,0L44,0L44,147.627L0,147.627L0,104.953Q0.122743,104.953,0.245338,104.948Q0.367934,104.943,0.490086,104.932Q0.612238,104.922,0.733652,104.907Q0.855067,104.892,0.975451,104.872Q1.09584,104.852,1.2149,104.827Q1.33397,104.801,1.45142,104.771Q1.56888,104.742,1.68445,104.707Q1.80002,104.672,1.91342,104.632Q2.02682,104.593,2.13778,104.549Q2.24873,104.505,2.35698,104.456Q2.46523,104.407,2.57051,104.354Q2.67579,104.301,2.77785,104.244Q2.87991,104.186,2.9785,104.125Q3.07708,104.063,3.17197,103.998Q3.26685,103.932,3.35779,103.863Q3.44874,103.793,3.53553,103.72Q3.62233,103.647,3.70476,103.571Q3.78718,103.494,3.86505,103.414Q3.94292,103.334,4.01604,103.251Q4.08916,103.168,4.15735,103.083Q4.22554,102.997,4.28864,102.908Q4.35175,102.819,4.40961,102.728Q4.46747,102.637,4.51995,102.544Q4.57243,102.451,4.6194,102.355Q4.66637,102.26,4.70772,102.162Q4.74907,102.065,4.7847,101.966Q4.82033,101.867,4.85016,101.767Q4.87998,101.667,4.90393,101.566Q4.92787,101.464,4.94588,101.362Q4.96389,101.26,4.97592,101.157Q4.98795,101.054,4.99398,100.951Q5,100.848,5,100.745Q5,100.641,4.99398,100.538Q4.98795,100.435,4.97592,100.332Q4.96389,100.23,4.94588,100.127Q4.92787,100.025,4.90393,99.9239Q4.87998,99.8225,4.85016,99.7223Q4.82033,99.6221,4.7847,99.5233Q4.74907,99.4244,4.70772,99.3272Q4.66637,99.2299,4.6194,99.1345Q4.57243,99.039,4.51995,98.9456Q4.46747,98.8523,4.40961,98.7612Q4.35175,98.6701,4.28864,98.5815Q4.22554,98.4929,4.15735,98.407Q4.08916,98.3211,4.01604,98.2381Q3.94292,98.1552,3.86505,98.0753Q3.78718,97.9954,3.70476,97.9189Q3.62233,97.8424,3.53553,97.7693Q3.44874,97.6963,3.35779,97.6269Q3.26685,97.5575,3.17197,97.492Q3.07708,97.4265,2.9785,97.3649Q2.87991,97.3034,2.77785,97.246Q2.67579,97.1886,2.57051,97.1355Q2.46523,97.0824,2.35698,97.0337Q2.24873,96.985,2.13778,96.9409Q2.02682,96.8967,1.91342,96.8572Q1.80002,96.8176,1.68445,96.7828Q1.56888,96.748,1.45142,96.7181Q1.33397,96.6881,1.2149,96.663Q1.09584,96.6379,0.975451,96.6177Q0.855067,96.5976,0.733652,96.5824Q0.612238,96.5673,0.490086,96.5571Q0.367934,96.547,0.245338,96.5419Q0.122743,96.5369,0,96.5369L0,86.4378Q0.122743,86.4378,0.245338,86.4327Q0.367934,86.4277,0.490086,86.4176Q0.612238,86.4074,0.733652,86.3923Q0.855067,86.3771,0.975451,86.3569Q1.09584,86.3368,1.2149,86.3117Q1.33397,86.2866,1.45142,86.2566Q1.56888,86.2266,1.68445,86.1918Q1.80002,86.157,1.91342,86.1175Q2.02682,86.078,2.13778,86.0338Q2.24873,85.9896,2.35698,85.9409Q2.46523,85.8922,2.57051,85.8391Q2.67579,85.786,2.77785,85.7286Q2.87991,85.6713,2.9785,85.6097Q3.07708,85.5482,3.17197,85.4827Q3.26685,85.4171,3.35779,85.3477Q3.44874,85.2784,3.53553,85.2053Q3.62233,85.1323,3.70476,85.0558Q3.78718,84.9792,3.86505,84.8994Q3.94292,84.8195,4.01604,84.7365Q4.08916,84.6536,4.15735,84.5677Q4.22554,84.4818,4.28864,84.3932Q4.35175,84.3046,4.40961,84.2135Q4.46747,84.1224,4.51995,84.029Q4.57243,83.9356,4.6194,83.8402Q4.66637,83.7448,4.70772,83.6475Q4.74907,83.5502,4.7847,83.4514Q4.82033,83.3525,4.85016,83.2523Q4.87998,83.1521,4.90393,83.0508Q4.92787,82.9495,4.94588,82.8473Q4.96389,82.7451,4.97592,82.6423Q4.98795,82.5395,4.99398,82.4364Q5,82.3332,5,82.2299Q5,82.1266,4.99398,82.0234Q4.98795,81.9202,4.97592,81.8174Q4.96389,81.7146,4.94588,81.6125Q4.92787,81.5103,4.90393,81.409Q4.87998,81.3076,4.85016,81.2074Q4.82033,81.1072,4.7847,81.0084Q4.74907,80.9095,4.70772,80.8123Q4.66637,80.715,4.6194,80.6196Q4.57243,80.5241,4.51995,80.4308Q4.46747,80.3374,4.40961,80.2463Q4.35175,80.1552,4.28864,80.0666Q4.22554,79.978,4.15735,79.8921Q4.08916,79.8062,4.01604,79.7232Q3.94292,79.6403,3.86505,79.5604Q3.78718,79.4806,3.70476,79.404Q3.62233,79.3275,3.53553,79.2544Q3.44874,79.1814,3.35779,79.112Q3.26685,79.0427,3.17197,78.9771Q3.07708,78.9116,2.9785,78.8501Q2.87991,78.7885,2.77785,78.7311Q2.67579,78.6737,2.57051,78.6206Q2.46523,78.5675,2.35698,78.5188Q2.24873,78.4701,2.13778,78.426Q2.02682,78.3818,1.91342,78.3423Q1.80002,78.3027,1.68445,78.2679Q1.56888,78.2331,1.45142,78.2032Q1.33397,78.1732,1.2149,78.1481Q1.09584,78.123,0.975451,78.1028Q0.855067,78.0827,0.733652,78.0675Q0.612238,78.0524,0.490086,78.0422Q0.367934,78.0321,0.245338,78.027Q0.122743,78.022,0,78.022L0,67.9232Q0.122743,67.9232,0.245338,67.9181Q0.367934,67.913,0.490086,67.9029Q0.612238,67.8928,0.733652,67.8776Q0.855067,67.8625,0.975451,67.8423Q1.09584,67.8222,1.2149,67.7971Q1.33397,67.772,1.45142,67.742Q1.56888,67.712,1.68445,67.6772Q1.80002,67.6424,1.91342,67.6029Q2.02682,67.5633,2.13778,67.5192Q2.24873,67.475,2.35698,67.4263Q2.46523,67.3776,2.57051,67.3245Q2.67579,67.2714,2.77785,67.214Q2.87991,67.1566,2.9785,67.0951Q3.07708,67.0335,3.17197,66.968Q3.26685,66.9025,3.35779,66.8331Q3.44874,66.7637,3.53553,66.6907Q3.62233,66.6176,3.70476,66.5411Q3.78718,66.4646,3.86505,66.3847Q3.94292,66.3049,4.01604,66.2219Q4.08916,66.1389,4.15735,66.053Q4.22554,65.9671,4.28864,65.8785Q4.35175,65.7899,4.40961,65.6988Q4.46747,65.6077,4.51995,65.5144Q4.57243,65.421,4.6194,65.3255Q4.66637,65.2301,4.70772,65.1328Q4.74907,65.0356,4.7847,64.9367Q4.82033,64.8379,4.85016,64.7377Q4.87998,64.6375,4.90393,64.5362Q4.92787,64.4348,4.94588,64.3327Q4.96389,64.2305,4.97592,64.1277Q4.98795,64.0249,4.99398,63.9217Q5,63.8185,5,63.7152Q5,63.6119,4.99398,63.5088Q4.98795,63.4056,4.97592,63.3028Q4.96389,63.2,4.94588,63.0978Q4.92787,62.9956,4.90393,62.8943Q4.87998,62.793,4.85016,62.6928Q4.82033,62.5926,4.7847,62.4937Q4.74907,62.3949,4.70772,62.2976Q4.66637,62.2004,4.6194,62.1049Q4.57243,62.0095,4.51995,61.9161Q4.46747,61.8227,4.40961,61.7316Q4.35175,61.6405,4.28864,61.5519Q4.22554,61.4633,4.15735,61.3774Q4.08916,61.2915,4.01604,61.2086Q3.94292,61.1256,3.86505,61.0458Q3.78718,60.9659,3.70476,60.8894Q3.62233,60.8128,3.53553,60.7398Q3.44874,60.6667,3.35779,60.5974Q3.26685,60.528,3.17197,60.4625Q3.07708,60.3969,2.9785,60.3354Q2.87991,60.2739,2.77785,60.2165Q2.67579,60.1591,2.57051,60.106Q2.46523,60.0529,2.35698,60.0042Q2.24873,59.9555,2.13778,59.9113Q2.02682,59.8672,1.91342,59.8276Q1.80002,59.7881,1.68445,59.7533Q1.56888,59.7185,1.45142,59.6885Q1.33397,59.6585,1.2149,59.6334Q1.09584,59.6083,0.975451,59.5882Q0.855067,59.568,0.733652,59.5529Q0.612238,59.5377,0.490086,59.5276Q0.367934,59.5175,0.245338,59.5124Q0.122743,59.5073,0,59.5073L0,49.4082Q0.122743,49.4081,0.245338,49.4031Q0.367934,49.398,0.490086,49.3879Q0.612238,49.3778,0.733652,49.3626Q0.855067,49.3474,0.975451,49.3273Q1.09584,49.3071,1.2149,49.282Q1.33397,49.2569,1.45142,49.227Q1.56888,49.197,1.68445,49.1622Q1.80002,49.1274,1.91342,49.0878Q2.02682,49.0483,2.13778,49.0041Q2.24873,48.96,2.35698,48.9113Q2.46523,48.8626,2.57051,48.8095Q2.67579,48.7564,2.77785,48.699Q2.87991,48.6416,2.9785,48.5801Q3.07708,48.5185,3.17197,48.453Q3.26685,48.3875,3.35779,48.3181Q3.44874,48.2487,3.53553,48.1757Q3.62233,48.1026,3.70476,48.0261Q3.78718,47.9496,3.86505,47.8697Q3.94292,47.7899,4.01604,47.7069Q4.08916,47.6239,4.15735,47.538Q4.22554,47.4521,4.28864,47.3635Q4.35175,47.2749,4.40961,47.1838Q4.46747,47.0927,4.51995,46.9993Q4.57243,46.906,4.6194,46.8105Q4.66637,46.7151,4.70772,46.6178Q4.74907,46.5206,4.7847,46.4217Q4.82033,46.3229,4.85016,46.2227Q4.87998,46.1225,4.90393,46.0212Q4.92787,45.9198,4.94588,45.8177Q4.96389,45.7155,4.97592,45.6127Q4.98795,45.5099,4.99398,45.4067Q5,45.3035,5,45.2002Q5,45.0969,4.99398,44.9938Q4.98795,44.8906,4.97592,44.7878Q4.96389,44.685,4.94588,44.5828Q4.92787,44.4806,4.90393,44.3793Q4.87998,44.278,4.85016,44.1778Q4.82033,44.0776,4.7847,43.9787Q4.74907,43.8799,4.70772,43.7826Q4.66637,43.6854,4.6194,43.5899Q4.57243,43.4945,4.51995,43.4011Q4.46747,43.3077,4.40961,43.2166Q4.35175,43.1255,4.28864,43.0369Q4.22554,42.9483,4.15735,42.8624Q4.08916,42.7765,4.01604,42.6936Q3.94292,42.6106,3.86505,42.5308Q3.78718,42.4509,3.70476,42.3744Q3.62233,42.2978,3.53553,42.2248Q3.44874,42.1517,3.35779,42.0824Q3.26685,42.013,3.17197,41.9475Q3.07708,41.8819,2.9785,41.8204Q2.87991,41.7589,2.77785,41.7015Q2.67579,41.6441,2.57051,41.591Q2.46523,41.5379,2.35698,41.4892Q2.24873,41.4405,2.13778,41.3963Q2.02682,41.3521,1.91342,41.3126Q1.80002,41.2731,1.68445,41.2383Q1.56888,41.2035,1.45142,41.1735Q1.33397,41.1435,1.2149,41.1184Q1.09584,41.0933,0.975451,41.0732Q0.855067,41.053,0.733652,41.0379Q0.612238,41.0227,0.490086,41.0126Q0.367934,41.0024,0.245338,40.9974Q0.122743,40.9923,0,40.9923L0,0Z" fill-rule="evenodd" fill="#907EFF" fill-opacity="1"/></g></svg>