<svg xmlns="http://www.w3.org/2000/svg" xmlns:xlink="http://www.w3.org/1999/xlink" fill="none" version="1.1" width="32" height="32" viewBox="0 0 32 32"><defs><clipPath id="master_svg0_135_31168"><rect x="0" y="0" width="32" height="32" rx="0"/></clipPath></defs><g clip-path="url(#master_svg0_135_31168)"><g><path d="M28.080215625,10.747461953125Q28.219515625,10.608181953125,28.328915625,10.444391953125Q28.438415625,10.280607953125,28.513815625,10.098618953125Q28.589115625,9.916630953125,28.627615625,9.723432953125Q28.666015625,9.530234953125,28.666015625,9.333251953125Q28.666015625,9.234998253125,28.656415625,9.137217953125Q28.646715625,9.039436953125,28.627615625,8.943070953125Q28.608415625,8.846705953125,28.579915625,8.752682953125Q28.551415625,8.658659953125,28.513815625,8.567884953125Q28.476215625,8.477110953124999,28.429815625,8.390458953125Q28.383515625,8.303801953125,28.328915625,8.222111953125Q28.274415625,8.140411953125,28.212015625,8.064461953125Q28.149715625,7.988511953125,28.080215625,7.919041953125Q28.010715625,7.849561953125,27.934815625,7.787231953125Q27.858815625,7.724901953125,27.777115625,7.670311953125Q27.695415625,7.615721953125,27.608815625,7.569411953125Q27.522115625,7.523091953125,27.431415625,7.485491953125Q27.340615625,7.447891953125,27.246615625,7.419371953125Q27.152615625,7.390851953125,27.056215625,7.371681953125Q26.959815625,7.352511953125,26.862015625,7.342881953125Q26.764315625,7.333251953125,26.666015625,7.333251953125Q26.469015625,7.333251953125,26.275815625,7.371681953125Q26.082615625,7.410111953125,25.900615625,7.485491953125Q25.718615625,7.560871953125,25.554915625,7.670311953125Q25.391115625,7.779751953125,25.251815625,7.919041953125L25.251615625,7.9192719531249995L13.332685625,19.838151953125L8.080225625,14.585701953125Q7.9409456249999995,14.446411953125,7.777155625,14.336981953125001Q7.613370625,14.227541953125,7.431382625,14.152161953124999Q7.249393625,14.076781953125,7.056196625,14.038351953125Q6.862998625,13.999921953125,6.666015625,13.999921953125Q6.567761925,13.999921953125,6.469981625,14.009551953125001Q6.372200625,14.019181953124999,6.275834625,14.038351953125Q6.179469625,14.057511953125001,6.085446625,14.086041953125001Q5.991423625,14.114561953125001,5.900648625,14.152161953124999Q5.809874625,14.189761953125,5.723222625,14.236071953125Q5.636565625,14.282391953125,5.554875625,14.336981953125001Q5.473175625,14.391561953124999,5.397225625,14.453901953125001Q5.321275625,14.516231953125,5.251805625,14.585701953125Q5.182325625,14.655181953125,5.119995625,14.731131953125Q5.057665625,14.807081953125,5.003075625,14.888781953125001Q4.948485625,14.970471953125,4.902175625,15.057121953125Q4.855855625,15.143771953125,4.818255625,15.234551953124999Q4.780655625,15.325321953125,4.752135625,15.419351953125Q4.723615625,15.513371953124999,4.704445625,15.609731953125Q4.685275625,15.706101953125,4.675645625,15.803881953125Q4.666015625,15.901661953125,4.666015625,15.999921953125Q4.666015625,16.196901953125,4.704445625,16.390101953125Q4.742875625,16.583291953125,4.818255625,16.765281953125Q4.893635625,16.947271953125,5.003075625,17.111061953125Q5.112515625,17.274841953124998,5.251805625,17.414131953125L11.918475625,24.080751953125002Q11.987945625,24.150251953125,12.063895625,24.212651953125Q12.139845625,24.274951953125,12.221545625000001,24.329551953124998Q12.303235625,24.384151953125,12.389895625000001,24.430451953125Q12.476545625,24.476751953125,12.567315624999999,24.514351953125Q12.658095625,24.551951953125,12.752115625,24.580451953125Q12.846135624999999,24.608951953125,12.942505624999999,24.628151953125Q13.038865625,24.647351953125,13.136645625,24.656951953125002Q13.234435625,24.666551953125,13.332685625,24.666551953125Q13.430935625,24.666551953125,13.528715625,24.656951953125002Q13.626495625,24.647351953125,13.722865625,24.628151953125Q13.819225625,24.608951953125,13.913255625,24.580451953125Q14.007275625,24.551951953125,14.098055625,24.514351953125Q14.188825625,24.476751953125,14.275475625,24.430451953125Q14.362125625000001,24.384151953125,14.443825624999999,24.329551953124998Q14.525515625,24.274951953125,14.601475624999999,24.212651953125Q14.677425625,24.150251953125,14.746895625,24.080751953125002L28.080015625,10.747701953125L28.080215625,10.747461953125Z" fill-rule="evenodd" fill="#907EFF" fill-opacity="1"/></g></g></svg>