<svg xmlns="http://www.w3.org/2000/svg" xmlns:xlink="http://www.w3.org/1999/xlink" fill="none" version="1.1" width="250" height="1" viewBox="0 0 250 1"><g><path d="M3.88013,1Q3.64007,3.9,0.5,3.9Q-2.9,3.9,-2.9,0.5Q-2.9,-2.9,0.5,-2.9Q3.64007,-2.9,3.88013,0L246.133,0Q246.282,-1.08995,247.096,-1.90416Q248.092,-2.9,249.5,-2.9Q252.9,-2.9,252.9,0.5Q252.9,3.9,249.5,3.9Q248.092,3.9,247.096,2.90416Q246.282,2.08996,246.133,1L3.88013,1ZM0.5,-1.9Q2.9,-1.9,2.9,0.5Q2.9,2.9,0.5,2.9Q-1.9,2.9,-1.9,0.5Q-1.9,-1.9,0.5,-1.9ZM249.5,-1.9Q251.9,-1.9,251.9,0.5Q251.9,2.9,249.5,2.9Q247.1,2.9,247.1,0.5Q247.1,-1.9,249.5,-1.9Z" fill-rule="evenodd" fill="#EFEFEF" fill-opacity="1"/></g></svg>