<svg xmlns="http://www.w3.org/2000/svg" xmlns:xlink="http://www.w3.org/1999/xlink" fill="none" version="1.1" width="45" height="50.99969482421875" viewBox="0 0 45 50.99969482421875"><defs><filter id="master_svg0_2_044334" filterUnits="objectBoundingBox" color-interpolation-filters="sRGB" x="-0.2777777777777778" y="-0.2222222222222222" width="1.5555555555555556" height="1.5555555555555556"><feFlood flood-opacity="0" result="BackgroundImageFix"/><feColorMatrix in="SourceAlpha" type="matrix" values="0 0 0 0 0 0 0 0 0 0 0 0 0 0 0 0 0 0 127 0"/><feOffset dy="2" dx="0"/><feGaussianBlur stdDeviation="2.5"/><feColorMatrix type="matrix" values="0 0 0 0 0 0 0 0 0 0 0 0 0 0 0 0 0 0 0.20000000298023224 0"/><feBlend mode="normal" in2="BackgroundImageFix" result="effect1_dropShadow"/><feBlend mode="normal" in="SourceGraphic" in2="effect1_dropShadow" result="shape"/></filter></defs><g transform="matrix(-1,-1.3955525446363026e-7,1.3955525446363026e-7,1,80.99999923248018,0.000005651987805777026)" filter="url(#master_svg0_2_044334)"><g><path d="M58.5,5.5C62.478300000000004,5.5,66.2935,7.08036,69.1067,9.89339C71.9196,12.70645,73.5,16.5218,73.5,20.5C73.43690000000001,23.3808,72.6486,26.1991,71.208,28.6945C69.87180000000001,31.0695,68.2353,33.2625,66.339,35.2195C64.2141,37.461600000000004,61.8664,39.4815,59.332499999999996,41.248C59.0862,41.4121,58.7967,41.4997,58.5007,41.4997C58.2047,41.4997,57.9153,41.4121,57.669,41.248C55.135,39.4815,52.787369999999996,37.461600000000004,50.6625,35.2195C48.76614,33.2625,47.12969,31.0695,45.7935,28.6945C44.352408,26.1993,43.5636048,23.3809,43.5,20.5C43.5,16.5218,45.08036,12.70645,47.89339,9.89339C50.706450000000004,7.08036,54.5218,5.500000000000003,58.5,5.5C58.5,5.5,58.5,5.5,58.5,5.5Z" fill="#141218" fill-opacity="1"/><path d="M58.5,5.5C62.478300000000004,5.5,66.2935,7.08036,69.1067,9.89339C71.9196,12.70645,73.5,16.5218,73.5,20.5C73.43690000000001,23.3808,72.6486,26.1991,71.208,28.6945C69.87180000000001,31.0695,68.2353,33.2625,66.339,35.2195C64.2141,37.461600000000004,61.8664,39.4815,59.332499999999996,41.248C59.0862,41.4121,58.7967,41.4997,58.5007,41.4997C58.2047,41.4997,57.9153,41.4121,57.669,41.248C55.135,39.4815,52.787369999999996,37.461600000000004,50.6625,35.2195C48.76614,33.2625,47.12969,31.0695,45.7935,28.6945C44.352408,26.1993,43.5636048,23.3809,43.5,20.5C43.5,16.5218,45.08036,12.70645,47.89339,9.89339C50.706450000000004,7.08036,54.5218,5.5,58.5,5.5ZM58.5,6.5Q52.70103,6.5,48.6005,10.6005Q44.5,14.70103,44.499756,20.477899999999998Q44.59105,24.6129,46.66503,28.2042Q48.61419,31.6686,51.38832,34.5316Q54.5136,37.8293,58.2234,40.4157Q58.3494,40.4997,58.5008,40.4997Q58.652100000000004,40.4997,58.7606,40.4277Q62.488,37.8291,65.6208,34.5236Q68.3874,31.6684,70.342,28.1945Q72.4096,24.613,72.5,20.5Q72.5,14.70112,68.39959999999999,10.60051Q64.2989,6.5,58.5,6.5Z" fill-rule="evenodd" fill="#FFFFFF" fill-opacity="1"/></g><g><ellipse cx="58.5" cy="20.499755859375" rx="4.5" ry="4.5" fill="#FFFFFF" fill-opacity="1"/></g></g></svg>