<svg xmlns="http://www.w3.org/2000/svg" xmlns:xlink="http://www.w3.org/1999/xlink" fill="none" version="1.1" width="21" height="20" viewBox="0 0 21 20"><defs><clipPath id="master_svg0_2_012330"><rect x="0" y="0" width="21" height="20" rx="0"/></clipPath></defs><g clip-path="url(#master_svg0_2_012330)"><g><path d="M14.4375,2.5C17.0957,2.5,19.25,4.58333,19.25,7.5C19.25,13.3333,12.6875,16.6667,10.5,17.9167C8.3125,16.6667,1.75,13.3333,1.75,7.5C1.75,4.58333,3.9375,2.5,6.5625,2.5C8.190000000000001,2.5,9.625,3.333333,10.5,4.16667C11.375,3.333333,12.81,2.5,14.4375,2.5ZM11.31725,15.5033C12.0881,15.04,12.7837,14.5792,13.4347,14.0858C16.043100000000003,12.11083,17.5,9.9525,17.5,7.5C17.5,5.533329999999999,16.155099999999997,4.16667,14.4375,4.16667C13.496,4.16667,12.4775,4.6416699999999995,11.73725,5.345000000000001L10.5,6.52333L9.26275,5.345000000000001C8.5225,4.6416699999999995,7.504,4.16667,6.5625,4.16667C4.865,4.16667,3.5,5.546670000000001,3.5,7.5C3.5,9.953330000000001,4.95775,12.11083,7.56437,14.0858C8.216249999999999,14.5792,8.91187,15.04,9.68275,15.5025C9.94437,15.66,10.20337,15.8108,10.5,15.9792C10.79662,15.8108,11.05562,15.66,11.31725,15.5033Z" fill="#907EFF" fill-opacity="1" style="mix-blend-mode:passthrough"/></g></g></svg>