<svg xmlns="http://www.w3.org/2000/svg" xmlns:xlink="http://www.w3.org/1999/xlink" fill="none" version="1.1" width="32" height="32" viewBox="0 0 32 32"><defs><clipPath id="master_svg0_2_97782"><rect x="0" y="0" width="32" height="32" rx="0"/></clipPath></defs><g clip-path="url(#master_svg0_2_97782)"><g style="opacity:0.699999988079071;"><path d="M13.333333969116211,10.666666984558105L13.333333969116211,18.666666984558105L19.600003969116212,22.533366984558107L20.66666396911621,20.933366984558106L15.333333969116211,17.733336984558107L15.333333969116211,10.666666984558105L13.333333969116211,10.666666984558105Z" fill="#6A54EE" fill-opacity="1" style="mix-blend-mode:passthrough"/></g><g style="opacity:0.699999988079071;"><path d="M23.893366746139527,16.00003349227905C24.747866746139525,21.635133492279053,20.366066746139527,26.700833492279052,14.666666746139526,26.666633492279054C9.466666746139527,26.666633492279054,5.333336746139526,22.533333492279052,5.333336746139526,17.333333492279053C5.333336746139526,12.133333492279053,9.466666746139527,8.000003492279053,14.666666746139526,8.000003492279053C15.599966746139525,8.000003492279053,16.49336674613953,8.133333492279053,17.333366746139525,8.386663492279052L17.333366746139525,5.640000492279053C16.479966746139525,5.440000492279053,15.586666746139526,5.333333492279053,14.666666746139526,5.333333492279053C7.9999967461395265,5.333333492279053,2.6666667461395264,10.666663492279053,2.6666667461395264,17.333333492279053C2.6666667461395264,24.00003349227905,7.9999967461395265,29.333333492279053,14.666666746139526,29.333333492279053C21.834566746139526,29.363133492279054,27.416066746139528,23.119833492279053,26.586666746139528,16.00003349227905L23.893366746139527,16.00003349227905Z" fill="#6A54EE" fill-opacity="1" style="mix-blend-mode:passthrough"/></g><g style="opacity:0.699999988079071;"><path d="M26.66667,6.666666746139526L26.66667,2.6666667461395264L24,2.6666667461395264L24,6.666666746139526L20,6.666666746139526L20,9.333336746139526L24,9.333336746139526L24,13.333366746139527L26.66667,13.333366746139527L26.66667,9.333336746139526L30.6667,9.333336746139526L30.6667,6.666666746139526L26.66667,6.666666746139526Z" fill="#6A54EE" fill-opacity="1" style="mix-blend-mode:passthrough"/></g></g></svg>