<svg xmlns="http://www.w3.org/2000/svg" xmlns:xlink="http://www.w3.org/1999/xlink" fill="none" version="1.1" width="25" height="25" viewBox="0 0 25 25"><defs><clipPath id="master_svg0_171_15672"><rect x="0" y="0" width="25" height="25" rx="0"/></clipPath></defs><g clip-path="url(#master_svg0_171_15672)"><g><path d="M10,7L10,10L7,10L7,7L10,7ZM11.5,5.5L5.5,5.5L5.5,11.5L11.5,11.5L11.5,5.5ZM10,15L10,18L7,18L7,15L10,15ZM11.5,13.5L5.5,13.5L5.5,19.5L11.5,19.5L11.5,13.5ZM18,7L18,10L15,10L15,7L18,7ZM19.5,5.5L13.5,5.5L13.5,11.5L19.5,11.5L19.5,5.5ZM13.5,13.5L15,13.5L15,15L13.5,15L13.5,13.5ZM15,15L16.5,15L16.5,16.5L15,16.5L15,15ZM16.5,13.5L18,13.5L18,15L16.5,15L16.5,13.5ZM13.5,16.5L15,16.5L15,18L13.5,18L13.5,16.5ZM15,18L16.5,18L16.5,19.5L15,19.5L15,18ZM16.5,16.5L18,16.5L18,18L16.5,18L16.5,16.5ZM18,15L19.5,15L19.5,16.5L18,16.5L18,15ZM18,18L19.5,18L19.5,19.5L18,19.5L18,18ZM22.5,7.5L20.5,7.5L20.5,4.5L17.5,4.5L17.5,2.5L22.5,2.5L22.5,7.5ZM22.5,22.5L22.5,17.5L20.5,17.5L20.5,20.5L17.5,20.5L17.5,22.5L22.5,22.5ZM2.5,22.5L7.5,22.5L7.5,20.5L4.5,20.5L4.5,17.5L2.5,17.5L2.5,22.5ZM2.5,2.5L2.5,7.5L4.5,7.5L4.5,4.5L7.5,4.5L7.5,2.5L2.5,2.5Z" fill="#656565" fill-opacity="1" style="mix-blend-mode:passthrough"/></g><rect x="0.5" y="0.5" width="24" height="24" rx="0" fill-opacity="0" stroke-opacity="1" stroke="#656565" fill="none" stroke-width="1"/></g></svg>