<svg xmlns="http://www.w3.org/2000/svg" xmlns:xlink="http://www.w3.org/1999/xlink" fill="none" version="1.1" width="24" height="24" viewBox="0 0 24 24"><g><g><path d="M15,11.5C15,13.16,13.66,14.5,12,14.5C10.34,14.5,9,13.16,9,11.5C9,11.5,9,5.5,9,5.5C9,3.84,10.34,2.5,12,2.5C13.66,2.5,15,3.84,15,5.5C15,5.5,15,11.5,15,11.5ZM12,16.5C14.76,16.5,17,14.26,17,11.5C17,11.5,19,11.5,19,11.5C19,15.03,16.39,17.93,13,18.42C13,18.42,13,21.5,13,21.5C13,21.5,11,21.5,11,21.5C11,21.5,11,18.42,11,18.42C7.609999999999999,17.93,5,15.03,5,11.5C5,11.5,7,11.5,7,11.5C7,14.26,9.24,16.5,12,16.5Z" fill-rule="evenodd" fill="#E6E0E9" fill-opacity="1"/></g></g></svg>