<svg xmlns="http://www.w3.org/2000/svg" xmlns:xlink="http://www.w3.org/1999/xlink" fill="none" version="1.1" width="20" height="20" viewBox="0 0 20 20"><defs><clipPath id="master_svg0_2_073346"><rect x="0" y="0" width="20" height="20" rx="0"/></clipPath></defs><g clip-path="url(#master_svg0_2_073346)"><g><path d="M13.5402925,16.33335701171875L14.6438425,17.436907011718752Q14.6786625,17.471727011718748,14.7196125,17.49908701171875Q14.7605525,17.52644701171875,14.8060525,17.54528701171875Q14.8515525,17.56413701171875,14.8998525,17.57374701171875Q14.948152499999999,17.58335701171875,14.9973925,17.58335701171875Q15.0466425,17.58335701171875,15.0949425,17.57374701171875Q15.1432425,17.56413701171875,15.1887325,17.54528701171875Q15.234232500000001,17.52644701171875,15.2751825,17.49908701171875Q15.316122499999999,17.471727011718748,15.3509525,17.436907011718752L16.4545025,16.33335701171875L18.3307325,16.33335701171875Q18.3799725,16.33335701171875,18.4282725,16.32374701171875Q18.4765725,16.31413701171875,18.5220725,16.29528701171875Q18.5675625,16.27644701171875,18.6085125,16.24908701171875Q18.6494625,16.221727011718748,18.684282500000002,16.186907011718752Q18.719102499999998,16.15208701171875,18.7464625,16.11113701171875Q18.7738225,16.07018701171875,18.7926625,16.02469701171875Q18.8115125,15.97919701171875,18.8211225,15.93089701171875Q18.8307325,15.882597011718751,18.8307325,15.83335701171875L18.8307325,9.16668701171875Q18.8307325,9.11744131171875,18.8211225,9.06914191171875Q18.8115125,9.02084201171875,18.7926625,8.97534501171875Q18.7738225,8.92984801171875,18.7464625,8.88890201171875Q18.719102499999998,8.84795601171875,18.684282500000002,8.81313401171875Q18.6494625,8.77831201171875,18.6085125,8.75095201171875Q18.5675625,8.72359301171875,18.5220725,8.70474701171875Q18.4765725,8.685902011718749,18.4282725,8.67629401171875Q18.3799725,8.66668701171875,18.3307325,8.66668701171875L14.9973925,8.66668701171875Q14.948152499999999,8.66668701171875,14.8998525,8.67629401171875Q14.8515525,8.685902011718749,14.8060525,8.70474701171875Q14.7605525,8.72359301171875,14.7196125,8.75095201171875Q14.6786625,8.77831201171875,14.6438425,8.81313401171875Q14.6090225,8.84795601171875,14.5816625,8.88890201171875Q14.5543025,8.92984801171875,14.5354525,8.97534501171875Q14.5166125,9.02084201171875,14.507002499999999,9.06914191171875Q14.4973925,9.11744131171875,14.4973925,9.16668701171875L14.4973925,12.00001701171875L9.1640625,12.00001701171875Q9.1148168,12.00001701171875,9.0665174,12.00962701171875Q9.0182175,12.01923701171875,8.9727205,12.03807701171875Q8.9272235,12.05692701171875,8.8862775,12.08428701171875Q8.8453315,12.11164701171875,8.8105095,12.14646701171875Q8.7756875,12.18128701171875,8.7483275,12.22223701171875Q8.7209685,12.26317701171875,8.7021225,12.30867701171875Q8.683277499999999,12.35417701171875,8.6736695,12.40247701171875Q8.6640625,12.450777011718749,8.6640625,12.50001701171875L8.6640625,15.83335701171875Q8.6640625,15.882597011718751,8.6736695,15.93089701171875Q8.683277499999999,15.97919701171875,8.7021225,16.02469701171875Q8.7209685,16.07018701171875,8.7483275,16.11113701171875Q8.7756875,16.15208701171875,8.8105095,16.186907011718752Q8.8453315,16.221727011718748,8.8862775,16.24908701171875Q8.9272235,16.27644701171875,8.9727205,16.29528701171875Q9.0182175,16.31413701171875,9.0665174,16.32374701171875Q9.1148168,16.33335701171875,9.1640625,16.33335701171875L13.5402925,16.33335701171875ZM14.9973925,16.37624701171875L15.8938425,15.47979701171875Q15.9641725,15.40947701171875,16.0560525,15.37141701171875Q16.1479425,15.33335701171875,16.2473925,15.33335701171875L17.8307325,15.33335701171875L17.8307325,9.66668701171875L15.4973925,9.66668701171875L15.4973925,12.50001701171875Q15.4973925,12.54926701171875,15.487792500000001,12.59756701171875Q15.478182499999999,12.64586701171875,15.4593325,12.69135701171875Q15.440492500000001,12.736857011718751,15.4131325,12.77780701171875Q15.3857725,12.81874701171875,15.3509525,12.85357701171875Q15.316122499999999,12.88839701171875,15.2751825,12.91575701171875Q15.234232500000001,12.94311701171875,15.1887325,12.96195701171875Q15.1432425,12.980807011718749,15.0949425,12.99041701171875Q15.0466425,13.00001701171875,14.9973925,13.00001701171875L9.6640625,13.00001701171875L9.6640625,15.33335701171875L13.7473925,15.33335701171875Q13.8468525,15.33335701171875,13.9387325,15.37141701171875Q14.0306225,15.40947701171875,14.1009525,15.47979701171875L14.9973925,16.37624701171875Z" fill-rule="evenodd" fill="#292929" fill-opacity="1"/></g><g><path d="M1.1640625,2.5L1.1640625,12.5Q1.1640625,12.5492,1.1736695,12.5975Q1.1832775,12.6458,1.2021225,12.6913Q1.2209685000000001,12.7368,1.2483275,12.7778Q1.2756875,12.8187,1.3105095,12.8536Q1.3453315,12.8884,1.3862775,12.9157Q1.4272235,12.9431,1.4727204999999999,12.9619Q1.5182175,12.9808,1.5665174,12.9904Q1.6148168,13,1.6640625,13L3.5402925,13L5.0605125,14.5202Q5.1308325,14.5905,5.2227225,14.6286Q5.3146024999999995,14.6667,5.4140625,14.6667Q5.5135225000000005,14.6667,5.6054025,14.6286Q5.6972925,14.5905,5.7676125,14.5202L7.2878325,13L14.9973625,13Q15.0466625,13,15.0949625,12.9904Q15.1432625,12.9808,15.1887625,12.9619Q15.2342625,12.9431,15.2751625,12.9157Q15.3161625,12.8884,15.3509625,12.8536Q15.3857625,12.8187,15.4131625,12.7778Q15.4404625,12.7368,15.4593625,12.6913Q15.4781625,12.6458,15.4877625,12.5975Q15.4973625,12.5492,15.4973625,12.5L15.4973625,2.5Q15.4973625,2.4507543,15.4877625,2.4024549Q15.4781625,2.354155,15.4593625,2.308658Q15.4404625,2.263161,15.4131625,2.222215Q15.3857625,2.181269,15.3509625,2.146447Q15.3161625,2.111625,15.2751625,2.084265Q15.2342625,2.056906,15.1887625,2.0380599999999998Q15.1432625,2.019215,15.0949625,2.009607Q15.0466625,2,14.9973625,2L1.6640625,2Q1.6148168,2,1.5665174,2.009607Q1.5182175,2.019215,1.4727204999999999,2.0380599999999998Q1.4272235,2.056906,1.3862775,2.084265Q1.3453315,2.111625,1.3105095,2.146447Q1.2756875,2.181269,1.2483275,2.222215Q1.2209685000000001,2.263161,1.2021225,2.308658Q1.1832775,2.354155,1.1736695,2.4024549Q1.1640625,2.4507543,1.1640625,2.5ZM2.1640625,12L3.7473925,12Q3.8468525,12,3.9387325,12.03806Q4.0306225,12.07612,4.1009525,12.14645L5.4140625,13.4596L6.7271725,12.14645Q6.7975025,12.07612,6.8893825,12.03806Q6.9812725,12,7.0807325,12L14.4973625,12L14.4973625,3L2.1640625,3L2.1640625,12Z" fill-rule="evenodd" fill="#292929" fill-opacity="1"/></g><g><path d="M7.9140625,7Q7.8648168,7,7.8165174,7.009607Q7.7682175,7.019215,7.7227205,7.03806Q7.6772235,7.056906,7.6362775,7.084265Q7.5953315,7.111625,7.5605095,7.146447Q7.5256875,7.181269,7.4983275,7.222215Q7.4709685,7.263161,7.4521225,7.308658Q7.4332775,7.354155,7.4236695,7.4024549Q7.4140625,7.4507543,7.4140625,7.5Q7.4140625,7.5492457,7.4236695,7.5975451Q7.4332775,7.645845,7.4521225,7.691342Q7.4709685,7.736839,7.4983275,7.777785Q7.5256875,7.818731,7.5605095,7.853553Q7.5953315,7.888375,7.6362775,7.915735Q7.6772235,7.943094,7.7227205,7.96194Q7.7682175,7.980785,7.8165174,7.990393Q7.8648168,8,7.9140625,8L8.3307295,8Q8.3799745,8,8.4282745,7.990393Q8.4765735,7.980785,8.5220705,7.96194Q8.5675675,7.943094,8.6085145,7.915735Q8.6494605,7.888375,8.6842825,7.853553Q8.7191045,7.818731,8.7464635,7.777785Q8.7738235,7.736839,8.7926685,7.691342Q8.8115145,7.645845,8.8211215,7.5975451Q8.8307295,7.5492457,8.8307295,7.5Q8.8307295,7.4507543,8.8211215,7.4024549Q8.8115145,7.354155,8.7926685,7.308658Q8.7738235,7.263161,8.7464635,7.222215Q8.7191045,7.181269,8.6842825,7.146447Q8.6494605,7.111625,8.6085145,7.084265Q8.5675675,7.056906,8.5220705,7.03806Q8.4765735,7.019215,8.4282745,7.009607Q8.3799745,7,8.3307295,7L7.9140625,7Z" fill-rule="evenodd" fill="#292929" fill-opacity="1"/></g><g><path d="M10.8359375,7Q10.7866918,7,10.7383924,7.009607Q10.6900925,7.019215,10.6445955,7.03806Q10.5990985,7.056906,10.5581525,7.084265Q10.5172065,7.111625,10.4823845,7.146447Q10.4475625,7.181269,10.4202025,7.222215Q10.3928435,7.263161,10.3739975,7.308658Q10.355152499999999,7.354155,10.3455445,7.4024549Q10.3359375,7.4507543,10.3359375,7.5Q10.3359375,7.5492457,10.3455445,7.5975451Q10.355152499999999,7.645845,10.3739975,7.691342Q10.3928435,7.736839,10.4202025,7.777785Q10.4475625,7.818731,10.4823845,7.853553Q10.5172065,7.888375,10.5581525,7.915735Q10.5990985,7.943094,10.6445955,7.96194Q10.6900925,7.980785,10.7383924,7.990393Q10.7866918,8,10.8359375,8L11.2526045,8Q11.3018495,8,11.3501495,7.990393Q11.3984485,7.980785,11.4439455,7.96194Q11.4894425,7.943094,11.5303895,7.915735Q11.5713355,7.888375,11.6061575,7.853553Q11.6409795,7.818731,11.6683385,7.777785Q11.6956985,7.736839,11.7145435,7.691342Q11.7333895,7.645845,11.7429965,7.5975451Q11.7526045,7.5492457,11.7526045,7.5Q11.7526045,7.4507543,11.7429965,7.4024549Q11.7333895,7.354155,11.7145435,7.308658Q11.6956985,7.263161,11.6683385,7.222215Q11.6409795,7.181269,11.6061575,7.146447Q11.5713355,7.111625,11.5303895,7.084265Q11.4894425,7.056906,11.4439455,7.03806Q11.3984485,7.019215,11.3501495,7.009607Q11.3018495,7,11.2526045,7L10.8359375,7Z" fill-rule="evenodd" fill="#292929" fill-opacity="1"/></g><g><path d="M5,7Q4.9507543,7,4.9024549,7.009607Q4.854155,7.019215,4.808658,7.03806Q4.763161,7.056906,4.722215,7.084265Q4.681269,7.111625,4.646447,7.146447Q4.611625,7.181269,4.584265,7.222215Q4.556906,7.263161,4.53806,7.308658Q4.519215,7.354155,4.509607,7.4024549Q4.5,7.4507543,4.5,7.5Q4.5,7.5492457,4.509607,7.5975451Q4.519215,7.645845,4.53806,7.691342Q4.556906,7.736839,4.584265,7.777785Q4.611625,7.818731,4.646447,7.853553Q4.681269,7.888375,4.722215,7.915735Q4.763161,7.943094,4.808658,7.96194Q4.854155,7.980785,4.9024549,7.990393Q4.9507543,8,5,8L5.416667,8Q5.465912,8,5.514212,7.990393Q5.562511,7.980785,5.608008,7.96194Q5.653505,7.943094,5.694452,7.915735Q5.735398,7.888375,5.77022,7.853553Q5.805042,7.818731,5.832401,7.777785Q5.859761,7.736839,5.8786059999999996,7.691342Q5.897452,7.645845,5.907059,7.5975451Q5.916667,7.5492457,5.916667,7.5Q5.916667,7.4507543,5.907059,7.4024549Q5.897452,7.354155,5.8786059999999996,7.308658Q5.859761,7.263161,5.832401,7.222215Q5.805042,7.181269,5.77022,7.146447Q5.735398,7.111625,5.694452,7.084265Q5.653505,7.056906,5.608008,7.03806Q5.562511,7.019215,5.514212,7.009607Q5.465912,7,5.416667,7L5,7Z" fill-rule="evenodd" fill="#292929" fill-opacity="1"/></g></g></svg>