<svg xmlns="http://www.w3.org/2000/svg" xmlns:xlink="http://www.w3.org/1999/xlink" fill="none" version="1.1" width="24" height="24" viewBox="0 0 24 24"><g><g><path d="M11.1429,7C11.1429,7,13.7143,7,13.7143,7C13.7143,7,13.7143,17.2857,13.7143,17.2857C13.7143,17.2857,11.1429,17.2857,11.1429,17.2857C11.1429,17.2857,11.1429,7,11.1429,7ZM6.85714,7C6.85714,7,1.71429,7,1.71429,7C0.685714,7,0,7.857143,0,8.71429C0,8.71429,0,15.57143,0,15.57143C0,16.42857,0.685714,17.2857,1.71429,17.2857C1.71429,17.2857,6.85714,17.2857,6.85714,17.2857C7.88571,17.2857,8.57143,16.42857,8.57143,15.57143C8.57143,15.57143,8.57143,12.142859999999999,8.57143,12.142859999999999C8.57143,12.142859999999999,6,12.142859999999999,6,12.142859999999999C6,12.142859999999999,6,14.71429,6,14.71429C6,14.71429,2.57143,14.71429,2.57143,14.71429C2.57143,14.71429,2.57143,9.57143,2.57143,9.57143C2.57143,9.57143,8.57143,9.57143,8.57143,9.57143C8.57143,9.57143,8.57143,8.71429,8.57143,8.71429C8.57143,7.857143,7.88571,7,6.85714,7ZM24,9.57143C24,9.57143,24,7,24,7C24,7,16.2857,7,16.2857,7C16.2857,7,16.2857,17.2857,16.2857,17.2857C16.2857,17.2857,18.8571,17.2857,18.8571,17.2857C18.8571,17.2857,18.8571,13.857140000000001,18.8571,13.857140000000001C18.8571,13.857140000000001,22.2857,13.857140000000001,22.2857,13.857140000000001C22.2857,13.857140000000001,22.2857,11.28571,22.2857,11.28571C22.2857,11.28571,18.8571,11.28571,18.8571,11.28571C18.8571,11.28571,18.8571,9.57143,18.8571,9.57143C18.8571,9.57143,24,9.57143,24,9.57143Z" fill="#E6E0E9" fill-opacity="1"/></g></g></svg>