<svg xmlns="http://www.w3.org/2000/svg" xmlns:xlink="http://www.w3.org/1999/xlink" fill="none" version="1.1" width="24" height="24" viewBox="0 0 24 24"><defs><clipPath id="master_svg0_135_18871/135_18136"><rect x="0" y="0" width="24" height="24" rx="0"/></clipPath></defs><g clip-path="url(#master_svg0_135_18871/135_18136)"><g><path d="M19.6,5.35C19.6,5.35,10.936,5.35,10.936,5.35C10.936,5.35,10.1,2.5,10.1,2.5C10.1,2.5,4.4,2.5,4.4,2.5C3.355,2.5,2.5,3.355,2.5,4.4C2.5,4.4,2.5,16.75,2.5,16.75C2.5,17.795,3.355,18.65,4.4,18.65C4.4,18.65,11.05,18.65,11.05,18.65C11.05,18.65,12,21.5,12,21.5C12,21.5,19.6,21.5,19.6,21.5C20.645,21.5,21.5,20.645,21.5,19.6C21.5,19.6,21.5,7.25,21.5,7.25C21.5,6.205,20.645,5.35,19.6,5.35ZM7.4115,14.4605C5.274,14.4605,3.526,12.722,3.526,10.575C3.526,8.428,5.2645,6.6895,7.4115,6.6895C8.3995,6.6895,9.302,7.041,10.0145,7.706C10.0145,7.706,10.081,7.763,10.081,7.763C10.081,7.763,8.9125,8.884,8.9125,8.884C8.9125,8.884,8.8555,8.836500000000001,8.8555,8.836500000000001C8.58,8.58,8.1145,8.276,7.4115,8.276C6.167,8.276,5.1505,9.311499999999999,5.1505,10.575C5.1505,11.8385,6.167,12.874,7.4115,12.874C8.713000000000001,12.874,9.2735,12.0475,9.4255,11.487C9.4255,11.487,7.326,11.487,7.326,11.487C7.326,11.487,7.326,10.0145,7.326,10.0145C7.326,10.0145,11.0785,10.0145,11.0785,10.0145C11.0785,10.0145,11.088,10.081,11.088,10.081C11.126,10.2805,11.1355,10.461,11.1355,10.6605C11.1355,12.893,9.606,14.4605,7.4115,14.4605C7.4115,14.4605,7.4115,14.4605,7.4115,14.4605ZM13.14,12.836C13.4535,13.406,13.843,13.957,14.2705,14.451C14.2705,14.451,13.7575,14.9545,13.7575,14.9545C13.7575,14.9545,13.14,12.836,13.14,12.836C13.14,12.836,13.14,12.836,13.14,12.836ZM13.8715,12.114C13.8715,12.114,12.931,12.114,12.931,12.114C12.931,12.114,12.6365,11.126,12.6365,11.126C12.6365,11.126,16.427,11.126,16.427,11.126C16.427,11.126,16.104,12.3705,14.945,13.729C14.451,13.14,14.0995,12.5605,13.8715,12.114C13.8715,12.114,13.8715,12.114,13.8715,12.114ZM20.55,19.6C20.55,20.1225,20.1225,20.55,19.6,20.55C19.6,20.55,12.95,20.55,12.95,20.55C12.95,20.55,14.85,18.65,14.85,18.65C14.85,18.65,14.0805,16.0185,14.0805,16.0185C14.0805,16.0185,14.9545,15.1445,14.9545,15.1445C14.9545,15.1445,17.500500000000002,17.7,17.500500000000002,17.7C17.500500000000002,17.7,18.194000000000003,17.006500000000003,18.194000000000003,17.006500000000003C18.194000000000003,17.006500000000003,15.6195,14.4605,15.6195,14.4605C16.4745,13.482,17.139499999999998,12.323,17.4435,11.126C17.4435,11.126,18.65,11.126,18.65,11.126C18.65,11.126,18.65,10.138,18.65,10.138C18.65,10.138,15.192,10.138,15.192,10.138C15.192,10.138,15.192,9.15,15.192,9.15C15.192,9.15,14.204,9.15,14.204,9.15C14.204,9.15,14.204,10.138,14.204,10.138C14.204,10.138,12.342,10.138,12.342,10.138C12.342,10.138,11.221,6.3,11.221,6.3C11.221,6.3,19.6,6.3,19.6,6.3C20.1225,6.3,20.55,6.7275,20.55,7.25C20.55,7.25,20.55,19.6,20.55,19.6Z" fill="#E6E0E9" fill-opacity="1"/></g></g></svg>