<svg xmlns="http://www.w3.org/2000/svg" xmlns:xlink="http://www.w3.org/1999/xlink" fill="none" version="1.1" width="20" height="20" viewBox="0 0 20 20"><defs><clipPath id="master_svg0_2_073337"><rect x="0" y="0" width="20" height="20" rx="0"/></clipPath></defs><g clip-path="url(#master_svg0_2_073337)"><g><rect x="4.5859375" y="1.66668701171875" width="10.833333015441895" height="16.66666603088379" rx="3" fill-opacity="0" stroke-opacity="1" stroke="#292929" fill="none" stroke-width="1"/></g><g><path d="M9.1640625,3.66668701171875L10.8307325,3.66668701171875Q10.879972500000001,3.66668701171875,10.9282725,3.67629401171875Q10.9765725,3.68590201171875,11.0220725,3.7047470117187498Q11.0675725,3.72359301171875,11.1085125,3.75095201171875Q11.1494625,3.77831201171875,11.1842825,3.81313401171875Q11.2191025,3.84795601171875,11.2464625,3.88890201171875Q11.2738225,3.92984801171875,11.2926725,3.97534501171875Q11.3115125,4.02084201171875,11.3211225,4.06914191171875Q11.3307325,4.11744131171875,11.3307325,4.16668701171875Q11.3307325,4.21593271171875,11.3211225,4.26423211171875Q11.3115125,4.31253201171875,11.2926725,4.35802901171875Q11.2738225,4.40352601171875,11.2464625,4.44447201171875Q11.2191025,4.48541801171875,11.1842825,4.52024001171875Q11.1494625,4.55506201171875,11.1085125,4.58242201171875Q11.0675725,4.60978101171875,11.0220725,4.62862701171875Q10.9765725,4.64747201171875,10.9282725,4.65708001171875Q10.879972500000001,4.66668701171875,10.8307325,4.66668701171875L9.1640625,4.66668701171875Q9.1148168,4.66668701171875,9.0665174,4.65708001171875Q9.0182175,4.64747201171875,8.9727205,4.62862701171875Q8.9272235,4.60978101171875,8.8862775,4.58242201171875Q8.8453315,4.55506201171875,8.8105095,4.52024001171875Q8.7756875,4.48541801171875,8.7483275,4.44447201171875Q8.7209685,4.40352601171875,8.7021225,4.35802901171875Q8.683277499999999,4.31253201171875,8.6736695,4.26423211171875Q8.6640625,4.21593271171875,8.6640625,4.16668701171875Q8.6640625,4.11744131171875,8.6736695,4.06914191171875Q8.683277499999999,4.02084201171875,8.7021225,3.97534501171875Q8.7209685,3.92984801171875,8.7483275,3.88890201171875Q8.7756875,3.84795601171875,8.8105095,3.81313401171875Q8.8453315,3.77831201171875,8.8862775,3.75095201171875Q8.9272235,3.72359301171875,8.9727205,3.7047470117187498Q9.0182175,3.68590201171875,9.0665174,3.67629401171875Q9.1148168,3.66668701171875,9.1640625,3.66668701171875Z" fill-rule="evenodd" fill="#292929" fill-opacity="1"/></g><g><path d="M8.3359375,15.33331298828125L11.6692675,15.33331298828125Q11.7185175,15.33331298828125,11.7668175,15.34291998828125Q11.8151175,15.352527988281249,11.8606075,15.37137298828125Q11.906107500000001,15.39021898828125,11.9470575,15.41757798828125Q11.9879975,15.44493798828125,12.0228275,15.47975998828125Q12.0576475,15.51458198828125,12.0850075,15.55552798828125Q12.1123675,15.59647398828125,12.1312075,15.64197098828125Q12.150057499999999,15.68746798828125,12.1596675,15.73576788828125Q12.1692675,15.78406728828125,12.1692675,15.83331298828125Q12.1692675,15.88255868828125,12.1596675,15.93085808828125Q12.150057499999999,15.97915798828125,12.1312075,16.02465498828125Q12.1123675,16.07015198828125,12.0850075,16.11109798828125Q12.0576475,16.15204398828125,12.0228275,16.18686598828125Q11.9879975,16.22168798828125,11.9470575,16.24904798828125Q11.906107500000001,16.27640698828125,11.8606075,16.29525298828125Q11.8151175,16.31409798828125,11.7668175,16.32370598828125Q11.7185175,16.33331298828125,11.6692675,16.33331298828125L8.3359375,16.33331298828125Q8.2866918,16.33331298828125,8.2383924,16.32370598828125Q8.1900925,16.31409798828125,8.1445955,16.29525298828125Q8.0990985,16.27640698828125,8.0581525,16.24904798828125Q8.0172065,16.22168798828125,7.9823845,16.18686598828125Q7.9475625,16.15204398828125,7.9202025,16.11109798828125Q7.8928435,16.07015198828125,7.8739975,16.02465498828125Q7.8551525,15.97915798828125,7.8455445,15.93085808828125Q7.8359375,15.88255868828125,7.8359375,15.83331298828125Q7.8359375,15.78406728828125,7.8455445,15.73576788828125Q7.8551525,15.68746798828125,7.8739975,15.64197098828125Q7.8928435,15.59647398828125,7.9202025,15.55552798828125Q7.9475625,15.51458198828125,7.9823845,15.47975998828125Q8.0172065,15.44493798828125,8.0581525,15.41757798828125Q8.0990985,15.39021898828125,8.1445955,15.37137298828125Q8.1900925,15.352527988281249,8.2383924,15.34291998828125Q8.2866918,15.33331298828125,8.3359375,15.33331298828125Z" fill-rule="evenodd" fill="#292929" fill-opacity="1"/></g></g></svg>