<svg xmlns="http://www.w3.org/2000/svg" xmlns:xlink="http://www.w3.org/1999/xlink" fill="none" version="1.1" width="20" height="20" viewBox="0 0 20 20"><defs><clipPath id="master_svg0_2_073327"><rect x="0" y="0" width="20" height="20" rx="0"/></clipPath></defs><g clip-path="url(#master_svg0_2_073327)"><g><path d="M1.1640625,3.75L1.1640625,16.25Q1.1640625,16.2992,1.1736695,16.3475Q1.1832775,16.3958,1.2021225,16.4413Q1.2209685000000001,16.486800000000002,1.2483275,16.5278Q1.2756875,16.5687,1.3105095,16.6036Q1.3453315,16.6384,1.3862775,16.6657Q1.4272235,16.6931,1.4727204999999999,16.7119Q1.5182175,16.730800000000002,1.5665174,16.7404Q1.6148168,16.75,1.6640625,16.75L18.3307625,16.75Q18.3799625,16.75,18.4282625,16.7404Q18.4765625,16.730800000000002,18.5220625,16.7119Q18.5675625,16.6931,18.6084625,16.6657Q18.6494625,16.6384,18.6842625,16.6036Q18.7190625,16.5687,18.7464625,16.5278Q18.7738625,16.486800000000002,18.7926625,16.4413Q18.8114625,16.3958,18.8211625,16.3475Q18.8307625,16.2992,18.8307625,16.25L18.8307625,3.75Q18.8307625,3.7007543,18.8211625,3.6524549Q18.8114625,3.604155,18.7926625,3.558658Q18.7738625,3.513161,18.7464625,3.472215Q18.7190625,3.431269,18.6842625,3.396447Q18.6494625,3.361625,18.6084625,3.334265Q18.5675625,3.306906,18.5220625,3.2880599999999998Q18.4765625,3.269215,18.4282625,3.259607Q18.3799625,3.25,18.3307625,3.25L1.6640625,3.25Q1.6148168,3.25,1.5665174,3.259607Q1.5182175,3.269215,1.4727204999999999,3.2880599999999998Q1.4272235,3.306906,1.3862775,3.334265Q1.3453315,3.361625,1.3105095,3.396447Q1.2756875,3.431269,1.2483275,3.472215Q1.2209685000000001,3.513161,1.2021225,3.558658Q1.1832775,3.604155,1.1736695,3.6524549Q1.1640625,3.7007543,1.1640625,3.75ZM2.1640625,15.75L2.1640625,4.25L17.8307625,4.25L17.8307625,15.75L2.1640625,15.75Z" fill-rule="evenodd" fill="#292929" fill-opacity="1"/></g><g><path d="M1.9640625,3.35L9.9973925,9.375L18.0307625,3.35Q18.1640625,3.25,18.3307625,3.25Q18.3799625,3.25,18.4282625,3.259607Q18.4765625,3.269215,18.5220625,3.2880599999999998Q18.5675625,3.306906,18.6084625,3.334265Q18.6494625,3.361625,18.6842625,3.396447Q18.7190625,3.431269,18.7464625,3.472215Q18.7738625,3.513161,18.7926625,3.558658Q18.8114625,3.604155,18.8211625,3.6524549Q18.8307625,3.7007543,18.8307625,3.75Q18.8307625,3.868034,18.7779625,3.973606Q18.7251625,4.079179,18.6307625,4.149999L10.2973925,10.4Q10.2324825,10.44868,10.1555125,10.47434Q10.0785325,10.5,9.9973925,10.5Q9.9162525,10.5,9.8392825,10.47434Q9.7623025,10.44868,9.6973925,10.4L1.3640625,4.15Q1.2696355,4.07918,1.2168485,3.973607Q1.1640625,3.868034,1.1640625,3.75Q1.1640625,3.7007543,1.1736695,3.6524549Q1.1832775,3.604155,1.2021225,3.558658Q1.2209685000000001,3.513161,1.2483275,3.472215Q1.2756875,3.431269,1.3105095,3.396447Q1.3453315,3.361625,1.3862775,3.334265Q1.4272235,3.306906,1.4727204999999999,3.2880599999999998Q1.5182175,3.269215,1.5665174,3.259607Q1.6148168,3.25,1.6640625,3.25Q1.8307295,3.25,1.9640625,3.35Z" fill-rule="evenodd" fill="#292929" fill-opacity="1"/></g><g><path d="M1.1640625,3.75L1.1640625,10Q1.1640625,10.04925,1.1736695,10.09755Q1.1832775,10.14584,1.2021225,10.19134Q1.2209685000000001,10.23684,1.2483275,10.27778Q1.2756875,10.31873,1.3105095,10.35355Q1.3453315,10.38837,1.3862775,10.41573Q1.4272235,10.44309,1.4727204999999999,10.46194Q1.5182175,10.48078,1.5665174,10.49039Q1.6148168,10.5,1.6640625,10.5Q1.7133082,10.5,1.7616076,10.49039Q1.8099075,10.48078,1.8554045000000001,10.46194Q1.9009015,10.44309,1.9418475,10.41573Q1.9827935,10.38837,2.0176155,10.35355Q2.0524375,10.31873,2.0797975,10.27778Q2.1071565,10.23684,2.1260025000000002,10.19134Q2.1448475,10.14584,2.1544555,10.09754Q2.1640625,10.04925,2.1640625,10L2.1640625,4.25L9.9973925,4.25Q10.0466425,4.25,10.0949425,4.240393Q10.1432425,4.230785,10.1887325,4.21194Q10.2342325,4.193094,10.2751825,4.165735Q10.3161225,4.138375,10.3509525,4.103553Q10.3857725,4.068731,10.4131325,4.027785Q10.4404925,3.986839,10.4593325,3.941342Q10.4781825,3.895845,10.4877825,3.8475451Q10.4973925,3.7992457,10.4973925,3.75Q10.4973925,3.7007543,10.4877825,3.6524549Q10.4781825,3.604155,10.4593325,3.558658Q10.4404925,3.513161,10.4131325,3.472215Q10.3857725,3.431269,10.3509525,3.396447Q10.3161225,3.361625,10.2751825,3.334265Q10.2342325,3.306906,10.1887325,3.2880599999999998Q10.1432425,3.269215,10.0949425,3.259607Q10.0466425,3.25,9.9973925,3.25L1.6640625,3.25Q1.6148168,3.25,1.5665174,3.259607Q1.5182175,3.269215,1.4727204999999999,3.2880599999999998Q1.4272235,3.306906,1.3862775,3.334265Q1.3453315,3.361625,1.3105095,3.396447Q1.2756875,3.431269,1.2483275,3.472215Q1.2209685000000001,3.513161,1.2021225,3.558658Q1.1832775,3.604155,1.1736695,3.6524549Q1.1640625,3.7007543,1.1640625,3.75Z" fill-rule="evenodd" fill="#292929" fill-opacity="1"/></g><g><path d="M10,3.25L18.33333,3.25Q18.38258,3.25,18.430880000000002,3.259607Q18.47918,3.269215,18.52467,3.2880599999999998Q18.570169999999997,3.306906,18.61112,3.334265Q18.65206,3.361625,18.68689,3.396447Q18.72171,3.431269,18.74907,3.472215Q18.776429999999998,3.513161,18.795270000000002,3.558658Q18.814120000000003,3.604155,18.82372,3.6524549Q18.83333,3.7007543,18.83333,3.75L18.83333,10Q18.83333,10.04925,18.82372,10.09755Q18.814120000000003,10.14584,18.795270000000002,10.19134Q18.776429999999998,10.23684,18.74907,10.27778Q18.72171,10.31873,18.68689,10.35355Q18.65206,10.38837,18.61112,10.41573Q18.570169999999997,10.44309,18.52467,10.46194Q18.47918,10.48078,18.430880000000002,10.49039Q18.38258,10.5,18.33333,10.5Q18.28409,10.5,18.23579,10.49039Q18.18749,10.48078,18.14199,10.46194Q18.09649,10.44309,18.05555,10.41573Q18.0146,10.38837,17.979779999999998,10.35355Q17.944960000000002,10.31873,17.9176,10.27778Q17.89024,10.23684,17.871389999999998,10.19134Q17.85255,10.14584,17.84294,10.09754Q17.83333,10.04925,17.83333,10L17.83333,4.25L10,4.25Q9.9507543,4.25,9.9024549,4.240393Q9.854155,4.230785,9.808658,4.21194Q9.763161,4.193094,9.722215,4.165735Q9.681269,4.138375,9.646447,4.103553Q9.611625,4.068731,9.584265,4.027785Q9.556906,3.986839,9.53806,3.941342Q9.519214999999999,3.895845,9.509607,3.8475451Q9.5,3.7992457,9.5,3.75Q9.5,3.7007543,9.509607,3.6524549Q9.519214999999999,3.604155,9.53806,3.558658Q9.556906,3.513161,9.584265,3.472215Q9.611625,3.431269,9.646447,3.396447Q9.681269,3.361625,9.722215,3.334265Q9.763161,3.306906,9.808658,3.2880599999999998Q9.854155,3.269215,9.9024549,3.259607Q9.9507543,3.25,10,3.25Z" fill-rule="evenodd" fill="#292929" fill-opacity="1"/></g></g></svg>