<svg xmlns="http://www.w3.org/2000/svg" xmlns:xlink="http://www.w3.org/1999/xlink" fill="none" version="1.1" width="6" height="96" viewBox="0 0 6 96"><g transform="matrix(0,1,-1,0,6,0)"><path d="M3,0L93,0Q93.1474,0,93.2941,0.014450000000000074Q93.4408,0.028890000000000082,93.5853,0.057640000000000136Q93.7299,0.08639999999999981,93.8709,0.12917999999999985Q94.0119,0.1719599999999999,94.1481,0.2283599999999999Q94.2842,0.2847599999999999,94.4142,0.3542399999999999Q94.5442,0.4237099999999998,94.6667,0.5055900000000002Q94.7893,0.5874700000000002,94.9032,0.6809699999999999Q95.0171,0.77447,95.1213,0.8786800000000001Q95.2256,0.9828899999999998,95.3191,1.09682Q95.4126,1.21075,95.4944,1.33329Q95.5763,1.45583,95.6458,1.58581Q95.7153,1.71579,95.7717,1.85195Q95.8281,1.98811,95.8708,2.129146Q95.9136,2.27018,95.9424,2.414729Q95.9711,2.559278,95.9856,2.705949Q96,2.852619,96,3Q96,3.147381,95.9856,3.294051Q95.9711,3.440722,95.9424,3.585271Q95.9136,3.72982,95.8708,3.870854Q95.8281,4.01189,95.7717,4.14805Q95.7153,4.28421,95.6458,4.41419Q95.5763,4.54417,95.4944,4.66671Q95.4126,4.78925,95.3191,4.90318Q95.2256,5.017110000000001,95.1213,5.12132Q95.0171,5.22553,94.9032,5.31903Q94.7893,5.41253,94.6667,5.49441Q94.5442,5.57629,94.4142,5.64576Q94.2842,5.71524,94.1481,5.77164Q94.0119,5.82804,93.8709,5.87082Q93.7299,5.913600000000001,93.5853,5.94236Q93.4408,5.9711099999999995,93.2941,5.98555Q93.1474,6,93,6L3,6Q2.852619,6,2.705949,5.98555Q2.559278,5.9711099999999995,2.414729,5.94236Q2.27018,5.913600000000001,2.129146,5.87082Q1.98811,5.82804,1.85195,5.77164Q1.71579,5.71524,1.58581,5.64576Q1.45583,5.57629,1.33329,5.49441Q1.21075,5.41253,1.09682,5.31903Q0.9828899999999998,5.22553,0.8786800000000001,5.12132Q0.77447,5.017110000000001,0.6809699999999999,4.90318Q0.5874700000000002,4.78925,0.5055900000000002,4.66671Q0.4237099999999998,4.54417,0.3542399999999999,4.41419Q0.2847599999999999,4.28421,0.2283599999999999,4.14805Q0.1719599999999999,4.01189,0.12917999999999985,3.870854Q0.08639999999999981,3.72982,0.057640000000000136,3.585271Q0.028890000000000082,3.440722,0.014450000000000074,3.294051Q0,3.147381,0,3Q0,2.852619,0.014450000000000074,2.705949Q0.028890000000000082,2.559278,0.057640000000000136,2.414729Q0.08639999999999981,2.27018,0.12917999999999985,2.129146Q0.1719599999999999,1.98811,0.2283599999999999,1.85195Q0.2847599999999999,1.71579,0.3542399999999999,1.58581Q0.4237099999999998,1.45583,0.5055900000000002,1.33329Q0.5874700000000002,1.21075,0.6809699999999999,1.09682Q0.77447,0.9828899999999998,0.8786800000000001,0.8786800000000001Q0.9828899999999998,0.77447,1.09682,0.6809699999999999Q1.21075,0.5874700000000002,1.33329,0.5055900000000002Q1.45583,0.4237099999999998,1.58581,0.3542399999999999Q1.71579,0.2847599999999999,1.85195,0.2283599999999999Q1.98811,0.1719599999999999,2.129146,0.12917999999999985Q2.27018,0.08639999999999981,2.414729,0.057640000000000136Q2.559278,0.028890000000000082,2.705949,0.014450000000000074Q2.852619,0,3,0Z" fill-rule="evenodd" fill="#907EFF" fill-opacity="1"/></g></svg>