<svg xmlns="http://www.w3.org/2000/svg" xmlns:xlink="http://www.w3.org/1999/xlink" fill="none" version="1.1" width="53.0000000058194" height="1.000000111040693" viewBox="0 0 53.0000000058194 1.000000111040693"><g transform="matrix(1,2.095107420885256e-9,-5.819390747063835e-9,1,2.9096953735319175e-9,-1.047553710442628e-9)"><path d="M52.5000000029097,3.900000001047553Q55.9000000029097,3.900000001047553,55.9000000029097,0.5000000010475532Q55.9000000029097,-2.8999999989524468,52.5000000029097,-2.8999999989524468Q49.359900002909704,-2.8999999989524468,49.1199000029097,1.0475531553311157e-9L0.5000000029097009,1.0475531553311157e-9L0.5000000029097009,1.0000000010475532L49.1199000029097,1.0000000010475532Q49.359900002909704,3.900000001047553,52.5000000029097,3.900000001047553ZM52.5000000029097,-1.8999999989524468Q54.9000000029097,-1.8999999989524468,54.9000000029097,0.5000000010475532Q54.9000000029097,1.494112001047553,54.1971000029097,2.197060001047553Q53.494100002909704,2.900000001047553,52.5000000029097,2.900000001047553Q50.1000000029097,2.900000001047553,50.1000000029097,0.5000000010475532Q50.1000000029097,-0.49411599895244684,50.8029000029097,-1.1970599989524469Q51.5059000029097,-1.8999999989524468,52.5000000029097,-1.8999999989524468Z" fill-rule="evenodd" fill="#907EFF" fill-opacity="1"/></g></svg>