<svg xmlns="http://www.w3.org/2000/svg" xmlns:xlink="http://www.w3.org/1999/xlink" fill="none" version="1.1" width="50" height="10" viewBox="0 0 50 10"><g><path d="M5,0L45,0Q45.1227,0,45.2453,0.006020000000000358Q45.3679,0.012050000000000338,45.4901,0.024079999999999657Q45.6122,0.036109999999999864,45.7337,0.05412000000000017Q45.8551,0.07212999999999958,45.9755,0.0960700000000001Q46.0958,0.12002000000000024,46.2149,0.1498400000000002Q46.334,0.17966999999999977,46.4514,0.21530000000000005Q46.5689,0.2509300000000003,46.6845,0.2922799999999999Q46.8,0.3336300000000003,46.9134,0.38060000000000027Q47.0268,0.4275700000000002,47.1378,0.4800500000000003Q47.2487,0.5325300000000004,47.357,0.5903900000000002Q47.4652,0.64825,47.5705,0.71136Q47.6758,0.7744600000000004,47.7778,0.8426499999999999Q47.8799,0.9108400000000003,47.9785,0.9839599999999997Q48.0771,1.05708,48.172,1.13495Q48.2668,1.2128199999999998,48.3578,1.2952400000000002Q48.4487,1.3776700000000002,48.5355,1.46447Q48.6223,1.55126,48.7048,1.64221Q48.7872,1.7331500000000002,48.8651,1.82803Q48.9429,1.92292,49.016,2.0215Q49.0892,2.12009,49.1573,2.22215Q49.2255,2.32421,49.2886,2.42949Q49.3517,2.53477,49.4096,2.64302Q49.4675,2.75127,49.5199,2.86222Q49.5724,2.97318,49.6194,3.08658Q49.6664,3.19998,49.7077,3.31555Q49.7491,3.43112,49.7847,3.5485800000000003Q49.8203,3.66603,49.8502,3.7851Q49.88,3.90416,49.9039,4.024549Q49.9279,4.144933,49.9459,4.266348Q49.9639,4.387762,49.9759,4.509914Q49.988,4.632066,49.994,4.754662Q50,4.877257,50,5Q50,5.122743,49.994,5.245338Q49.988,5.367934,49.9759,5.490086Q49.9639,5.612238,49.9459,5.733652Q49.9279,5.855067,49.9039,5.975451Q49.88,6.09584,49.8502,6.2149Q49.8203,6.33397,49.7847,6.45142Q49.7491,6.56888,49.7077,6.68445Q49.6664,6.80002,49.6194,6.91342Q49.5724,7.02682,49.5199,7.137779999999999Q49.4675,7.24873,49.4096,7.35698Q49.3517,7.46523,49.2886,7.5705100000000005Q49.2255,7.67579,49.1573,7.77785Q49.0892,7.879910000000001,49.016,7.9785Q48.9429,8.07708,48.8651,8.17197Q48.7872,8.26685,48.7048,8.35779Q48.6223,8.44874,48.5355,8.53553Q48.4487,8.62233,48.3578,8.70476Q48.2668,8.78718,48.172,8.86505Q48.0771,8.94292,47.9785,9.01604Q47.8799,9.08916,47.7778,9.157350000000001Q47.6758,9.225539999999999,47.5705,9.288640000000001Q47.4652,9.35175,47.357,9.40961Q47.2487,9.467469999999999,47.1378,9.51995Q47.0268,9.57243,46.9134,9.619399999999999Q46.8,9.66637,46.6844,9.70772Q46.5689,9.74907,46.4514,9.7847Q46.334,9.82033,46.2149,9.850159999999999Q46.0958,9.87998,45.9755,9.903929999999999Q45.8551,9.92787,45.7337,9.945879999999999Q45.6122,9.96389,45.4901,9.97592Q45.3679,9.98795,45.2453,9.99398Q45.1227,10,45,10L5,10Q4.877257,10,4.754662,9.99398Q4.632066,9.98795,4.509914,9.97592Q4.387762,9.96389,4.266348,9.945879999999999Q4.144933,9.92787,4.024549,9.903929999999999Q3.90416,9.87998,3.7851,9.850159999999999Q3.66603,9.82033,3.5485800000000003,9.7847Q3.43112,9.74907,3.31555,9.70772Q3.19998,9.66637,3.08658,9.619399999999999Q2.97318,9.57243,2.86222,9.51995Q2.75127,9.467469999999999,2.64302,9.40961Q2.53477,9.35175,2.42949,9.288640000000001Q2.32421,9.225539999999999,2.22215,9.157350000000001Q2.12009,9.08916,2.0215,9.01604Q1.92292,8.94292,1.82803,8.86505Q1.7331500000000002,8.78718,1.64221,8.70476Q1.55126,8.62233,1.46447,8.53553Q1.3776700000000002,8.44874,1.2952400000000002,8.35779Q1.2128199999999998,8.26685,1.13495,8.17197Q1.05708,8.07708,0.9839599999999997,7.9785Q0.9108400000000003,7.879910000000001,0.8426499999999999,7.77785Q0.7744600000000004,7.67579,0.71136,7.5705100000000005Q0.64825,7.46523,0.5903900000000002,7.35698Q0.5325300000000004,7.24873,0.4800500000000003,7.137779999999999Q0.4275700000000002,7.02682,0.38060000000000027,6.91342Q0.3336300000000003,6.80002,0.2922799999999999,6.68445Q0.2509300000000003,6.56888,0.21530000000000005,6.45142Q0.17966999999999977,6.33397,0.1498400000000002,6.2149Q0.12002000000000024,6.09584,0.0960700000000001,5.975451Q0.07212999999999958,5.855067,0.05412000000000017,5.733652Q0.036109999999999864,5.612238,0.024079999999999657,5.490086Q0.012050000000000338,5.367934,0.006020000000000358,5.245338Q0,5.122743,0,5Q0,4.877257,0.006020000000000358,4.754662Q0.012050000000000338,4.632066,0.024079999999999657,4.509914Q0.036109999999999864,4.387762,0.05412000000000017,4.266348Q0.07212999999999958,4.144933,0.0960700000000001,4.024549Q0.12002000000000024,3.90416,0.1498400000000002,3.7851Q0.17966999999999977,3.66603,0.21530000000000005,3.5485800000000003Q0.2509300000000003,3.43112,0.2922799999999999,3.31555Q0.3336300000000003,3.19998,0.38060000000000027,3.08658Q0.4275700000000002,2.97318,0.4800500000000003,2.86222Q0.5325300000000004,2.75127,0.5903900000000002,2.64302Q0.64825,2.53477,0.71136,2.42949Q0.7744600000000004,2.32421,0.8426499999999999,2.22215Q0.9108400000000003,2.12009,0.9839599999999997,2.0215Q1.05708,1.92292,1.13495,1.82803Q1.2128199999999998,1.7331500000000002,1.2952400000000002,1.64221Q1.3776700000000002,1.55126,1.46447,1.46447Q1.55126,1.3776700000000002,1.64221,1.2952400000000002Q1.7331500000000002,1.2128199999999998,1.82803,1.13495Q1.92292,1.05708,2.0215,0.9839599999999997Q2.12009,0.9108400000000003,2.22215,0.8426499999999999Q2.32421,0.7744600000000004,2.42949,0.71136Q2.53477,0.64825,2.64302,0.5903900000000002Q2.75127,0.5325300000000004,2.86222,0.4800500000000003Q2.97318,0.4275700000000002,3.08658,0.38060000000000027Q3.19998,0.3336300000000003,3.31555,0.2922799999999999Q3.43112,0.2509300000000003,3.5485800000000003,0.21530000000000005Q3.66603,0.17966999999999977,3.7851,0.1498400000000002Q3.90416,0.12002000000000024,4.024549,0.0960700000000001Q4.144933,0.07212999999999958,4.266348,0.05412000000000017Q4.387762,0.036109999999999864,4.509914,0.024079999999999657Q4.632066,0.012050000000000338,4.754662,0.006020000000000358Q4.877257,0,5,0Z" fill-rule="evenodd" fill="#907EFF" fill-opacity="1"/></g></svg>