<svg xmlns="http://www.w3.org/2000/svg" xmlns:xlink="http://www.w3.org/1999/xlink" fill="none" version="1.1" width="5" height="20" viewBox="0 0 5 20"><g transform="matrix(0,1,-1,0,5,0)"><path d="M2.5,0L17.5,0Q17.622799999999998,0,17.744999999999997,0.012039999999999829Q17.8673,0.0240800000000001,17.9877,0.04803999999999986Q18.1082,0.07200000000000006,18.2257,0.10765000000000002Q18.3432,0.14329999999999998,18.456699999999998,0.19030000000000014Q18.5702,0.23729999999999984,18.6785,0.2951999999999999Q18.7868,0.3530899999999999,18.8889,0.4213300000000002Q18.991,0.48956,19.086,0.5674699999999999Q19.1809,0.6453899999999999,19.2678,0.7322299999999999Q19.3546,0.81908,19.4325,0.91402Q19.5104,1.00896,19.5787,1.11107Q19.6469,1.21319,19.7048,1.32151Q19.7627,1.42982,19.8097,1.543292Q19.8567,1.65676,19.8923,1.7742879999999999Q19.928,1.891817,19.952,2.012274Q19.9759,2.132731,19.988,2.254957Q20,2.377183,20,2.5Q20,2.622817,19.988,2.745043Q19.9759,2.867269,19.952,2.987726Q19.928,3.108183,19.8923,3.225712Q19.8567,3.3432399999999998,19.8097,3.456708Q19.7627,3.5701799999999997,19.7048,3.67849Q19.6469,3.78681,19.5787,3.88893Q19.5104,3.99104,19.4325,4.08598Q19.3546,4.18092,19.2678,4.2677700000000005Q19.1809,4.35461,19.086,4.43253Q18.991,4.51044,18.8889,4.57867Q18.7868,4.64691,18.6785,4.7048000000000005Q18.5702,4.762700000000001,18.456699999999998,4.809699999999999Q18.3432,4.8567,18.2257,4.89235Q18.1082,4.928,17.9877,4.95196Q17.8673,4.97592,17.744999999999997,4.98796Q17.622799999999998,5,17.5,5L2.5,5Q2.377183,5,2.254957,4.98796Q2.132731,4.97592,2.012274,4.95196Q1.891817,4.928,1.7742879999999999,4.89235Q1.65676,4.8567,1.543292,4.809699999999999Q1.42982,4.762700000000001,1.32151,4.7048000000000005Q1.21319,4.64691,1.11107,4.57867Q1.00896,4.51044,0.91402,4.43253Q0.81908,4.35461,0.7322299999999999,4.2677700000000005Q0.6453899999999999,4.18092,0.5674699999999999,4.08598Q0.48956,3.99104,0.4213300000000002,3.88893Q0.3530899999999999,3.78681,0.2951999999999999,3.67849Q0.23729999999999984,3.5701799999999997,0.19030000000000014,3.456708Q0.14329999999999998,3.3432399999999998,0.10765000000000002,3.225712Q0.07200000000000006,3.108183,0.04803999999999986,2.987726Q0.0240800000000001,2.867269,0.012039999999999829,2.745043Q0,2.622817,0,2.5Q0,2.377183,0.012039999999999829,2.254957Q0.0240800000000001,2.132731,0.04803999999999986,2.012274Q0.07200000000000006,1.891817,0.10765000000000002,1.7742879999999999Q0.14329999999999998,1.65676,0.19030000000000014,1.543292Q0.23729999999999984,1.42982,0.2951999999999999,1.32151Q0.3530899999999999,1.21319,0.4213300000000002,1.11107Q0.48956,1.00896,0.5674699999999999,0.91402Q0.6453899999999999,0.81908,0.7322299999999999,0.7322299999999999Q0.81908,0.6453899999999999,0.91402,0.5674699999999999Q1.00896,0.48956,1.11107,0.4213300000000002Q1.21319,0.3530899999999999,1.32151,0.2951999999999999Q1.42982,0.23729999999999984,1.543292,0.19030000000000014Q1.65676,0.14329999999999998,1.7742879999999999,0.10765000000000002Q1.891817,0.07200000000000006,2.012274,0.04803999999999986Q2.132731,0.0240800000000001,2.254957,0.012039999999999829Q2.377183,0,2.5,0Z" fill-rule="evenodd" fill="#907EFF" fill-opacity="1"/></g></svg>