<svg xmlns="http://www.w3.org/2000/svg" xmlns:xlink="http://www.w3.org/1999/xlink" fill="none" version="1.1" width="59" height="4" viewBox="0 0 59 4"><g><path d="M2,0L57,0Q57.0983,0,57.196,0.009630000000000027Q57.2938,0.019260000000000055,57.3902,0.038429999999999964Q57.4865,0.057600000000000096,57.5806,0.08611999999999997Q57.6746,0.11464000000000008,57.7654,0.15223999999999993Q57.8561,0.18984,57.9428,0.23615999999999993Q58.0294,0.28247,58.1111,0.3370599999999999Q58.1928,0.39165000000000005,58.2688,0.45398000000000005Q58.3447,0.51631,58.4142,0.58579Q58.4837,0.65526,58.546,0.7312099999999999Q58.6083,0.8071600000000001,58.6629,0.88886Q58.7175,0.97055,58.7638,1.057207Q58.8102,1.143859,58.8478,1.234633Q58.8854,1.325408,58.9139,1.4194309999999999Q58.9424,1.513454,58.9616,1.6098189999999999Q58.9807,1.706185,58.9904,1.803966Q59,1.9017463000000001,59,2Q59,2.0982537,58.9904,2.196034Q58.9807,2.293815,58.9616,2.390181Q58.9424,2.486546,58.9139,2.580569Q58.8854,2.674592,58.8478,2.765367Q58.8102,2.856141,58.7638,2.942793Q58.7175,3.0294499999999998,58.6629,3.11114Q58.6083,3.19284,58.546,3.26879Q58.4837,3.34474,58.4142,3.4142099999999997Q58.3447,3.48369,58.2688,3.54602Q58.1928,3.6083499999999997,58.1111,3.66294Q58.0294,3.71753,57.9428,3.76384Q57.8561,3.8101599999999998,57.7654,3.84776Q57.6746,3.88536,57.5806,3.91388Q57.4865,3.9424,57.3902,3.96157Q57.2938,3.98074,57.196,3.99037Q57.0983,4,57,4L2,4Q1.9017463000000001,4,1.803966,3.99037Q1.706185,3.98074,1.6098189999999999,3.96157Q1.513454,3.9424,1.4194309999999999,3.91388Q1.325408,3.88536,1.234633,3.84776Q1.143859,3.8101599999999998,1.057207,3.76384Q0.97055,3.71753,0.88886,3.66294Q0.8071600000000001,3.6083499999999997,0.7312099999999999,3.54602Q0.65526,3.48369,0.58579,3.4142099999999997Q0.51631,3.34474,0.45398000000000005,3.26879Q0.39165000000000005,3.19284,0.3370599999999999,3.11114Q0.28247,3.0294499999999998,0.23615999999999993,2.942793Q0.18984,2.856141,0.15223999999999993,2.765367Q0.11464000000000008,2.674592,0.08611999999999997,2.580569Q0.057600000000000096,2.486546,0.038429999999999964,2.390181Q0.019260000000000055,2.293815,0.009630000000000027,2.196034Q0,2.0982537,0,2Q0,1.9017463000000001,0.009630000000000027,1.803966Q0.019260000000000055,1.706185,0.038429999999999964,1.6098189999999999Q0.057600000000000096,1.513454,0.08611999999999997,1.4194309999999999Q0.11464000000000008,1.325408,0.15223999999999993,1.234633Q0.18984,1.143859,0.23615999999999993,1.057207Q0.28247,0.97055,0.3370599999999999,0.88886Q0.39165000000000005,0.8071600000000001,0.45398000000000005,0.7312099999999999Q0.51631,0.65526,0.58579,0.58579Q0.65526,0.51631,0.7312099999999999,0.45398000000000005Q0.8071600000000001,0.39165000000000005,0.88886,0.3370599999999999Q0.97055,0.28247,1.057207,0.23615999999999993Q1.143859,0.18984,1.234633,0.15223999999999993Q1.325408,0.11464000000000008,1.4194309999999999,0.08611999999999997Q1.513454,0.057600000000000096,1.6098189999999999,0.038429999999999964Q1.706185,0.019260000000000055,1.803966,0.009630000000000027Q1.9017463000000001,0,2,0Z" fill-rule="evenodd" fill="#907EFF" fill-opacity="1"/></g></svg>