<svg xmlns="http://www.w3.org/2000/svg" xmlns:xlink="http://www.w3.org/1999/xlink" fill="none" version="1.1" width="43.357666015625" height="66.7628173828125" viewBox="0 0 43.357666015625 66.7628173828125"><defs><linearGradient x1="0.5" y1="0" x2="0.5" y2="1" id="master_svg0_2_84933"><stop offset="0%" stop-color="#3578FF" stop-opacity="1"/><stop offset="73.31924438476562%" stop-color="#3578FF" stop-opacity="0"/></linearGradient><filter id="master_svg1_2_044327" filterUnits="objectBoundingBox" color-interpolation-filters="sRGB" x="-0.5" y="-0.4" width="2" height="2"><feFlood flood-opacity="0" result="BackgroundImageFix"/><feColorMatrix in="SourceAlpha" type="matrix" values="0 0 0 0 0 0 0 0 0 0 0 0 0 0 0 0 0 0 127 0"/><feOffset dy="2" dx="0"/><feGaussianBlur stdDeviation="2.5"/><feColorMatrix type="matrix" values="0 0 0 0 0 0 0 0 0 0 0 0 0 0 0 0 0 0 0.30000001192092896 0"/><feBlend mode="normal" in2="BackgroundImageFix" result="effect1_dropShadow"/><feBlend mode="normal" in="SourceGraphic" in2="effect1_dropShadow" result="shape"/></filter></defs><g transform="matrix(-0.9902681112289429,0.13917317986488342,-0.13917317986488342,-0.9902681112289429,88.07668769319389,118.59876841812002)"><g transform="matrix(-1,-5.2146120310681e-8,5.2146120310681e-8,-1,135.78344177052708,210.75769396997748)"><path d="M81.8917236328125,105.37884521484375L94.01612363281251,137.62884521484375L69.7673636328125,137.62884521484375L81.8917236328125,105.37884521484375Z" fill="url(#master_svg0_2_84933)" fill-opacity="1"/></g><g filter="url(#master_svg1_2_044327)"><path d="M63.8917236328125,105.37884521484375Q63.8917236328125,105.62434521484374,63.8797236328125,105.86954521484375Q63.867623632812496,106.11474521484375,63.8435236328125,106.35904521484375Q63.819523632812505,106.60334521484376,63.7835236328125,106.84614521484374Q63.7474236328125,107.08894521484375,63.6995236328125,107.32974521484375Q63.651723632812505,107.57054521484375,63.5920236328125,107.80864521484375Q63.532423632812495,108.04674521484375,63.4611236328125,108.28164521484375Q63.3898236328125,108.51664521484375,63.307123632812505,108.74774521484375Q63.2244236328125,108.97884521484374,63.1305236328125,109.20564521484376Q63.036523632812504,109.43244521484375,62.9316236328125,109.65434521484374Q62.8266236328125,109.87634521484375,62.710923632812495,110.09284521484375Q62.5952236328125,110.30934521484374,62.4690236328125,110.51984521484376Q62.3428236328125,110.73044521484375,62.2064236328125,110.93454521484375Q62.0700236328125,111.13864521484375,61.9238236328125,111.33584521484374Q61.7775236328125,111.53304521484375,61.6218236328125,111.72274521484375Q61.4661236328125,111.91254521484375,61.3012236328125,112.09444521484374Q61.1363236328125,112.27634521484376,60.9628236328125,112.44994521484375Q60.7892236328125,112.62344521484374,60.607323632812495,112.78834521484376Q60.425423632812496,112.95324521484375,60.235623632812505,113.10894521484374Q60.0459236328125,113.26464521484375,59.8487236328125,113.41094521484375Q59.6515236328125,113.55714521484376,59.4474236328125,113.69354521484375Q59.2433236328125,113.82994521484375,59.0327236328125,113.95614521484376Q58.8222236328125,114.08234521484374,58.6057236328125,114.19804521484375Q58.3892236328125,114.31374521484375,58.1672236328125,114.41874521484375Q57.9453236328125,114.52364521484375,57.7185236328125,114.61764521484375Q57.4917236328125,114.71154521484375,57.2606236328125,114.79424521484376Q57.0295236328125,114.87694521484374,56.7945236328125,114.94824521484375Q56.5596236328125,115.01954521484375,56.3215236328125,115.07914521484375Q56.0834236328125,115.13884521484376,55.842623632812504,115.18664521484375Q55.6018236328125,115.23454521484375,55.3590236328125,115.27064521484375Q55.1162236328125,115.30664521484375,54.871923632812496,115.33064521484374Q54.6276236328125,115.35474521484375,54.382423632812504,115.36684521484375Q54.1372236328125,115.37884521484375,53.8917236328125,115.37884521484375Q53.646233632812496,115.37884521484375,53.4010436328125,115.36684521484375Q53.1558536328125,115.35474521484375,52.9115536328125,115.33064521484374Q52.6672436328125,115.30664521484375,52.4244136328125,115.27064521484375Q52.1815936328125,115.23454521484375,51.940823632812496,115.18664521484375Q51.7000536328125,115.13884521484376,51.4619236328125,115.07914521484375Q51.2237936328125,115.01954521484375,50.9888736328125,114.94824521484375Q50.7539636328125,114.87694521484374,50.5228236328125,114.79424521484376Q50.2916836328125,114.71154521484375,50.0648836328125,114.61764521484375Q49.8380836328125,114.52364521484375,49.6161736328125,114.41874521484375Q49.3942536328125,114.31374521484375,49.1777536328125,114.19804521484375Q48.9612536328125,114.08234521484374,48.7506936328125,113.95614521484376Q48.5401336328125,113.82994521484375,48.3360236328125,113.69354521484375Q48.1319036328125,113.55714521484376,47.9347336328125,113.41094521484375Q47.7375536328125,113.26464521484375,47.5477936328125,113.10894521484374Q47.3580236328125,112.95324521484375,47.1761336328125,112.78834521484376Q46.9942436328125,112.62344521484374,46.8206536328125,112.44994521484375Q46.6470736328125,112.27634521484376,46.4822136328125,112.09444521484374Q46.3173536328125,111.91254521484375,46.1616236328125,111.72274521484375Q46.0058836328125,111.53304521484375,45.8596436328125,111.33584521484374Q45.7134136328125,111.13864521484375,45.5770236328125,110.93454521484375Q45.4406436328125,110.73044521484375,45.3144336328125,110.51984521484376Q45.1882336328125,110.30934521484374,45.0725136328125,110.09284521484375Q44.9567936328125,109.87634521484375,44.8518306328125,109.65434521484374Q44.7468716328125,109.43244521484375,44.6529286328125,109.20564521484376Q44.5589846328125,108.97884521484374,44.4762826328125,108.74774521484375Q44.3935806328125,108.51664521484375,44.3223206328125,108.28164521484375Q44.2510596328125,108.04674521484375,44.1914106328125,107.80864521484375Q44.1317626328125,107.57054521484375,44.0838706328125,107.32974521484375Q44.0359786328125,107.08894521484375,43.9999586328125,106.84614521484374Q43.9639382328125,106.60334521484376,43.9398763328125,106.35904521484375Q43.9158145328125,106.11474521484375,43.9037690328125,105.86954521484375Q43.8917236328125,105.62434521484374,43.8917236328125,105.37884521484375Q43.8917236328125,105.13335521484375,43.9037690328125,104.88816521484375Q43.9158145328125,104.64297521484374,43.9398763328125,104.39867521484375Q43.9639382328125,104.15436521484375,43.9999586328125,103.91153521484375Q44.0359786328125,103.66871521484376,44.0838706328125,103.42794521484375Q44.1317626328125,103.18717521484375,44.1914106328125,102.94904521484375Q44.2510596328125,102.71091521484375,44.3223206328125,102.47599521484375Q44.3935806328125,102.24108521484375,44.4762826328125,102.00994521484375Q44.5589846328125,101.77880521484374,44.6529286328125,101.55200521484375Q44.7468716328125,101.32520521484375,44.8518306328125,101.10329521484375Q44.9567936328125,100.88137521484376,45.0725136328125,100.66487521484375Q45.1882336328125,100.44837521484375,45.3144336328125,100.23781521484375Q45.4406436328125,100.02725521484375,45.5770236328125,99.82314521484375Q45.7134136328125,99.61902521484375,45.8596436328125,99.42185521484375Q46.0058836328125,99.22467521484376,46.1616236328125,99.03491521484375Q46.3173536328125,98.84514521484375,46.4822136328125,98.66325521484374Q46.6470736328125,98.48136521484375,46.8206536328125,98.30777521484374Q46.9942436328125,98.13419521484374,47.1761336328125,97.96933521484375Q47.3580236328125,97.80447521484375,47.5477936328125,97.64874521484376Q47.7375536328125,97.49300521484375,47.9347336328125,97.34676521484376Q48.1319036328125,97.20053521484375,48.3360236328125,97.06414521484375Q48.5401336328125,96.92776521484375,48.7506936328125,96.80155521484375Q48.9612536328125,96.67535521484375,49.1777536328125,96.55963521484375Q49.3942536328125,96.44391521484376,49.6161736328125,96.33895221484374Q49.8380836328125,96.23399321484375,50.0648836328125,96.14005021484375Q50.2916836328125,96.04610621484375,50.5228236328125,95.96340421484375Q50.7539636328125,95.88070221484375,50.9888736328125,95.80944221484376Q51.2237936328125,95.73818121484375,51.4619236328125,95.67853221484376Q51.7000536328125,95.61888421484375,51.940823632812496,95.57099221484376Q52.1815936328125,95.52310021484375,52.4244136328125,95.48708021484374Q52.6672436328125,95.45105981484375,52.9115536328125,95.42699791484375Q53.1558536328125,95.40293611484375,53.4010436328125,95.39089061484376Q53.646233632812496,95.37884521484375,53.8917236328125,95.37884521484375Q54.1372236328125,95.37884521484375,54.382423632812504,95.39089061484376Q54.6276236328125,95.40293611484375,54.871923632812496,95.42699791484375Q55.1162236328125,95.45105981484375,55.3590236328125,95.48708021484374Q55.6018236328125,95.52310021484375,55.842623632812504,95.57099221484376Q56.0834236328125,95.61888421484375,56.3215236328125,95.67853221484376Q56.5596236328125,95.73818121484375,56.7945236328125,95.80944221484376Q57.0295236328125,95.88070221484375,57.2606236328125,95.96340421484375Q57.4917236328125,96.04610621484375,57.7185236328125,96.14005021484375Q57.9453236328125,96.23399321484375,58.1672236328125,96.33895221484374Q58.3892236328125,96.44391521484376,58.6057236328125,96.55963521484375Q58.8222236328125,96.67535521484375,59.0327236328125,96.80155521484375Q59.2433236328125,96.92776521484375,59.4474236328125,97.06414521484375Q59.6515236328125,97.20053521484375,59.8487236328125,97.34676521484376Q60.0459236328125,97.49300521484375,60.235623632812505,97.64874521484376Q60.425423632812496,97.80447521484375,60.607323632812495,97.96933521484375Q60.7892236328125,98.13419521484374,60.9628236328125,98.30777521484374Q61.1363236328125,98.48136521484375,61.3012236328125,98.66325521484374Q61.4661236328125,98.84514521484375,61.6218236328125,99.03491521484375Q61.7775236328125,99.22467521484376,61.9238236328125,99.42185521484375Q62.0700236328125,99.61902521484375,62.2064236328125,99.82314521484375Q62.3428236328125,100.02725521484375,62.4690236328125,100.23781521484375Q62.5952236328125,100.44837521484375,62.710923632812495,100.66487521484375Q62.8266236328125,100.88137521484376,62.9316236328125,101.10329521484375Q63.036523632812504,101.32520521484375,63.1305236328125,101.55200521484375Q63.2244236328125,101.77880521484374,63.307123632812505,102.00994521484375Q63.3898236328125,102.24108521484375,63.4611236328125,102.47599521484375Q63.532423632812495,102.71091521484375,63.5920236328125,102.94904521484375Q63.651723632812505,103.18717521484375,63.6995236328125,103.42794521484375Q63.7474236328125,103.66871521484376,63.7835236328125,103.91153521484375Q63.819523632812505,104.15436521484375,63.8435236328125,104.39867521484375Q63.867623632812496,104.64297521484374,63.8797236328125,104.88816521484375Q63.8917236328125,105.13335521484375,63.8917236328125,105.37884521484375Z" fill="#3578FF" fill-opacity="1"/><path d="M63.8917236328125,105.37884521484375Q63.8917236328125,105.62434521484374,63.8797236328125,105.86954521484375Q63.867623632812496,106.11474521484375,63.8435236328125,106.35904521484375Q63.819523632812505,106.60334521484376,63.7835236328125,106.84614521484374Q63.7474236328125,107.08894521484375,63.6995236328125,107.32974521484375Q63.651723632812505,107.57054521484375,63.5920236328125,107.80864521484375Q63.532423632812495,108.04674521484375,63.4611236328125,108.28164521484375Q63.3898236328125,108.51664521484375,63.307123632812505,108.74774521484375Q63.2244236328125,108.97884521484374,63.1305236328125,109.20564521484376Q63.036523632812504,109.43244521484375,62.9316236328125,109.65434521484374Q62.8266236328125,109.87634521484375,62.710923632812495,110.09284521484375Q62.5952236328125,110.30934521484374,62.4690236328125,110.51984521484376Q62.3428236328125,110.73044521484375,62.2064236328125,110.93454521484375Q62.0700236328125,111.13864521484375,61.9238236328125,111.33584521484374Q61.7775236328125,111.53304521484375,61.6218236328125,111.72274521484375Q61.4661236328125,111.91254521484375,61.3012236328125,112.09444521484374Q61.1363236328125,112.27634521484376,60.9628236328125,112.44994521484375Q60.7892236328125,112.62344521484374,60.607323632812495,112.78834521484376Q60.425423632812496,112.95324521484375,60.235623632812505,113.10894521484374Q60.0459236328125,113.26464521484375,59.8487236328125,113.41094521484375Q59.6515236328125,113.55714521484376,59.4474236328125,113.69354521484375Q59.2433236328125,113.82994521484375,59.0327236328125,113.95614521484376Q58.8222236328125,114.08234521484374,58.6057236328125,114.19804521484375Q58.3892236328125,114.31374521484375,58.1672236328125,114.41874521484375Q57.9453236328125,114.52364521484375,57.7185236328125,114.61764521484375Q57.4917236328125,114.71154521484375,57.2606236328125,114.79424521484376Q57.0295236328125,114.87694521484374,56.7945236328125,114.94824521484375Q56.5596236328125,115.01954521484375,56.3215236328125,115.07914521484375Q56.0834236328125,115.13884521484376,55.842623632812504,115.18664521484375Q55.6018236328125,115.23454521484375,55.3590236328125,115.27064521484375Q55.1162236328125,115.30664521484375,54.871923632812496,115.33064521484374Q54.6276236328125,115.35474521484375,54.382423632812504,115.36684521484375Q54.1372236328125,115.37884521484375,53.8917236328125,115.37884521484375Q53.646233632812496,115.37884521484375,53.4010436328125,115.36684521484375Q53.1558536328125,115.35474521484375,52.9115536328125,115.33064521484374Q52.6672436328125,115.30664521484375,52.4244136328125,115.27064521484375Q52.1815936328125,115.23454521484375,51.940823632812496,115.18664521484375Q51.7000536328125,115.13884521484376,51.4619236328125,115.07914521484375Q51.2237936328125,115.01954521484375,50.9888736328125,114.94824521484375Q50.7539636328125,114.87694521484374,50.5228236328125,114.79424521484376Q50.2916836328125,114.71154521484375,50.0648836328125,114.61764521484375Q49.8380836328125,114.52364521484375,49.6161736328125,114.41874521484375Q49.3942536328125,114.31374521484375,49.1777536328125,114.19804521484375Q48.9612536328125,114.08234521484374,48.7506936328125,113.95614521484376Q48.5401336328125,113.82994521484375,48.3360236328125,113.69354521484375Q48.1319036328125,113.55714521484376,47.9347336328125,113.41094521484375Q47.7375536328125,113.26464521484375,47.5477936328125,113.10894521484374Q47.3580236328125,112.95324521484375,47.1761336328125,112.78834521484376Q46.9942436328125,112.62344521484374,46.8206536328125,112.44994521484375Q46.6470736328125,112.27634521484376,46.4822136328125,112.09444521484374Q46.3173536328125,111.91254521484375,46.1616236328125,111.72274521484375Q46.0058836328125,111.53304521484375,45.8596436328125,111.33584521484374Q45.7134136328125,111.13864521484375,45.5770236328125,110.93454521484375Q45.4406436328125,110.73044521484375,45.3144336328125,110.51984521484376Q45.1882336328125,110.30934521484374,45.0725136328125,110.09284521484375Q44.9567936328125,109.87634521484375,44.8518306328125,109.65434521484374Q44.7468716328125,109.43244521484375,44.6529286328125,109.20564521484376Q44.5589846328125,108.97884521484374,44.4762826328125,108.74774521484375Q44.3935806328125,108.51664521484375,44.3223206328125,108.28164521484375Q44.2510596328125,108.04674521484375,44.1914106328125,107.80864521484375Q44.1317626328125,107.57054521484375,44.0838706328125,107.32974521484375Q44.0359786328125,107.08894521484375,43.9999586328125,106.84614521484374Q43.9639382328125,106.60334521484376,43.9398763328125,106.35904521484375Q43.9158145328125,106.11474521484375,43.9037690328125,105.86954521484375Q43.8917236328125,105.62434521484374,43.8917236328125,105.37884521484375Q43.8917236328125,105.13335521484375,43.9037690328125,104.88816521484375Q43.9158145328125,104.64297521484374,43.9398763328125,104.39867521484375Q43.9639382328125,104.15436521484375,43.9999586328125,103.91153521484375Q44.0359786328125,103.66871521484376,44.0838706328125,103.42794521484375Q44.1317626328125,103.18717521484375,44.1914106328125,102.94904521484375Q44.2510596328125,102.71091521484375,44.3223206328125,102.47599521484375Q44.3935806328125,102.24108521484375,44.4762826328125,102.00994521484375Q44.5589846328125,101.77880521484374,44.6529286328125,101.55200521484375Q44.7468716328125,101.32520521484375,44.8518306328125,101.10329521484375Q44.9567936328125,100.88137521484376,45.0725136328125,100.66487521484375Q45.1882336328125,100.44837521484375,45.3144336328125,100.23781521484375Q45.4406436328125,100.02725521484375,45.5770236328125,99.82314521484375Q45.7134136328125,99.61902521484375,45.8596436328125,99.42185521484375Q46.0058836328125,99.22467521484376,46.1616236328125,99.03491521484375Q46.3173536328125,98.84514521484375,46.4822136328125,98.66325521484374Q46.6470736328125,98.48136521484375,46.8206536328125,98.30777521484374Q46.9942436328125,98.13419521484374,47.1761336328125,97.96933521484375Q47.3580236328125,97.80447521484375,47.5477936328125,97.64874521484376Q47.7375536328125,97.49300521484375,47.9347336328125,97.34676521484376Q48.1319036328125,97.20053521484375,48.3360236328125,97.06414521484375Q48.5401336328125,96.92776521484375,48.7506936328125,96.80155521484375Q48.9612536328125,96.67535521484375,49.1777536328125,96.55963521484375Q49.3942536328125,96.44391521484376,49.6161736328125,96.33895221484374Q49.8380836328125,96.23399321484375,50.0648836328125,96.14005021484375Q50.2916836328125,96.04610621484375,50.5228236328125,95.96340421484375Q50.7539636328125,95.88070221484375,50.9888736328125,95.80944221484376Q51.2237936328125,95.73818121484375,51.4619236328125,95.67853221484376Q51.7000536328125,95.61888421484375,51.940823632812496,95.57099221484376Q52.1815936328125,95.52310021484375,52.4244136328125,95.48708021484374Q52.6672436328125,95.45105981484375,52.9115536328125,95.42699791484375Q53.1558536328125,95.40293611484375,53.4010436328125,95.39089061484376Q53.646233632812496,95.37884521484375,53.8917236328125,95.37884521484375Q54.1372236328125,95.37884521484375,54.382423632812504,95.39089061484376Q54.6276236328125,95.40293611484375,54.871923632812496,95.42699791484375Q55.1162236328125,95.45105981484375,55.3590236328125,95.48708021484374Q55.6018236328125,95.52310021484375,55.842623632812504,95.57099221484376Q56.0834236328125,95.61888421484375,56.3215236328125,95.67853221484376Q56.5596236328125,95.73818121484375,56.7945236328125,95.80944221484376Q57.0295236328125,95.88070221484375,57.2606236328125,95.96340421484375Q57.4917236328125,96.04610621484375,57.7185236328125,96.14005021484375Q57.9453236328125,96.23399321484375,58.1672236328125,96.33895221484374Q58.3892236328125,96.44391521484376,58.6057236328125,96.55963521484375Q58.8222236328125,96.67535521484375,59.0327236328125,96.80155521484375Q59.2433236328125,96.92776521484375,59.4474236328125,97.06414521484375Q59.6515236328125,97.20053521484375,59.8487236328125,97.34676521484376Q60.0459236328125,97.49300521484375,60.235623632812505,97.64874521484376Q60.425423632812496,97.80447521484375,60.607323632812495,97.96933521484375Q60.7892236328125,98.13419521484374,60.9628236328125,98.30777521484374Q61.1363236328125,98.48136521484375,61.3012236328125,98.66325521484374Q61.4661236328125,98.84514521484375,61.6218236328125,99.03491521484375Q61.7775236328125,99.22467521484376,61.9238236328125,99.42185521484375Q62.0700236328125,99.61902521484375,62.2064236328125,99.82314521484375Q62.3428236328125,100.02725521484375,62.4690236328125,100.23781521484375Q62.5952236328125,100.44837521484375,62.710923632812495,100.66487521484375Q62.8266236328125,100.88137521484376,62.9316236328125,101.10329521484375Q63.036523632812504,101.32520521484375,63.1305236328125,101.55200521484375Q63.2244236328125,101.77880521484374,63.307123632812505,102.00994521484375Q63.3898236328125,102.24108521484375,63.4611236328125,102.47599521484375Q63.532423632812495,102.71091521484375,63.5920236328125,102.94904521484375Q63.651723632812505,103.18717521484375,63.6995236328125,103.42794521484375Q63.7474236328125,103.66871521484376,63.7835236328125,103.91153521484375Q63.819523632812505,104.15436521484375,63.8435236328125,104.39867521484375Q63.867623632812496,104.64297521484374,63.8797236328125,104.88816521484375Q63.8917236328125,105.13335521484375,63.8917236328125,105.37884521484375ZM60.8917236328125,105.37884521484375Q60.8917236328125,105.20700521484375,60.8833236328125,105.03537521484375Q60.8748236328125,104.86373521484376,60.858023632812504,104.69272521484375Q60.8411236328125,104.52171521484375,60.8159236328125,104.35173521484376Q60.7907236328125,104.18175521484375,60.7572236328125,104.01321521484375Q60.7237236328125,103.84467521484375,60.6819236328125,103.67798521484374Q60.6402236328125,103.51129521484376,60.5903236328125,103.34685521484374Q60.540423632812505,103.18241521484374,60.4825236328125,103.02061521484374Q60.4246236328125,102.85881521484374,60.3589236328125,102.70006521484375Q60.293123632812495,102.54130521484375,60.2196236328125,102.38595521484375Q60.1462236328125,102.23061521484375,60.0651236328125,102.07906521484375Q59.9841236328125,101.92751521484375,59.8958236328125,101.78012521484375Q59.807523632812504,101.63273521484375,59.7120236328125,101.48985521484374Q59.6165236328125,101.34697521484375,59.5142236328125,101.20894521484375Q59.4118236328125,101.07092521484375,59.3028236328125,100.93809521484376Q59.193823632812496,100.80525521484375,59.0784236328125,100.67793521484376Q58.9630236328125,100.55060521484376,58.8414236328125,100.42909521484376Q58.7199236328125,100.30758521484375,58.592623632812504,100.19218521484375Q58.4653236328125,100.07678521484375,58.332523632812496,99.96777521484375Q58.199623632812504,99.85875521484375,58.0616236328125,99.75639521484375Q57.9236236328125,99.65402521484376,57.780723632812496,99.55855521484375Q57.6378236328125,99.46308521484374,57.4904236328125,99.37474521484376Q57.3430236328125,99.28640521484375,57.1915236328125,99.20539521484375Q57.0399236328125,99.12439521484374,56.8846236328125,99.05091521484376Q56.7292236328125,98.97744521484375,56.5705236328125,98.91168521484374Q56.411723632812496,98.84592521484375,56.2499236328125,98.78803521484375Q56.0881236328125,98.73014521484374,55.9237236328125,98.68026521484374Q55.759323632812496,98.63038521484376,55.592623632812504,98.58862521484374Q55.4259236328125,98.54687521484375,55.2573236328125,98.51334521484375Q55.0888236328125,98.47982521484374,54.918823632812504,98.45460521484375Q54.7488236328125,98.42939521484375,54.577823632812496,98.41255521484375Q54.406823632812504,98.39570521484374,54.2352236328125,98.38727521484375Q54.0635236328125,98.37884521484375,53.8917236328125,98.37884521484375Q53.7198836328125,98.37884521484375,53.548253632812504,98.38727521484375Q53.3766136328125,98.39570521484374,53.2056036328125,98.41255521484375Q53.0345936328125,98.42939521484375,52.8646136328125,98.45460521484375Q52.6946336328125,98.47982521484374,52.526093632812504,98.51334521484375Q52.3575536328125,98.54687521484375,52.1908636328125,98.58862521484374Q52.0241736328125,98.63038521484376,51.8597336328125,98.68026521484374Q51.6952936328125,98.73014521484374,51.5334936328125,98.78803521484375Q51.3716936328125,98.84592521484375,51.2129436328125,98.91168521484374Q51.0541836328125,98.97744521484375,50.8988336328125,99.05091521484376Q50.7434936328125,99.12439521484374,50.5919436328125,99.20539521484375Q50.4403936328125,99.28640521484375,50.2930036328125,99.37474521484376Q50.1456136328125,99.46308521484374,50.0027336328125,99.55855521484375Q49.8598536328125,99.65402521484376,49.7218236328125,99.75639521484375Q49.5838036328125,99.85875521484375,49.4509736328125,99.96777521484375Q49.3181336328125,100.07678521484375,49.1908136328125,100.19218521484375Q49.0634836328125,100.30758521484375,48.9419736328125,100.42909521484376Q48.8204636328125,100.55060521484376,48.7050636328125,100.67793521484376Q48.5896636328125,100.80525521484375,48.4806536328125,100.93809521484376Q48.371633632812504,101.07092521484375,48.2692736328125,101.20894521484375Q48.1669036328125,101.34697521484375,48.0714336328125,101.48985521484374Q47.9759636328125,101.63273521484375,47.8876236328125,101.78012521484375Q47.799283632812504,101.92751521484375,47.7182736328125,102.07906521484375Q47.6372736328125,102.23061521484375,47.5637936328125,102.38595521484375Q47.4903236328125,102.54130521484375,47.4245636328125,102.70006521484375Q47.3588036328125,102.85881521484374,47.3009136328125,103.02061521484374Q47.2430236328125,103.18241521484374,47.1931436328125,103.34685521484374Q47.1432536328125,103.51129521484376,47.1015036328125,103.67798521484374Q47.0597536328125,103.84467521484375,47.0262236328125,104.01321521484375Q46.9927036328125,104.18175521484375,46.9674836328125,104.35173521484376Q46.9422736328125,104.52171521484375,46.9254336328125,104.69272521484375Q46.9085836328125,104.86373521484376,46.9001536328125,105.03537521484375Q46.8917236328125,105.20700521484375,46.8917236328125,105.37884521484375Q46.8917236328125,105.55064521484375,46.9001536328125,105.72234521484376Q46.9085836328125,105.89394521484375,46.9254336328125,106.06494521484375Q46.9422736328125,106.23594521484375,46.9674836328125,106.40594521484375Q46.9927036328125,106.57594521484376,47.0262236328125,106.74444521484375Q47.0597536328125,106.91304521484375,47.1015036328125,107.07974521484375Q47.1432536328125,107.24644521484375,47.1931436328125,107.41084521484375Q47.2430236328125,107.57524521484375,47.3009136328125,107.73704521484375Q47.3588036328125,107.89884521484375,47.4245636328125,108.05764521484375Q47.4903236328125,108.21634521484376,47.5637936328125,108.37174521484376Q47.6372736328125,108.52704521484375,47.7182736328125,108.67864521484375Q47.799283632812504,108.83014521484375,47.8876236328125,108.97754521484374Q47.9759636328125,109.12494521484375,48.0714336328125,109.26784521484375Q48.1669036328125,109.41074521484376,48.2692736328125,109.54874521484375Q48.371633632812504,109.68674521484375,48.4806536328125,109.81964521484375Q48.5896636328125,109.95244521484375,48.7050636328125,110.07974521484375Q48.8204636328125,110.20704521484375,48.9419736328125,110.32854521484376Q49.0634836328125,110.45014521484376,49.1908136328125,110.56554521484375Q49.3181336328125,110.68094521484375,49.4509736328125,110.78994521484375Q49.5838036328125,110.89894521484375,49.7218236328125,111.00134521484375Q49.8598536328125,111.10364521484375,50.0027336328125,111.19914521484375Q50.1456136328125,111.29464521484375,50.2930036328125,111.38294521484374Q50.4403936328125,111.47124521484375,50.5919436328125,111.55224521484375Q50.7434936328125,111.63334521484376,50.8988336328125,111.70674521484375Q51.0541836328125,111.78024521484375,51.2129436328125,111.84604521484374Q51.3716936328125,111.91174521484375,51.5334936328125,111.96964521484375Q51.6952936328125,112.02754521484376,51.8597336328125,112.07744521484375Q52.0241736328125,112.12734521484376,52.1908636328125,112.16904521484375Q52.3575536328125,112.21084521484374,52.526093632812504,112.24434521484375Q52.6946336328125,112.27784521484375,52.8646136328125,112.30304521484375Q53.0345936328125,112.32824521484375,53.2056036328125,112.34514521484375Q53.3766136328125,112.36194521484376,53.548253632812504,112.37044521484376Q53.7198836328125,112.37884521484375,53.8917236328125,112.37884521484375Q54.0635236328125,112.37884521484375,54.2352236328125,112.37044521484376Q54.406823632812504,112.36194521484376,54.577823632812496,112.34514521484375Q54.7488236328125,112.32824521484375,54.918823632812504,112.30304521484375Q55.0888236328125,112.27784521484375,55.2573236328125,112.24434521484375Q55.4259236328125,112.21084521484374,55.592623632812504,112.16904521484375Q55.759323632812496,112.12734521484376,55.9237236328125,112.07744521484375Q56.0881236328125,112.02754521484376,56.2499236328125,111.96964521484375Q56.411723632812496,111.91174521484375,56.5705236328125,111.84604521484374Q56.7292236328125,111.78024521484375,56.8846236328125,111.70674521484375Q57.0399236328125,111.63334521484376,57.1915236328125,111.55224521484375Q57.3430236328125,111.47124521484375,57.4904236328125,111.38294521484374Q57.6378236328125,111.29464521484375,57.780723632812496,111.19914521484375Q57.9236236328125,111.10364521484375,58.0616236328125,111.00134521484375Q58.199623632812504,110.89894521484375,58.332523632812496,110.78994521484375Q58.4653236328125,110.68094521484375,58.592623632812504,110.56554521484375Q58.7199236328125,110.45014521484376,58.8414236328125,110.32854521484376Q58.9630236328125,110.20704521484375,59.0784236328125,110.07974521484375Q59.193823632812496,109.95244521484375,59.3028236328125,109.81964521484375Q59.4118236328125,109.68674521484375,59.5142236328125,109.54874521484375Q59.6165236328125,109.41074521484376,59.7120236328125,109.26784521484375Q59.807523632812504,109.12494521484375,59.8958236328125,108.97754521484374Q59.9841236328125,108.83014521484375,60.0651236328125,108.67864521484375Q60.1462236328125,108.52704521484375,60.2196236328125,108.37174521484376Q60.293123632812495,108.21634521484376,60.3589236328125,108.05764521484375Q60.4246236328125,107.89884521484375,60.4825236328125,107.73704521484375Q60.540423632812505,107.57524521484375,60.5903236328125,107.41084521484375Q60.6402236328125,107.24644521484375,60.6819236328125,107.07974521484375Q60.7237236328125,106.91304521484375,60.7572236328125,106.74444521484375Q60.7907236328125,106.57594521484376,60.8159236328125,106.40594521484375Q60.8411236328125,106.23594521484375,60.858023632812504,106.06494521484375Q60.8748236328125,105.89394521484375,60.8833236328125,105.72234521484376Q60.8917236328125,105.55064521484375,60.8917236328125,105.37884521484375Z" fill-rule="evenodd" fill="#FFFFFF" fill-opacity="1"/></g></g></svg>