<svg xmlns="http://www.w3.org/2000/svg" xmlns:xlink="http://www.w3.org/1999/xlink" fill="none" version="1.1" width="37" height="37" viewBox="0 0 37 37"><defs><clipPath id="master_svg0_135_31140"><rect x="0" y="0" width="37" height="37" rx="0"/></clipPath></defs><g clip-path="url(#master_svg0_135_31140)"><g><ellipse cx="18.5" cy="18.5" rx="18.5" ry="18.5" fill="#F4F4F5" fill-opacity="1"/></g><g><path d="M19,26Q25,21.2,25,16C25,12.68628,22.31372,10,19,10C15.68628,10,13,12.68628,13,16Q13,21.2,19,26Z" fill="#4C4C57" fill-opacity="1"/><path d="M14.4038,11.4038Q12.5,13.3076,12.5,16Q12.5,21.4403,18.687649999999998,26.3904Q18.75415,26.4436,18.8345,26.4718Q18.91485,26.5,19,26.5Q19.08515,26.5,19.1655,26.4718Q19.24586,26.4436,19.312350000000002,26.3904Q25.5,21.4403,25.5,16Q25.5,13.30761,23.5962,11.4038Q21.6924,9.500001,19,9.5Q16.3076,9.5,14.4038,11.4038ZM19,25.356Q13.5,20.8246,13.5,16Q13.5,13.721820000000001,15.11091,12.11091Q16.72182,10.5,19,10.5Q21.27818,10.5,22.88909,12.11091Q24.5,13.721820000000001,24.5,16Q24.5,20.8246,19,25.356Z" fill-rule="evenodd" fill="#4C4C57" fill-opacity="1"/></g><g><path d="M21.40009765625,16.00009765625Q21.40009765625,16.11799765625,21.38853765625,16.23533765625Q21.37698765625,16.352677656250002,21.35397765625,16.46831765625Q21.33097765625,16.58395765625,21.29675765625,16.69677765625Q21.26252765625,16.80960765625,21.21740765625,16.91853765625Q21.17228765625,17.02746765625,21.11670765625,17.13144765625Q21.06112765625,17.23542765625,20.99562765625,17.33346765625Q20.93011765625,17.43149765625,20.85532765625,17.52263765625Q20.78052765625,17.61377765625,20.69715765625,17.69715765625Q20.61378765625,17.78052765625,20.52263765625,17.85531765625Q20.43149765625,17.93011765625,20.33346765625,17.99562765625Q20.23542765625,18.06112765625,20.13144765625,18.11670765625Q20.02746765625,18.17228765625,19.91853765625,18.21740765625Q19.80960765625,18.26252765625,19.69677765625,18.29675765625Q19.58395765625,18.33097765625,19.46831765625,18.35397765625Q19.352677656250002,18.37698765625,19.23533765625,18.38853765625Q19.11799765625,18.40009765625,19.00009765625,18.40009765625Q18.88219765625,18.40009765625,18.76485765625,18.38853765625Q18.64751765625,18.37698765625,18.53187765625,18.35397765625Q18.41623765625,18.33097765625,18.30341765625,18.29675765625Q18.19058765625,18.26252765625,18.08165765625,18.21740765625Q17.97272765625,18.17228765625,17.86874765625,18.11670765625Q17.76476765625,18.06112765625,17.66672765625,17.99562765625Q17.56869465625,17.93011765625,17.47755365625,17.85532765625Q17.38641265625,17.78052765625,17.30304165625,17.69715765625Q17.21967065625,17.61378765625,17.14487265625,17.52263765625Q17.07007465625,17.43149765625,17.00457065625,17.33346765625Q16.93906665625,17.23542765625,16.88348665625,17.13144765625Q16.82790665625,17.02746765625,16.78278665625,16.91853765625Q16.73766665625,16.80960765625,16.70344065625,16.69677765625Q16.66921495625,16.58395765625,16.64621295625,16.46831765625Q16.62321095625,16.352677656250002,16.61165435625,16.23533765625Q16.60009765625,16.11799765625,16.60009765625,16.00009765625Q16.60009765625,15.88219765625,16.61165435625,15.76485765625Q16.62321095625,15.647517656249999,16.64621295625,15.53187765625Q16.66921495625,15.41623765625,16.70344065625,15.30341765625Q16.73766665625,15.190587656249999,16.78278665625,15.08165765625Q16.82790665625,14.972727656250001,16.88348665625,14.868747656250001Q16.93906665625,14.764767656250001,17.00457065625,14.66672765625Q17.07007465625,14.56869465625,17.14487265625,14.47755365625Q17.21967065625,14.38641265625,17.30304165625,14.30304165625Q17.38641265625,14.21967065625,17.47755365625,14.14487265625Q17.56869465625,14.07007465625,17.66672765625,14.00457065625Q17.76476765625,13.93906665625,17.86874765625,13.88348665625Q17.97272765625,13.82790665625,18.08165765625,13.78278665625Q18.19058765625,13.73766665625,18.30341765625,13.70344065625Q18.41623765625,13.66921495625,18.53187765625,13.64621295625Q18.64751765625,13.62321095625,18.76485765625,13.61165435625Q18.88219765625,13.60009765625,19.00009765625,13.60009765625Q19.11799765625,13.60009765625,19.23533765625,13.61165435625Q19.352677656250002,13.62321095625,19.46831765625,13.64621295625Q19.58395765625,13.66921495625,19.69677765625,13.70344065625Q19.80960765625,13.73766665625,19.91853765625,13.78278665625Q20.02746765625,13.82790665625,20.13144765625,13.88348665625Q20.23542765625,13.93906665625,20.33346765625,14.00457065625Q20.43149765625,14.07007465625,20.52263765625,14.14487265625Q20.61377765625,14.21967065625,20.69715765625,14.30304165625Q20.78052765625,14.38641265625,20.85531765625,14.47755365625Q20.93011765625,14.56869465625,20.99562765625,14.66672765625Q21.06112765625,14.764767656250001,21.11670765625,14.868747656250001Q21.17228765625,14.972727656250001,21.21740765625,15.08165765625Q21.26252765625,15.190587656249999,21.29675765625,15.30341765625Q21.33097765625,15.41623765625,21.35397765625,15.53187765625Q21.37698765625,15.647517656249999,21.38853765625,15.76485765625Q21.40009765625,15.88219765625,21.40009765625,16.00009765625Z" fill="#FFFFFF" fill-opacity="1"/><path d="M16.94948965625,13.94948965625Q16.10009765625,14.79887765625,16.10009765625,16.00009765625Q16.10009765625,17.20131765625,16.94948965625,18.05070765625Q17.79887765625,18.90009765625,19.00009765625,18.90009765625Q20.20131765625,18.90009765625,21.05070765625,18.05070765625Q21.90009765625,17.20131765625,21.90009765625,16.00009765625Q21.90009765625,14.79887765625,21.05070765625,13.94948965625Q20.20131765625,13.10009765625,19.00009765625,13.10009765625Q17.79887765625,13.10009765625,16.94948965625,13.94948965625ZM17.65659765625,17.34359765625Q17.10009765625,16.78709765625,17.10009765625,16.00009765625Q17.10009765625,15.21309765625,17.65659765625,14.65659765625Q18.21309765625,14.10009765625,19.00009765625,14.10009765625Q19.78709765625,14.10009765625,20.34359765625,14.65659765625Q20.90009765625,15.21309765625,20.90009765625,16.00009765625Q20.90009765625,16.78709765625,20.34359765625,17.34359765625Q19.78709765625,17.90009765625,19.00009765625,17.90009765625Q18.21309765625,17.90009765625,17.65659765625,17.34359765625Z" fill-rule="evenodd" fill="#FFFFFF" fill-opacity="1"/></g></g></svg>