<svg xmlns="http://www.w3.org/2000/svg" xmlns:xlink="http://www.w3.org/1999/xlink" fill="none" version="1.1" width="24" height="24" viewBox="0 0 24 24"><defs><clipPath id="master_svg0_2_017031"><rect x="0" y="0" width="24" height="24" rx="0"/></clipPath></defs><g clip-path="url(#master_svg0_2_017031)"><g><path d="M4,15.00001171875L4,8.50000171875C4,6.01472171875,6.01472,4.00000171875,8.5,4.00000171875C10.98528,4.00000171875,13,6.01472171875,13,8.50000171875L13,15.50001171875C13,16.88071171875,14.1193,18.000011718750002,15.5,18.000011718750002C16.880699999999997,18.000011718750002,18,16.88071171875,18,15.50001171875L18,8.830001718750001C16.0979,8.15777171875,15.3876,5.83786171875,16.5873,4.21594171875C17.7869,2.59403271875,20.2131,2.59403371875,21.4127,4.21595171875C22.6124,5.83786171875,21.9021,8.15777171875,20,8.830001718750001L20,15.50001171875C20,17.985311718749998,17.9853,20.00001171875,15.5,20.00001171875C13.0147,20.00001171875,11,17.985311718749998,11,15.50001171875L11,8.50000171875C11,7.11929171875,9.88071,6.00000171875,8.5,6.00000171875C7.11929,6.00000171875,6,7.11929171875,6,8.50000171875L6,15.00001171875L9,15.00001171875L5,20.00001171875L1,15.00001171875L4,15.00001171875Z" fill="#030318" fill-opacity="1" style="mix-blend-mode:passthrough"/></g></g></svg>