<svg xmlns="http://www.w3.org/2000/svg" xmlns:xlink="http://www.w3.org/1999/xlink" fill="none" version="1.1" width="213.0058723080345" height="92.67324749952441" viewBox="0 0 213.0058723080345 92.67324749952441"><g transform="matrix(-1,-1.3955525446363026e-7,1.3955525446363026e-7,1,423.01171895932873,0.00002951675405493681)"><path d="M354.7138595843329,12.884429516754025Q383.94185958433286,3.000029516754026,421.5118595843329,3.000029516754026L421.5118595843329,0.000029516754025848968Q383.4488595843329,0.000029516754025848968,353.7528595843329,10.042539516754026Q337.3158595843329,15.600929516754025,319.6428595843329,26.421629516754027Q317.9748595843329,27.442429516754025,317.2338595843329,27.887029516754026Q314.5148595843329,29.518829516754025,301.4544595843329,38.27432951675402Q224.7870595843329,89.67312951675403,211.50585958433288,89.67322951675402L211.50585958433288,92.67322951675402Q220.87432958433288,92.67322951675402,252.71855958433287,73.40612951675402Q270.3579595843329,62.733529516754025,303.1250595843329,40.766229516754024Q316.1228595843329,32.05252951675402,318.7778595843329,30.459529516754024Q319.5298595843329,30.008129516754025,321.2088595843329,28.980129516754026Q338.59585958433286,18.335129516754026,354.7138595843329,12.884429516754025Z" fill-rule="evenodd" fill="#907EFF" fill-opacity="1"/></g></svg>