<svg xmlns="http://www.w3.org/2000/svg" xmlns:xlink="http://www.w3.org/1999/xlink" fill="none" version="1.1" width="188" height="1" viewBox="0 0 188 1"><g><path d="M3.88013,1Q3.64007,3.9,0.5,3.9Q-2.9,3.9,-2.9,0.5Q-2.9,-2.9,0.5,-2.9Q3.64007,-2.9,3.88013,0L184.133,0Q184.282,-1.08996,185.096,-1.90416Q186.092,-2.9,187.5,-2.9Q188.908,-2.9,189.904,-1.90416Q190.9,-0.90829,190.9,0.5Q190.9,1.90829,189.904,2.90416Q188.908,3.9,187.5,3.9Q184.36,3.9,184.12,1L3.88013,1ZM0.5,-1.9Q2.9,-1.9,2.9,0.5Q2.9,2.9,0.5,2.9Q-1.9,2.9,-1.9,0.5Q-1.9,-1.9,0.5,-1.9ZM187.5,-1.9Q189.9,-1.9,189.9,0.5Q189.9,2.9,187.5,2.9Q185.1,2.9,185.1,0.5Q185.1,-0.494101,185.803,-1.19706Q186.506,-1.9,187.5,-1.9Z" fill-rule="evenodd" fill="#91929F" fill-opacity="1"/></g></svg>