<svg xmlns="http://www.w3.org/2000/svg" xmlns:xlink="http://www.w3.org/1999/xlink" fill="none" version="1.1" width="56" height="56.00001525878906" viewBox="0 0 56 56.00001525878906"><defs><clipPath id="master_svg0_154_13192"><rect x="0" y="0" width="56" height="56.00001525878906" rx="28"/></clipPath></defs><g clip-path="url(#master_svg0_154_13192)"><rect x="2" y="2" width="52" height="52.00001525878906" rx="26" fill="#D9D9DE" fill-opacity="1"/><g><path d="M13.316336,30.6912C12.894555,28.699199999999998,12.894555,26.6408,13.316336,24.6488C14.94427,24.8395,16.36687,24.3012,16.83032,23.1807C17.29524,22.058770000000003,16.67193,20.67283,15.38425,19.65647C16.49453,17.94982,17.94982,16.49453,19.65647,15.38425C20.67136,16.67046,22.058770000000003,17.29524,23.1807,16.83032C24.3027,16.36541,24.840899999999998,14.94427,24.6488,13.316336C26.6408,12.894555,28.699199999999998,12.894555,30.6912,13.316336C30.5005,14.94427,31.0388,16.36687,32.1593,16.83032C33.2812,17.29524,34.6672,16.67193,35.683499999999995,15.38425C37.3902,16.49453,38.8455,17.94982,39.955799999999996,19.65647C38.6695,20.67136,38.044799999999995,22.058770000000003,38.509699999999995,23.1807C38.974599999999995,24.3027,40.395700000000005,24.840899999999998,42.023700000000005,24.6488C42.4454,26.6408,42.4454,28.699199999999998,42.023700000000005,30.6912C40.395700000000005,30.5005,38.9731,31.0388,38.509699999999995,32.1593C38.044799999999995,33.2812,38.668099999999995,34.6672,39.955799999999996,35.683499999999995C38.8455,37.3902,37.3902,38.8455,35.683499999999995,39.955799999999996C34.6686,38.6695,33.2812,38.044799999999995,32.1593,38.509699999999995C31.0373,38.974599999999995,30.4991,40.395700000000005,30.6912,42.023700000000005C28.699199999999998,42.4454,26.6408,42.4454,24.6488,42.023700000000005C24.8395,40.395700000000005,24.3012,38.9731,23.1807,38.509699999999995C22.058770000000003,38.044799999999995,20.67283,38.668099999999995,19.65647,39.955799999999996C17.94982,38.8455,16.49453,37.3902,15.38425,35.683499999999995C16.67046,34.6686,17.29524,33.2812,16.83032,32.1593C16.36541,31.0373,14.94427,30.4991,13.316336,30.6912ZM15.93716,27.978C17.55042,28.4253,18.88064,29.4475,19.54061,31.0373C20.19911,32.6286,19.98059,34.2932,19.15636,35.7481C19.297150000000002,35.8977,19.44235,36.0428,19.59194,36.1836C21.04828,35.3594,22.71141,35.142399999999995,24.3027,35.7994C25.8925,36.4594,26.9147,37.7896,27.362000000000002,39.4028C27.5673,39.408699999999996,27.7727,39.408699999999996,27.978,39.4028C28.4253,37.7896,29.4475,36.4594,31.0373,35.7994C32.6286,35.1409,34.2932,35.3594,35.7481,36.1836C35.8977,36.0428,36.0428,35.8977,36.1836,35.7481C35.3594,34.2917,35.142399999999995,32.6286,35.7994,31.0373C36.4594,29.4475,37.7896,28.4253,39.4028,27.978C39.408699999999996,27.7727,39.408699999999996,27.5673,39.4028,27.362000000000002C37.7896,26.9147,36.4594,25.8925,35.7994,24.3027C35.1409,22.71141,35.3594,21.04681,36.1836,19.59194C36.0423,19.44293,35.897099999999995,19.29768,35.7481,19.15635C34.2917,19.98059,32.6286,20.19764,31.0373,19.54061C29.4475,18.88064,28.4253,17.55042,27.978,15.93716C27.7727,15.93172,27.5673,15.93172,27.362000000000002,15.93716C26.9147,17.55042,25.8925,18.88064,24.3027,19.54061C22.71141,20.19911,21.04681,19.98059,19.59194,19.15636C19.44235,19.297150000000002,19.297150000000002,19.44235,19.15636,19.59194C19.98059,21.04828,20.19765,22.71141,19.54061,24.3027C18.88064,25.8925,17.55042,26.9147,15.93716,27.362000000000002C15.93129,27.5673,15.93129,27.7727,15.93716,27.978ZM27.67,32.0698C25.240099999999998,32.0698,23.270200000000003,30.1,23.270200000000003,27.67C23.270200000000003,25.240000000000002,25.240099999999998,23.270200000000003,27.67,23.270200000000003C30.1,23.270200000000003,32.0698,25.240000000000002,32.0698,27.67C32.0698,30.1,30.1,32.0698,27.67,32.0698ZM27.67,29.1366C28.48,29.1366,29.1366,28.48,29.1366,27.67C29.1366,26.86,28.48,26.203400000000002,27.67,26.203400000000002C26.86,26.203400000000002,26.203400000000002,26.86,26.203400000000002,27.67C26.203400000000002,28.48,26.86,29.1366,27.67,29.1366Z" fill="#4C4545" fill-opacity="1" style="mix-blend-mode:passthrough"/></g><rect x="1" y="1" width="54" height="54.00001525878906" rx="27" fill-opacity="0" stroke-opacity="1" stroke="#4C4545" fill="none" stroke-width="2"/></g></svg>