<svg xmlns="http://www.w3.org/2000/svg" xmlns:xlink="http://www.w3.org/1999/xlink" fill="none" version="1.1" width="24" height="24" viewBox="0 0 24 24"><g><g><path d="M18.24994375,13.94038L19.78294375,13.94038Q21.17794375,13.94038,21.65984375,12.63119Q22.14174375,11.322,21.07954375,10.4176L11.99989375,2.68661L2.92025375,10.4176Q1.85808375,11.322,2.33993775,12.63119Q2.82179475,13.94038,4.21684375,13.94038L5.74989375,13.94038L5.74989375,19Q5.74989375,19.8285,6.33567375,20.4143Q6.92146375,21,7.74989375,21L16.24994375,21Q18.24994375,21,18.24994375,19L18.24994375,13.94038ZM11.99989375,5.31339L19.78294375,11.940380000000001L16.24994375,11.940380000000001L16.24994375,19L7.74989375,19L7.74989375,11.940380000000001L4.21684375,11.940380000000001L11.99989375,5.31339Z" fill-rule="evenodd" fill="#CAC4D0" fill-opacity="1"/></g></g></svg>