<svg xmlns="http://www.w3.org/2000/svg" xmlns:xlink="http://www.w3.org/1999/xlink" fill="none" version="1.1" width="45" height="50.99969482421875" viewBox="0 0 45 50.99969482421875"><defs><filter id="master_svg0_2_044330" filterUnits="objectBoundingBox" color-interpolation-filters="sRGB" x="-0.2777777777777778" y="-0.2222222222222222" width="1.5555555555555556" height="1.5555555555555556"><feFlood flood-opacity="0" result="BackgroundImageFix"/><feColorMatrix in="SourceAlpha" type="matrix" values="0 0 0 0 0 0 0 0 0 0 0 0 0 0 0 0 0 0 127 0"/><feOffset dy="2" dx="0"/><feGaussianBlur stdDeviation="2.5"/><feColorMatrix type="matrix" values="0 0 0 0 0 0 0 0 0 0 0 0 0 0 0 0 0 0 0.20000000298023224 0"/><feBlend mode="normal" in2="BackgroundImageFix" result="effect1_dropShadow"/><feBlend mode="normal" in="SourceGraphic" in2="effect1_dropShadow" result="shape"/></filter></defs><g transform="matrix(-1,-1.3955525446363026e-7,1.3955525446363026e-7,1,80.99999923248018,0.000005651987805777026)" filter="url(#master_svg0_2_044330)"><g><path d="M58.5,5.5C62.478300000000004,5.5,66.2935,7.08036,69.1067,9.89339C71.9196,12.70645,73.5,16.5218,73.5,20.5C73.43690000000001,23.3808,72.6486,26.1991,71.208,28.6945C69.87180000000001,31.0695,68.2353,33.2625,66.339,35.2195C64.2141,37.461600000000004,61.8664,39.4815,59.332499999999996,41.248C59.0862,41.4121,58.7967,41.4997,58.5007,41.4997C58.2047,41.4997,57.9153,41.4121,57.669,41.248C55.135,39.4815,52.787369999999996,37.461600000000004,50.6625,35.2195C48.76614,33.2625,47.12969,31.0695,45.7935,28.6945C44.352408,26.1993,43.5636048,23.3809,43.5,20.5C43.5,16.5218,45.08036,12.70645,47.89339,9.89339C50.706450000000004,7.08036,54.5218,5.500000000000003,58.5,5.5C58.5,5.5,58.5,5.5,58.5,5.5Z" fill="#907EFF" fill-opacity="1"/><path d="M58.5,5.5C62.478300000000004,5.5,66.2935,7.08036,69.1067,9.89339C71.9196,12.70645,73.5,16.5218,73.5,20.5C73.43690000000001,23.3808,72.6486,26.1991,71.208,28.6945C69.87180000000001,31.0695,68.2353,33.2625,66.339,35.2195C64.2141,37.461600000000004,61.8664,39.4815,59.332499999999996,41.248C59.0862,41.4121,58.7967,41.4997,58.5007,41.4997C58.2047,41.4997,57.9153,41.4121,57.669,41.248C55.135,39.4815,52.787369999999996,37.461600000000004,50.6625,35.2195C48.76614,33.2625,47.12969,31.0695,45.7935,28.6945C44.352408,26.1993,43.5636048,23.3809,43.5,20.5C43.5,16.5218,45.08036,12.70645,47.89339,9.89339C50.706450000000004,7.08036,54.5218,5.5,58.5,5.5ZM58.5,6.5Q52.70103,6.5,48.6005,10.6005Q44.5,14.70103,44.499756,20.477899999999998Q44.59105,24.6129,46.66503,28.2042Q48.61419,31.6686,51.38832,34.5316Q54.5136,37.8293,58.2234,40.4157Q58.3494,40.4997,58.5008,40.4997Q58.652100000000004,40.4997,58.7606,40.4277Q62.488,37.8291,65.6208,34.5236Q68.3874,31.6684,70.342,28.1945Q72.4096,24.613,72.5,20.5Q72.5,14.70112,68.39959999999999,10.60051Q64.2989,6.5,58.5,6.5Z" fill-rule="evenodd" fill="#FFFFFF" fill-opacity="1"/></g><g><path d="M59.333333,14.5527309Q59.335,14.5263918,59.335,14.5Q59.335,14.4177597,59.318956,14.3371Q59.302911,14.25644,59.271439,14.180459Q59.239967,14.104479,59.194277,14.036099Q59.148587,13.967719,59.090434,13.909566Q59.032281,13.851413,58.963901,13.805723Q58.895521,13.760033,58.819541,13.728561Q58.74356,13.697089,58.6629,13.681044Q58.5822403,13.665,58.5,13.665Q58.4177597,13.665,58.3371,13.681044Q58.25644,13.697089,58.180459,13.728561Q58.104479,13.760033,58.036099,13.805723Q57.967719,13.851413,57.909566,13.909566Q57.851413,13.967719,57.805723,14.036099Q57.760033,14.104479,57.728561,14.180459Q57.697089,14.25644,57.681044,14.3371Q57.665,14.4177597,57.665,14.5Q57.665,14.5263918,57.666667,14.5527309L57.666667,29.4473Q57.665,29.473599999999998,57.665,29.5Q57.665,29.5822,57.681044,29.6629Q57.697089,29.7436,57.728561,29.819499999999998Q57.760033,29.8955,57.805723,29.963900000000002Q57.851413,30.0323,57.909566,30.090400000000002Q57.967719,30.148600000000002,58.036099,30.1943Q58.104479,30.240000000000002,58.180459,30.2714Q58.25644,30.3029,58.3371,30.319000000000003Q58.4177597,30.335,58.5,30.335Q58.5822403,30.335,58.6629,30.319000000000003Q58.74356,30.3029,58.819541,30.2714Q58.895521,30.240000000000002,58.963901,30.1943Q59.032281,30.148600000000002,59.090434,30.090400000000002Q59.148587,30.0323,59.194277,29.963900000000002Q59.239967,29.8955,59.271439,29.819499999999998Q59.302911,29.7436,59.318956,29.6629Q59.335,29.5822,59.335,29.5Q59.335,29.473599999999998,59.333333,29.4473L59.333333,14.5527309Z" fill-rule="evenodd" fill="#FFFFFF" fill-opacity="1"/></g><g><path d="M65.3735,22.55197L58.5,15.67851L51.626545,22.55197Q51.507657,22.68692,51.343754,22.76096Q51.179851,22.835,51,22.835Q50.9177597,22.835,50.8371,22.81895Q50.75644,22.80291,50.680459,22.77144Q50.604479,22.73997,50.536099,22.69428Q50.467719,22.64859,50.409566,22.590429999999998Q50.351413,22.53228,50.305723,22.4639Q50.260033,22.39552,50.228561,22.31954Q50.197089,22.243560000000002,50.181044,22.1629Q50.165,22.08224,50.165,22Q50.165,21.820149999999998,50.239039,21.65625Q50.313078,21.492350000000002,50.448026,21.37346L57.91074,13.910744Q57.96878,13.852708,58.03702,13.807109Q58.10527,13.76151,58.1811,13.730101Q58.25693,13.698691,58.33742,13.682679Q58.41792,13.666667,58.5,13.666667Q58.58208,13.666667,58.66257,13.682679Q58.74307,13.698691,58.8189,13.730101Q58.89473,13.76151,58.96297,13.807109Q59.03122,13.852708,59.089259999999996,13.910744L66.55199999999999,21.37346Q66.6869,21.492350000000002,66.761,21.65625Q66.83500000000001,21.820149999999998,66.83500000000001,22Q66.83500000000001,22.08224,66.819,22.1629Q66.8029,22.243560000000002,66.7714,22.31954Q66.74,22.39552,66.6943,22.4639Q66.6486,22.53228,66.5904,22.590429999999998Q66.53229999999999,22.64859,66.4639,22.69428Q66.3955,22.73997,66.3195,22.77144Q66.2436,22.80291,66.16290000000001,22.81895Q66.0822,22.835,66,22.835Q65.8202,22.835,65.6562,22.76096Q65.4923,22.68692,65.3735,22.55197Z" fill-rule="evenodd" fill="#FFFFFF" fill-opacity="1"/></g></g></svg>