<svg xmlns="http://www.w3.org/2000/svg" xmlns:xlink="http://www.w3.org/1999/xlink" fill="none" version="1.1" width="56" height="30" viewBox="0 0 56 30"><defs><linearGradient x1="1" y1="0.5" x2="0" y2="0.5" id="master_svg0_2_95760"><stop offset="0%" stop-color="#C0EC4E" stop-opacity="1"/><stop offset="100%" stop-color="#FFFFFF" stop-opacity="0"/></linearGradient><clipPath id="master_svg1_2_95712/2_95623"><rect x="23" y="4" width="22" height="22" rx="11"/></clipPath></defs><g><rect x="0" y="1" width="48" height="28" rx="14" fill="url(#master_svg0_2_95760)" fill-opacity="1"/><rect x="0.25" y="1.25" width="47.5" height="27.5" rx="13.75" fill-opacity="0" stroke-opacity="1" stroke="#9E9E9E" fill="none" stroke-width="0.5"/><g><g><g><g clip-path="url(#master_svg1_2_95712/2_95623)"><rect x="23" y="4" width="22" height="22" rx="11" fill="#907EFF" fill-opacity="1"/><g></g><g><g><path d="M32.0001075,17.7798925C32.0001075,17.7798925,29.2201045,14.9998925,29.2201045,14.9998925C29.2201045,14.9998925,28.2734375,15.9398925,28.2734375,15.9398925C28.2734375,15.9398925,32.0001075,19.666562499999998,32.0001075,19.666562499999998C32.0001075,19.666562499999998,40.0001375,11.6665625,40.0001375,11.6665625C40.0001375,11.6665625,39.060137499999996,10.7265625,39.060137499999996,10.7265625C39.060137499999996,10.7265625,32.0001075,17.7798925,32.0001075,17.7798925Z" fill="#EADDFF" fill-opacity="1"/></g></g></g></g></g></g></g></svg>